STARTFONT 2.1
FONT -ADECW-Screen-Medium-R-Normal--18-180-75-75-M-160-KSC5601.1987-1
SIZE 18 75 75
FONTBOUNDINGBOX 16 18 0 -3

STARTPROPERTIES 26
FONTNAME_REGISTRY ""
FAMILY_NAME "Screen"
FOUNDRY "ADECW"
WEIGHT_NAME "Medium"
SLANT "R"
SETWIDTH_NAME "Normal"
ADD_STYLE_NAME ""
PIXEL_SIZE 18
POINT_SIZE 180
RESOLUTION_X 75
RESOLUTION_Y 75
SPACING "M"
AVERAGE_WIDTH 160
CHARSET_REGISTRY "KSC5601.1987"
CHARSET_ENCODING "1"
DEVICE_FONT_NAME "Screen-KSC5601.1987-1"
CHARSET_COLLECTIONS "KSC5601.1987 1"
FULL_NAME "Screen KSC5601.1987 1"
COPYRIGHT "Copyright (c) 1988, 1991 Digital Equipment Corporation Asia"
CAP_HEIGHT 14
X_HEIGHT 8
WEIGHT 10
QUAD_WIDTH 16
DEFAULT_CHAR 65278
FONT_DESCENT 3
FONT_ASCENT 15
ENDPROPERTIES

CHARS 8225

STARTCHAR a1a1
ENCODING 41377
SWIDTH 960 0
DWIDTH 16 0
BBX 16 18 0 -3
BITMAP
0000
0000
0000
0000
0000
0000
0000
0000
0000
0000
0000
0000
0000
0000
0000
0000
0000
0000
ENDCHAR

STARTCHAR a1a2
ENCODING 41378
SWIDTH 960 0
DWIDTH 16 0
BBX 16 18 0 -3
BITMAP
0000
0000
0000
0040
0020
0030
0030
0000
0000
0000
0000
0000
0000
0000
0000
0000
0000
0000
ENDCHAR

STARTCHAR a1a3
ENCODING 41379
SWIDTH 960 0
DWIDTH 16 0
BBX 16 18 0 -3
BITMAP
0000
0000
0030
0048
0048
0030
0000
0000
0000
0000
0000
0000
0000
0000
0000
0000
0000
0000
ENDCHAR

STARTCHAR a1a4
ENCODING 41380
SWIDTH 960 0
DWIDTH 16 0
BBX 16 18 0 -3
BITMAP
0000
0000
0000
0000
0000
0000
0080
01C0
0080
0000
0000
0000
0000
0000
0000
0000
0000
0000
ENDCHAR

STARTCHAR a1a5
ENCODING 41381
SWIDTH 960 0
DWIDTH 16 0
BBX 16 18 0 -3
BITMAP
0000
0000
0000
0000
0000
0000
0808
1C1C
0808
0000
0000
0000
0000
0000
0000
0000
0000
0000
ENDCHAR

STARTCHAR a1a6
ENCODING 41382
SWIDTH 960 0
DWIDTH 16 0
BBX 16 18 0 -3
BITMAP
0000
0000
0000
0000
0000
0000
1084
39CE
1084
0000
0000
0000
0000
0000
0000
0000
0000
0000
ENDCHAR

STARTCHAR a1a7
ENCODING 41383
SWIDTH 960 0
DWIDTH 16 0
BBX 16 18 0 -3
BITMAP
0000
0000
1818
3C3C
1818
0000
0000
0000
0000
0000
0000
0000
0000
0000
0000
0000
0000
0000
ENDCHAR

STARTCHAR a1a8
ENCODING 41384
SWIDTH 960 0
DWIDTH 16 0
BBX 16 18 0 -3
BITMAP
0000
0000
0000
0000
0000
0000
0330
0330
0220
0440
0000
0000
0000
0000
0000
0000
0000
0000
ENDCHAR

STARTCHAR a1a9
ENCODING 41385
SWIDTH 960 0
DWIDTH 16 0
BBX 16 18 0 -3
BITMAP
0000
0000
0000
0000
0000
0000
0000
07E0
0000
0000
0000
0000
0000
0000
0000
0000
0000
0000
ENDCHAR

STARTCHAR a1aa
ENCODING 41386
SWIDTH 960 0
DWIDTH 16 0
BBX 16 18 0 -3
BITMAP
0000
0000
0000
0000
0000
0000
0000
FFFF
0000
0000
0000
0000
0000
0000
0000
0000
0000
0000
ENDCHAR

STARTCHAR a1ab
ENCODING 41387
SWIDTH 960 0
DWIDTH 16 0
BBX 16 18 0 -3
BITMAP
0000
0000
0220
0220
0220
0220
0220
0220
0220
0220
0220
0220
0220
0220
0000
0000
0000
0000
ENDCHAR

STARTCHAR a1ac
ENCODING 41388
SWIDTH 960 0
DWIDTH 16 0
BBX 16 18 0 -3
BITMAP
0000
0000
2000
1000
0800
0400
0200
0100
0080
0040
0020
0010
0008
0004
0000
0000
0000
0000
ENDCHAR

STARTCHAR a1ad
ENCODING 41389
SWIDTH 960 0
DWIDTH 16 0
BBX 16 18 0 -3
BITMAP
0000
0000
0000
0000
0000
0000
0702
188C
2070
0000
0000
0000
0000
0000
0000
0000
0000
0000
ENDCHAR

STARTCHAR a1ae
ENCODING 41390
SWIDTH 960 0
DWIDTH 16 0
BBX 16 18 0 -3
BITMAP
0000
0000
0010
0020
0040
0060
0060
0000
0000
0000
0000
0000
0000
0000
0000
0000
0000
0000
ENDCHAR

STARTCHAR a1af
ENCODING 41391
SWIDTH 960 0
DWIDTH 16 0
BBX 16 18 0 -3
BITMAP
0000
0000
0C00
0C00
0400
0800
1000
0000
0000
0000
0000
0000
0000
0000
0000
0000
0000
0000
ENDCHAR

STARTCHAR a1b0
ENCODING 41392
SWIDTH 960 0
DWIDTH 16 0
BBX 16 18 0 -3
BITMAP
0000
0000
0048
0090
0120
01B0
01B0
0000
0000
0000
0000
0000
0000
0000
0000
0000
0000
0000
ENDCHAR

STARTCHAR a1b1
ENCODING 41393
SWIDTH 960 0
DWIDTH 16 0
BBX 16 18 0 -3
BITMAP
0000
0000
0D80
0D80
0480
0900
1200
0000
0000
0000
0000
0000
0000
0000
0000
0000
0000
0000
ENDCHAR

STARTCHAR a1b2
ENCODING 41394
SWIDTH 960 0
DWIDTH 16 0
BBX 16 18 0 -3
BITMAP
0000
0000
0008
0010
0020
0020
0020
0020
0020
0020
0020
0020
0010
0008
0000
0000
0000
0000
ENDCHAR

STARTCHAR a1b3
ENCODING 41395
SWIDTH 960 0
DWIDTH 16 0
BBX 16 18 0 -3
BITMAP
0000
0000
1000
0800
0400
0400
0400
0400
0400
0400
0400
0400
0800
1000
0000
0000
0000
0000
ENDCHAR

STARTCHAR a1b4
ENCODING 41396
SWIDTH 960 0
DWIDTH 16 0
BBX 16 18 0 -3
BITMAP
0000
0000
0000
0008
0010
0020
0040
0080
0100
0080
0040
0020
0010
0008
0000
0000
0000
0000
ENDCHAR

STARTCHAR a1b5
ENCODING 41397
SWIDTH 960 0
DWIDTH 16 0
BBX 16 18 0 -3
BITMAP
0000
0000
0000
1000
0800
0400
0200
0100
0080
0100
0200
0400
0800
1000
0000
0000
0000
0000
ENDCHAR

STARTCHAR a1b6
ENCODING 41398
SWIDTH 960 0
DWIDTH 16 0
BBX 16 18 0 -3
BITMAP
0000
0000
0048
0090
0120
0240
0480
0900
1200
0900
0480
0240
0120
0090
0048
0000
0000
0000
ENDCHAR

STARTCHAR a1b7
ENCODING 41399
SWIDTH 960 0
DWIDTH 16 0
BBX 16 18 0 -3
BITMAP
0000
0000
1200
0900
0480
0240
0120
0090
0048
0090
0120
0240
0480
0900
1200
0000
0000
0000
ENDCHAR

STARTCHAR a1b8
ENCODING 41400
SWIDTH 960 0
DWIDTH 16 0
BBX 16 18 0 -3
BITMAP
0000
0000
0FE0
0800
0800
0800
0800
0800
0800
0800
0800
0800
0800
0800
0800
0000
0000
0000
ENDCHAR

STARTCHAR a1b9
ENCODING 41401
SWIDTH 960 0
DWIDTH 16 0
BBX 16 18 0 -3
BITMAP
0000
0000
0010
0010
0010
0010
0010
0010
0010
0010
0010
0010
0010
0010
07F0
0000
0000
0000
ENDCHAR

STARTCHAR a1ba
ENCODING 41402
SWIDTH 960 0
DWIDTH 16 0
BBX 16 18 0 -3
BITMAP
0000
0000
1F00
1100
1700
1400
1400
1400
1400
1400
1C00
0000
0000
0000
0000
0000
0000
0000
ENDCHAR

STARTCHAR a1bb
ENCODING 41403
SWIDTH 960 0
DWIDTH 16 0
BBX 16 18 0 -3
BITMAP
0000
0000
0000
0000
0000
0038
0028
0028
0028
0028
0028
00E8
0088
00F8
0000
0000
0000
0000
ENDCHAR

STARTCHAR a1bc
ENCODING 41404
SWIDTH 960 0
DWIDTH 16 0
BBX 16 18 0 -3
BITMAP
0000
0000
1F80
1E00
1C00
1800
1800
1800
1800
1800
1800
1C00
1E00
1F80
0000
0000
0000
0000
ENDCHAR

STARTCHAR a1bd
ENCODING 41405
SWIDTH 960 0
DWIDTH 16 0
BBX 16 18 0 -3
BITMAP
0000
0000
01F8
0078
0038
0018
0018
0018
0018
0018
0018
0038
0078
01F8
0000
0000
0000
0000
ENDCHAR

STARTCHAR a1be
ENCODING 41406
SWIDTH 960 0
DWIDTH 16 0
BBX 16 18 0 -3
BITMAP
0000
0000
0000
0000
0100
0100
0100
1FF0
0100
0100
0100
0000
1FF0
0000
0000
0000
0000
0000
ENDCHAR

STARTCHAR a1bf
ENCODING 41407
SWIDTH 960 0
DWIDTH 16 0
BBX 16 18 0 -3
BITMAP
0000
0000
0000
0000
1010
0820
0440
0280
0100
0280
0440
0820
1010
0000
0000
0000
0000
0000
ENDCHAR

STARTCHAR a1c0
ENCODING 41408
SWIDTH 960 0
DWIDTH 16 0
BBX 16 18 0 -3
BITMAP
0000
0000
0000
0000
0180
0180
0000
0000
0FF0
0000
0000
0180
0180
0000
0000
0000
0000
0000
ENDCHAR

STARTCHAR a1c1
ENCODING 41409
SWIDTH 960 0
DWIDTH 16 0
BBX 16 18 0 -3
BITMAP
0000
0000
0000
0000
1000
0800
0400
1FF8
0100
0080
1FF8
0020
0010
0008
0000
0000
0000
0000
ENDCHAR

STARTCHAR a1c2
ENCODING 41410
SWIDTH 960 0
DWIDTH 16 0
BBX 16 18 0 -3
BITMAP
0000
0000
0038
01C0
0E00
3000
0E00
01C0
0038
0000
3FF8
0000
0000
3FF8
0000
0000
0000
0000
ENDCHAR

STARTCHAR a1c3
ENCODING 41411
SWIDTH 960 0
DWIDTH 16 0
BBX 16 18 0 -3
BITMAP
0000
0000
3800
0700
00E0
0018
00E0
0700
3800
0000
3FF8
0000
0000
3FF8
0000
0000
0000
0000
ENDCHAR

STARTCHAR a1c4
ENCODING 41412
SWIDTH 960 0
DWIDTH 16 0
BBX 16 18 0 -3
BITMAP
0000
0000
0000
0000
0000
1C70
2288
4104
4104
2288
1C70
0000
0000
0000
0000
0000
0000
0000
ENDCHAR

STARTCHAR a1c5
ENCODING 41413
SWIDTH 960 0
DWIDTH 16 0
BBX 16 18 0 -3
BITMAP
0000
0000
0000
0000
0180
0180
0000
0000
0000
0000
1818
1818
0000
0000
0000
0000
0000
0000
ENDCHAR

STARTCHAR a1c6
ENCODING 41414
SWIDTH 960 0
DWIDTH 16 0
BBX 16 18 0 -3
BITMAP
0000
0000
0000
0180
0240
0240
0180
0000
0000
0000
0000
0000
0000
0000
0000
0000
0000
0000
ENDCHAR

STARTCHAR a1c7
ENCODING 41415
SWIDTH 960 0
DWIDTH 16 0
BBX 16 18 0 -3
BITMAP
0000
0000
0040
0080
0100
0200
0000
0000
0000
0000
0000
0000
0000
0000
0000
0000
0000
0000
ENDCHAR

STARTCHAR a1c8
ENCODING 41416
SWIDTH 960 0
DWIDTH 16 0
BBX 16 18 0 -3
BITMAP
0000
0000
0120
0240
0480
0900
0000
0000
0000
0000
0000
0000
0000
0000
0000
0000
0000
0000
ENDCHAR

STARTCHAR a1c9
ENCODING 41417
SWIDTH 960 0
DWIDTH 16 0
BBX 16 18 0 -3
BITMAP
0000
0000
0800
1400
08E8
0118
0208
0400
0400
0400
0400
0208
0110
00E0
0000
0000
0000
0000
ENDCHAR

STARTCHAR a1ca
ENCODING 41418
SWIDTH 960 0
DWIDTH 16 0
BBX 16 18 0 -3
BITMAP
0000
0100
0280
0100
0000
0100
0280
0440
0820
1010
1FF0
1010
1010
1010
0000
0000
0000
0000
ENDCHAR

STARTCHAR a1cb
ENCODING 41419
SWIDTH 960 0
DWIDTH 16 0
BBX 16 18 0 -3
BITMAP
0000
0080
0080
03E0
0498
0888
1080
1080
1080
1080
0888
0490
03E0
0080
0080
0000
0000
0000
ENDCHAR

STARTCHAR a1cc
ENCODING 41420
SWIDTH 960 0
DWIDTH 16 0
BBX 16 18 0 -3
BITMAP
0000
0000
03C0
0440
0400
0400
1FE0
0200
1FE0
0200
0200
1A00
2708
18F0
0000
0000
0000
0000
ENDCHAR

STARTCHAR a1cd
ENCODING 41421
SWIDTH 960 0
DWIDTH 16 0
BBX 16 18 0 -3
BITMAP
0000
0000
3838
1010
0820
0440
0280
1FF0
0100
1FF0
0100
0100
0100
0380
0000
0000
0000
0000
ENDCHAR

STARTCHAR a1ce
ENCODING 41422
SWIDTH 960 0
DWIDTH 16 0
BBX 16 18 0 -3
BITMAP
0000
0000
0000
0100
0380
0540
0920
0100
0380
0440
0820
0820
0440
0380
0000
0000
0000
0000
ENDCHAR

STARTCHAR a1cf
ENCODING 41423
SWIDTH 960 0
DWIDTH 16 0
BBX 16 18 0 -3
BITMAP
0000
0000
0000
0380
0440
0820
0820
0440
0380
0100
0100
0FE0
0100
0100
0000
0000
0000
0000
ENDCHAR

STARTCHAR a1d0
ENCODING 41424
SWIDTH 960 0
DWIDTH 16 0
BBX 16 18 0 -3
BITMAP
0000
0000
0000
0000
0000
0010
0020
0040
0080
0100
0200
0400
0800
1FF0
0000
0000
0000
0000
ENDCHAR

STARTCHAR a1d1
ENCODING 41425
SWIDTH 960 0
DWIDTH 16 0
BBX 16 18 0 -3
BITMAP
0000
0000
0000
0000
0000
0100
0100
0100
0100
0100
0100
0100
1FF0
0000
0000
0000
0000
0000
ENDCHAR

STARTCHAR a1d2
ENCODING 41426
SWIDTH 960 0
DWIDTH 16 0
BBX 16 18 0 -3
BITMAP
0000
0000
0000
03C0
0C30
1008
0000
0000
0000
0000
0000
0000
0000
0000
0000
0000
0000
0000
ENDCHAR

STARTCHAR a1d3
ENCODING 41427
SWIDTH 960 0
DWIDTH 16 0
BBX 16 18 0 -3
BITMAP
0000
0000
0000
0000
01C0
0220
0420
0020
01E0
0220
0420
0440
0440
0380
0000
0000
0000
0000
ENDCHAR

STARTCHAR a1d4
ENCODING 41428
SWIDTH 960 0
DWIDTH 16 0
BBX 16 18 0 -3
BITMAP
0000
0000
0000
0000
3FF8
1010
1010
0820
0820
0440
0440
0280
0280
0100
0000
0000
0000
0000
ENDCHAR

STARTCHAR a1d5
ENCODING 41429
SWIDTH 960 0
DWIDTH 16 0
BBX 16 18 0 -3
BITMAP
0000
0000
0000
0000
0000
0000
1FF8
0000
1FF8
0000
1FF8
0000
0000
0000
0000
0000
0000
0000
ENDCHAR

STARTCHAR a1d6
ENCODING 41430
SWIDTH 960 0
DWIDTH 16 0
BBX 16 18 0 -3
BITMAP
0000
0000
0000
0000
1000
0000
0000
1FF8
0000
0000
1FF8
0000
0000
0008
0000
0000
0000
0000
ENDCHAR

STARTCHAR a1d7
ENCODING 41431
SWIDTH 960 0
DWIDTH 16 0
BBX 16 18 0 -3
BITMAP
0000
0380
0440
0440
0200
0100
0380
0440
0440
0240
0180
0040
0440
0440
0380
0000
0000
0000
ENDCHAR

STARTCHAR a1d8
ENCODING 41432
SWIDTH 960 0
DWIDTH 16 0
BBX 16 18 0 -3
BITMAP
0000
0000
0000
1188
0990
0420
0240
1998
1998
0240
0420
0990
1188
0000
0000
0000
0000
0000
ENDCHAR

STARTCHAR a1d9
ENCODING 41433
SWIDTH 960 0
DWIDTH 16 0
BBX 16 18 0 -3
BITMAP
0000
0000
0080
0140
0220
7C1F
2002
1004
0818
0C10
1188
1668
1818
2004
0000
0000
0000
0000
ENDCHAR

STARTCHAR a1da
ENCODING 41434
SWIDTH 960 0
DWIDTH 16 0
BBX 16 18 0 -3
BITMAP
0000
0000
0080
01C0
03E0
7FFF
3FFE
1FFC
0FF8
0FF0
1FF8
1E78
1818
2004
0000
0000
0000
0000
ENDCHAR

STARTCHAR a1db
ENCODING 41435
SWIDTH 960 0
DWIDTH 16 0
BBX 16 18 0 -3
BITMAP
0000
0000
0000
03C0
0C30
1008
2004
2004
2004
2004
2004
1008
0C30
03C0
0000
0000
0000
0000
ENDCHAR

STARTCHAR a1dc
ENCODING 41436
SWIDTH 960 0
DWIDTH 16 0
BBX 16 18 0 -3
BITMAP
0000
0000
0000
03C0
0FF0
1FF8
3FFC
3FFC
3FFC
3FFC
3FFC
1FF8
0FF0
03C0
0000
0000
0000
0000
ENDCHAR

STARTCHAR a1dd
ENCODING 41437
SWIDTH 960 0
DWIDTH 16 0
BBX 16 18 0 -3
BITMAP
0000
0000
0000
03E0
0C18
11C4
2632
280A
280A
280A
2632
11C4
0C18
03E0
0000
0000
0000
0000
ENDCHAR

STARTCHAR a1de
ENCODING 41438
SWIDTH 960 0
DWIDTH 16 0
BBX 16 18 0 -3
BITMAP
0000
0000
0000
0080
0140
0220
0410
0808
1004
0808
0410
0220
0140
0080
0000
0000
0000
0000
ENDCHAR

STARTCHAR a1df
ENCODING 41439
SWIDTH 960 0
DWIDTH 16 0
BBX 16 18 0 -3
BITMAP
0000
0000
0000
0080
01C0
03E0
07F0
0FF8
1FFC
0FF8
07F0
03E0
01C0
0080
0000
0000
0000
0000
ENDCHAR

STARTCHAR a1e0
ENCODING 41440
SWIDTH 960 0
DWIDTH 16 0
BBX 16 18 0 -3
BITMAP
0000
0000
0000
0000
1FF8
1008
1008
1008
1008
1008
1008
1008
1FF8
0000
0000
0000
0000
0000
ENDCHAR

STARTCHAR a1e1
ENCODING 41441
SWIDTH 960 0
DWIDTH 16 0
BBX 16 18 0 -3
BITMAP
0000
0000
0000
0000
1FF8
1FF8
1FF8
1FF8
1FF8
1FF8
1FF8
1FF8
1FF8
0000
0000
0000
0000
0000
ENDCHAR

STARTCHAR a1e2
ENCODING 41442
SWIDTH 960 0
DWIDTH 16 0
BBX 16 18 0 -3
BITMAP
0000
0000
0000
0100
0280
0280
0440
0440
0820
0820
1010
1010
3FF8
0000
0000
0000
0000
0000
ENDCHAR

STARTCHAR a1e3
ENCODING 41443
SWIDTH 960 0
DWIDTH 16 0
BBX 16 18 0 -3
BITMAP
0000
0000
0000
0100
0380
0380
07C0
07C0
0FE0
0FE0
1FF0
1FF0
3FF8
0000
0000
0000
0000
0000
ENDCHAR

STARTCHAR a1e4
ENCODING 41444
SWIDTH 960 0
DWIDTH 16 0
BBX 16 18 0 -3
BITMAP
0000
0000
0000
0000
3FF8
1010
1010
0820
0820
0440
0440
0280
0280
0100
0000
0000
0000
0000
ENDCHAR

STARTCHAR a1e5
ENCODING 41445
SWIDTH 960 0
DWIDTH 16 0
BBX 16 18 0 -3
BITMAP
0000
0000
0000
0000
3FF8
1FF0
1FF0
0FE0
0FE0
07C0
07C0
0380
0380
0100
0000
0000
0000
0000
ENDCHAR

STARTCHAR a1e6
ENCODING 41446
SWIDTH 960 0
DWIDTH 16 0
BBX 16 18 0 -3
BITMAP
0000
0000
0000
0000
0000
0000
0020
0010
FFF8
0010
0020
0000
0000
0000
0000
0000
0000
0000
ENDCHAR

STARTCHAR a1e7
ENCODING 41447
SWIDTH 960 0
DWIDTH 16 0
BBX 16 18 0 -3
BITMAP
0000
0000
0000
0000
0000
0000
0400
0800
1FFF
0800
0400
0000
0000
0000
0000
0000
0000
0000
ENDCHAR

STARTCHAR a1e8
ENCODING 41448
SWIDTH 960 0
DWIDTH 16 0
BBX 16 18 0 -3
BITMAP
0000
0000
0100
0380
0540
0100
0100
0100
0100
0100
0100
0100
0100
0000
0000
0000
0000
0000
ENDCHAR

STARTCHAR a1e9
ENCODING 41449
SWIDTH 960 0
DWIDTH 16 0
BBX 16 18 0 -3
BITMAP
0000
0000
0100
0100
0100
0100
0100
0100
0100
0100
0540
0380
0100
0000
0000
0000
0000
0000
ENDCHAR

STARTCHAR a1ea
ENCODING 41450
SWIDTH 960 0
DWIDTH 16 0
BBX 16 18 0 -3
BITMAP
0000
0000
0000
0000
0000
0000
0810
1008
3FFC
1008
0810
0000
0000
0000
0000
0000
0000
0000
ENDCHAR

STARTCHAR a1eb
ENCODING 41451
SWIDTH 960 0
DWIDTH 16 0
BBX 16 18 0 -3
BITMAP
0000
0000
0000
0000
0000
0000
0000
1FF0
0000
0000
1FF0
0000
0000
0000
0000
0000
0000
0000
ENDCHAR

STARTCHAR a1ec
ENCODING 41452
SWIDTH 960 0
DWIDTH 16 0
BBX 16 18 0 -3
BITMAP
0000
0000
0000
0000
0000
018C
0630
18C0
2100
18C0
0630
018C
0000
0000
0000
0000
0000
0000
ENDCHAR

STARTCHAR a1ed
ENCODING 41453
SWIDTH 960 0
DWIDTH 16 0
BBX 16 18 0 -3
BITMAP
0000
0000
0000
0000
0000
3180
0C60
0318
0084
0318
0C60
3180
0000
0000
0000
0000
0000
0000
ENDCHAR

STARTCHAR a1ee
ENCODING 41454
SWIDTH 960 0
DWIDTH 16 0
BBX 16 18 0 -3
BITMAP
0000
007F
0040
0080
0080
0100
0100
0200
0200
0400
4400
A800
2800
1000
0000
0000
0000
0000
ENDCHAR

STARTCHAR a1ef
ENCODING 41455
SWIDTH 960 0
DWIDTH 16 0
BBX 16 18 0 -3
BITMAP
0000
0000
0000
0000
0000
0000
1C70
2088
4104
4104
2208
1C70
0000
0000
0000
0000
0000
0000
ENDCHAR

STARTCHAR a1f0
ENCODING 41456
SWIDTH 960 0
DWIDTH 16 0
BBX 16 18 0 -3
BITMAP
0000
0000
0000
0000
0000
0000
0E38
1140
2080
2080
1140
0E38
0000
0000
0000
0000
0000
0000
ENDCHAR

STARTCHAR a1f1
ENCODING 41457
SWIDTH 960 0
DWIDTH 16 0
BBX 16 18 0 -3
BITMAP
0000
0000
0000
0000
0000
1818
1818
0000
0000
0000
0000
0180
0180
0000
0000
0000
0000
0000
ENDCHAR

STARTCHAR a1f2
ENCODING 41458
SWIDTH 960 0
DWIDTH 16 0
BBX 16 18 0 -3
BITMAP
0070
00C0
00C0
00C0
00C0
00C0
00C0
00C0
00C0
00C0
00C0
00C0
00C0
00C0
00C0
0380
0000
0000
ENDCHAR

STARTCHAR a1f3
ENCODING 41459
SWIDTH 960 0
DWIDTH 16 0
BBX 16 18 0 -3
BITMAP
01B0
0360
0360
0360
0360
0360
0360
0360
0360
0360
0360
0360
0360
0360
0360
06C0
0000
0000
ENDCHAR

STARTCHAR a1f4
ENCODING 41460
SWIDTH 960 0
DWIDTH 16 0
BBX 16 18 0 -3
BITMAP
0000
0000
0000
0000
07F8
0800
1000
1000
1FF8
1000
1000
0800
07F8
0000
0000
0000
0000
0000
ENDCHAR

STARTCHAR a1f5
ENCODING 41461
SWIDTH 960 0
DWIDTH 16 0
BBX 16 18 0 -3
BITMAP
0000
0000
0000
0000
1FE0
0010
0008
0008
1FF8
0008
0008
0010
1FE0
0000
0000
0000
0000
0000
ENDCHAR

STARTCHAR a1f6
ENCODING 41462
SWIDTH 960 0
DWIDTH 16 0
BBX 16 18 0 -3
BITMAP
0000
0000
0000
0000
07F8
0800
1000
1000
0800
07F8
0000
0000
1FF8
0000
0000
0000
0000
0000
ENDCHAR

STARTCHAR a1f7
ENCODING 41463
SWIDTH 960 0
DWIDTH 16 0
BBX 16 18 0 -3
BITMAP
0000
0000
0000
0000
1FE0
0010
0008
0008
0010
1FE0
0000
0000
1FF8
0000
0000
0000
0000
0000
ENDCHAR

STARTCHAR a1f8
ENCODING 41464
SWIDTH 960 0
DWIDTH 16 0
BBX 16 18 0 -3
BITMAP
0000
0000
0000
0000
07F8
0800
1000
1000
1000
1000
1000
0800
07F8
0000
0000
0000
0000
0000
ENDCHAR

STARTCHAR a1f9
ENCODING 41465
SWIDTH 960 0
DWIDTH 16 0
BBX 16 18 0 -3
BITMAP
0000
0000
0000
0000
1FE0
0010
0008
0008
0008
0008
0008
0010
1FE0
0000
0000
0000
0000
0000
ENDCHAR

STARTCHAR a1fa
ENCODING 41466
SWIDTH 960 0
DWIDTH 16 0
BBX 16 18 0 -3
BITMAP
0000
0000
0000
1008
1008
1008
1008
1008
1008
1008
1008
0810
07E0
0000
0000
0000
0000
0000
ENDCHAR

STARTCHAR a1fb
ENCODING 41467
SWIDTH 960 0
DWIDTH 16 0
BBX 16 18 0 -3
BITMAP
0000
0000
0000
07E0
0810
1008
1008
1008
1008
1008
1008
1008
1008
0000
0000
0000
0000
0000
ENDCHAR

STARTCHAR a1fc
ENCODING 41468
SWIDTH 960 0
DWIDTH 16 0
BBX 16 18 0 -3
BITMAP
0000
0000
0000
0080
0140
0140
0220
0220
0410
0410
0808
0808
1004
1004
0000
0000
0000
0000
ENDCHAR

STARTCHAR a1fd
ENCODING 41469
SWIDTH 960 0
DWIDTH 16 0
BBX 16 18 0 -3
BITMAP
0000
0000
0000
1004
1004
0808
0808
0410
0410
0220
0220
0140
0140
0080
0000
0000
0000
0000
ENDCHAR

STARTCHAR a1fe
ENCODING 41470
SWIDTH 960 0
DWIDTH 16 0
BBX 16 18 0 -3
BITMAP
0000
0000
3FF0
0010
0010
0010
0010
0000
0000
0000
0000
0000
0000
0000
0000
0000
0000
0000
ENDCHAR

STARTCHAR a2a1
ENCODING 41633
SWIDTH 960 0
DWIDTH 16 0
BBX 16 18 0 -3
BITMAP
0000
0000
0000
0000
0020
0010
1FF8
0004
1FF8
0010
0020
0000
0000
0000
0000
0000
0000
0000
ENDCHAR

STARTCHAR a2a2
ENCODING 41634
SWIDTH 960 0
DWIDTH 16 0
BBX 16 18 0 -3
BITMAP
0000
0000
0000
0000
0000
0000
0810
1FF8
2004
1FF8
0810
0000
0000
0000
0000
0000
0000
0000
ENDCHAR

STARTCHAR a2a3
ENCODING 41635
SWIDTH 960 0
DWIDTH 16 0
BBX 16 18 0 -3
BITMAP
0000
0000
0000
1010
1010
1010
1010
1FF0
1010
1010
0820
0440
0280
0100
0000
0000
0000
0000
ENDCHAR

STARTCHAR a2a4
ENCODING 41636
SWIDTH 960 0
DWIDTH 16 0
BBX 16 18 0 -3
BITMAP
0000
0000
0000
1FF0
0010
0010
0010
0010
03F0
0010
0010
0010
0010
1FF0
0000
0000
0000
0000
ENDCHAR

STARTCHAR a2a5
ENCODING 41637
SWIDTH 960 0
DWIDTH 16 0
BBX 16 18 0 -3
BITMAP
0020
0040
0080
0000
0000
0000
0000
0000
0000
0000
0000
0000
0000
0000
0000
0000
0000
0000
ENDCHAR

STARTCHAR a2a6
ENCODING 41638
SWIDTH 960 0
DWIDTH 16 0
BBX 16 18 0 -3
BITMAP
0320
04C0
0000
0000
0000
0000
0000
0000
0000
0000
0000
0000
0000
0000
0000
0000
0000
0000
ENDCHAR

STARTCHAR a2a7
ENCODING 41639
SWIDTH 960 0
DWIDTH 16 0
BBX 16 18 0 -3
BITMAP
0410
0220
0140
0080
0000
0000
0000
0000
0000
0000
0000
0000
0000
0000
0000
0000
0000
0000
ENDCHAR

STARTCHAR a2a8
ENCODING 41640
SWIDTH 960 0
DWIDTH 16 0
BBX 16 18 0 -3
BITMAP
0420
03C0
0000
0000
0000
0000
0000
0000
0000
0000
0000
0000
0000
0000
0000
0000
0000
0000
ENDCHAR

STARTCHAR a2a9
ENCODING 41641
SWIDTH 960 0
DWIDTH 16 0
BBX 16 18 0 -3
BITMAP
0090
0120
0240
0000
0000
0000
0000
0000
0000
0000
0000
0000
0000
0000
0000
0000
0000
0000
ENDCHAR

STARTCHAR a2aa
ENCODING 41642
SWIDTH 960 0
DWIDTH 16 0
BBX 16 18 0 -3
BITMAP
00C0
0120
0120
00C0
0000
0000
0000
0000
0000
0000
0000
0000
0000
0000
0000
0000
0000
0000
ENDCHAR

STARTCHAR a2ab
ENCODING 41643
SWIDTH 960 0
DWIDTH 16 0
BBX 16 18 0 -3
BITMAP
00C0
01E0
01E0
00C0
0000
0000
0000
0000
0000
0000
0000
0000
0000
0000
0000
0000
0000
0000
ENDCHAR

STARTCHAR a2ac
ENCODING 41644
SWIDTH 960 0
DWIDTH 16 0
BBX 16 18 0 -3
BITMAP
0000
0000
0000
0000
0000
0000
0000
0000
0000
00C0
0080
0040
0020
0120
00C0
0000
0000
0000
ENDCHAR

STARTCHAR a2ad
ENCODING 41645
SWIDTH 960 0
DWIDTH 16 0
BBX 16 18 0 -3
BITMAP
0000
0000
0000
0000
0000
0000
0000
0000
0000
0080
0080
0100
0200
0220
01C0
0000
0000
0000
ENDCHAR

STARTCHAR a2ae
ENCODING 41646
SWIDTH 960 0
DWIDTH 16 0
BBX 16 18 0 -3
BITMAP
0000
0180
0180
0000
0180
0180
0180
0180
0180
0180
0180
0180
0180
0180
0000
0000
0000
0000
ENDCHAR

STARTCHAR a2af
ENCODING 41647
SWIDTH 960 0
DWIDTH 16 0
BBX 16 18 0 -3
BITMAP
0000
0000
0180
0180
0000
0000
0180
0180
0180
0300
0600
0630
0630
03E0
0000
0000
0000
0000
ENDCHAR

STARTCHAR a2b0
ENCODING 41648
SWIDTH 960 0
DWIDTH 16 0
BBX 16 18 0 -3
BITMAP
0000
0000
0000
0000
01C0
0080
0000
0000
0000
0080
01C0
0000
0000
0000
0000
0000
0000
0000
ENDCHAR

STARTCHAR a2b1
ENCODING 41649
SWIDTH 960 0
DWIDTH 16 0
BBX 16 18 0 -3
BITMAP
0030
0040
0080
0080
0080
01C0
02A0
02A0
01C0
0080
0080
0080
0080
0100
0600
0000
0000
0000
ENDCHAR

STARTCHAR a2b2
ENCODING 41650
SWIDTH 960 0
DWIDTH 16 0
BBX 16 18 0 -3
BITMAP
0000
0000
0000
0FF8
0408
0200
0100
0080
0100
0200
0408
0FF8
0000
0000
0000
0000
0000
0000
ENDCHAR

STARTCHAR a2b3
ENCODING 41651
SWIDTH 960 0
DWIDTH 16 0
BBX 16 18 0 -3
BITMAP
0000
0000
0000
0FF8
0220
0220
0220
0220
0220
0220
0220
0220
0000
0000
0000
0000
0000
0000
ENDCHAR

STARTCHAR a2b4
ENCODING 41652
SWIDTH 960 0
DWIDTH 16 0
BBX 16 18 0 -3
BITMAP
0000
0000
0000
0000
0420
03C0
0420
0810
0810
0420
03C0
0420
0000
0000
0000
0000
0000
0000
ENDCHAR

STARTCHAR a2b5
ENCODING 41653
SWIDTH 960 0
DWIDTH 16 0
BBX 16 18 0 -3
BITMAP
0000
0000
1000
2800
1FF0
0408
0400
0440
07C0
0440
0400
0400
0E00
0000
0000
0000
0000
0000
ENDCHAR

STARTCHAR a2b6
ENCODING 41654
SWIDTH 960 0
DWIDTH 16 0
BBX 16 18 0 -3
BITMAP
0000
0000
0000
0000
3040
4880
4900
3200
04C6
0929
1129
20C6
0000
0000
0000
0000
0000
0000
ENDCHAR

STARTCHAR a2b7
ENCODING 41655
SWIDTH 960 0
DWIDTH 16 0
BBX 16 18 0 -3
BITMAP
0000
0004
001C
0064
0184
0604
1804
6004
1804
0604
0184
0064
001C
0004
0000
0000
0000
0000
ENDCHAR

STARTCHAR a2b8
ENCODING 41656
SWIDTH 960 0
DWIDTH 16 0
BBX 16 18 0 -3
BITMAP
0000
0004
001C
007C
01FC
07FC
1FFC
7FFC
1FFC
07FC
01FC
007C
001C
0004
0000
0000
0000
0000
ENDCHAR

STARTCHAR a2b9
ENCODING 41657
SWIDTH 960 0
DWIDTH 16 0
BBX 16 18 0 -3
BITMAP
0000
4000
7000
4C00
4300
40C0
4030
400C
4030
40C0
4300
4C00
7000
4000
0000
0000
0000
0000
ENDCHAR

STARTCHAR a2ba
ENCODING 41658
SWIDTH 960 0
DWIDTH 16 0
BBX 16 18 0 -3
BITMAP
0000
4000
7000
7C00
7F00
7FC0
7FF0
7FFC
7FF0
7FC0
7F00
7C00
7000
4000
0000
0000
0000
0000
ENDCHAR

STARTCHAR a2bb
ENCODING 41659
SWIDTH 960 0
DWIDTH 16 0
BBX 16 18 0 -3
BITMAP
0000
0080
0140
0220
0410
0808
1004
2002
2002
2082
11C4
0EB8
0080
0080
0000
0000
0000
0000
ENDCHAR

STARTCHAR a2bc
ENCODING 41660
SWIDTH 960 0
DWIDTH 16 0
BBX 16 18 0 -3
BITMAP
0000
0080
01C0
03E0
07F0
0FF8
1FFC
3FFE
3FFE
3FFE
1FFC
0EB8
0080
0080
0000
0000
0000
0000
ENDCHAR

STARTCHAR a2bd
ENCODING 41661
SWIDTH 960 0
DWIDTH 16 0
BBX 16 18 0 -3
BITMAP
0000
0000
0000
0E38
1144
2082
2002
2002
1004
0808
0410
0220
0140
0080
0000
0000
0000
0000
ENDCHAR

STARTCHAR a2be
ENCODING 41662
SWIDTH 960 0
DWIDTH 16 0
BBX 16 18 0 -3
BITMAP
0000
0000
0000
0E38
1F7C
3FFE
3FFE
3FFE
1FFC
0FF8
07F0
03E0
01C0
0080
0000
0000
0000
0000
ENDCHAR

STARTCHAR a2bf
ENCODING 41663
SWIDTH 960 0
DWIDTH 16 0
BBX 16 18 0 -3
BITMAP
0000
0000
01C0
0220
0220
0220
1D5C
2222
21C2
22A2
1C9C
0080
0080
0080
0000
0000
0000
0000
ENDCHAR

STARTCHAR a2c0
ENCODING 41664
SWIDTH 960 0
DWIDTH 16 0
BBX 16 18 0 -3
BITMAP
0000
0000
01C0
03E0
03E0
03E0
1DDC
3FFE
3FFE
3EBE
1C9C
0080
0080
0080
0000
0000
0000
0000
ENDCHAR

STARTCHAR a2c1
ENCODING 41665
SWIDTH 960 0
DWIDTH 16 0
BBX 16 18 0 -3
BITMAP
0000
0000
03E0
0C18
1004
2002
41C1
43E1
43E1
41C1
2002
1004
0C18
03E0
0000
0000
0000
0000
ENDCHAR

STARTCHAR a2c2
ENCODING 41666
SWIDTH 960 0
DWIDTH 16 0
BBX 16 18 0 -3
BITMAP
0000
0000
0080
0140
0220
0490
09C8
13E4
27F2
13E4
09C8
0490
0220
0140
0080
0000
0000
0000
ENDCHAR

STARTCHAR a2c3
ENCODING 41667
SWIDTH 960 0
DWIDTH 16 0
BBX 16 18 0 -3
BITMAP
0000
0000
0000
3FFE
2002
2002
27F2
27F2
27F2
27F2
27F2
2002
2002
3FFE
0000
0000
0000
0000
ENDCHAR

STARTCHAR a2c4
ENCODING 41668
SWIDTH 960 0
DWIDTH 16 0
BBX 16 18 0 -3
BITMAP
0000
0000
03E0
0F18
1F04
3F02
7F01
7F01
7F01
7F01
3F02
1F04
0F18
03E0
0000
0000
0000
0000
ENDCHAR

STARTCHAR a2c5
ENCODING 41669
SWIDTH 960 0
DWIDTH 16 0
BBX 16 18 0 -3
BITMAP
0000
0000
03E0
0C78
107C
207E
407F
407F
407F
407F
207E
107C
0C78
03E0
0000
0000
0000
0000
ENDCHAR

STARTCHAR a2c6
ENCODING 41670
SWIDTH 960 0
DWIDTH 16 0
BBX 16 18 0 -3
BITMAP
0000
0000
3FFE
2002
288A
2222
288A
2222
288A
2222
288A
2222
2002
3FFE
0000
0000
0000
0000
ENDCHAR

STARTCHAR a2c7
ENCODING 41671
SWIDTH 960 0
DWIDTH 16 0
BBX 16 18 0 -3
BITMAP
0000
0000
0000
3FFE
2002
2002
3FFE
2002
3FFE
2002
3FFE
2002
2002
3FFE
0000
0000
0000
0000
ENDCHAR

STARTCHAR a2c8
ENCODING 41672
SWIDTH 960 0
DWIDTH 16 0
BBX 16 18 0 -3
BITMAP
0000
0000
0000
3FFE
2492
2492
2492
2492
2492
2492
2492
2492
2492
3FFE
0000
0000
0000
0000
ENDCHAR

STARTCHAR a2c9
ENCODING 41673
SWIDTH 960 0
DWIDTH 16 0
BBX 16 18 0 -3
BITMAP
0000
0000
0000
3FFE
210A
2212
2422
2842
3086
210A
2212
2422
2842
3FFE
0000
0000
0000
0000
ENDCHAR

STARTCHAR a2ca
ENCODING 41674
SWIDTH 960 0
DWIDTH 16 0
BBX 16 18 0 -3
BITMAP
0000
0000
0000
3FFE
2842
2422
2212
210A
3086
2842
2422
2212
210A
3FFE
0000
0000
0000
0000
ENDCHAR

STARTCHAR a2cb
ENCODING 41675
SWIDTH 960 0
DWIDTH 16 0
BBX 16 18 0 -3
BITMAP
0000
0000
0000
3FFE
2492
2492
3FFE
2492
3FFE
2492
3FFE
2492
2492
3FFE
0000
0000
0000
0000
ENDCHAR

STARTCHAR a2cc
ENCODING 41676
SWIDTH 960 0
DWIDTH 16 0
BBX 16 18 0 -3
BITMAP
0000
0000
0000
3FFE
288A
2552
2222
2556
288A
3156
2A22
2452
2A8A
3FFE
0000
0000
0000
0000
ENDCHAR

STARTCHAR a2cd
ENCODING 41677
SWIDTH 960 0
DWIDTH 16 0
BBX 16 18 0 -3
BITMAP
0000
0000
0248
0490
0920
0920
0490
0248
324C
4492
4922
4002
2004
1FF8
0000
0000
0000
0000
ENDCHAR

STARTCHAR a2ce
ENCODING 41678
SWIDTH 960 0
DWIDTH 16 0
BBX 16 18 0 -3
BITMAP
0000
0000
0000
0000
0FF0
300C
700E
7FFE
0FF0
0FF0
1C18
381C
381C
3FFC
0000
0000
0000
0000
ENDCHAR

STARTCHAR a2cf
ENCODING 41679
SWIDTH 960 0
DWIDTH 16 0
BBX 16 18 0 -3
BITMAP
0000
0000
0000
0000
0FF0
3FFC
7FFE
7FFE
0FF0
0FF0
1FF8
3FFC
3FFC
3FFC
0000
0000
0000
0000
ENDCHAR

STARTCHAR a2d0
ENCODING 41680
SWIDTH 960 0
DWIDTH 16 0
BBX 16 18 0 -3
BITMAP
0000
0000
0000
0000
0000
0000
7FE1
083F
0705
043F
03E1
0000
0000
0000
0000
0000
0000
0000
ENDCHAR

STARTCHAR a2d1
ENCODING 41681
SWIDTH 960 0
DWIDTH 16 0
BBX 16 18 0 -3
BITMAP
0000
0000
0000
0000
0000
0000
43FF
7E08
5070
7E10
41E0
0000
0000
0000
0000
0000
0000
0000
ENDCHAR

STARTCHAR a2d2
ENCODING 41682
SWIDTH 960 0
DWIDTH 16 0
BBX 16 18 0 -3
BITMAP
0000
0000
0000
0FE4
1024
1024
1024
0FE4
0024
0024
0024
0024
0024
0024
0000
0000
0000
0000
ENDCHAR

STARTCHAR a2d3
ENCODING 41683
SWIDTH 960 0
DWIDTH 16 0
BBX 16 18 0 -3
BITMAP
0000
0000
0000
0080
0080
0FF8
0080
0080
0080
0080
0080
0080
0080
0080
0000
0000
0000
0000
ENDCHAR

STARTCHAR a2d4
ENCODING 41684
SWIDTH 960 0
DWIDTH 16 0
BBX 16 18 0 -3
BITMAP
0000
0000
0000
0080
0080
0FF8
0080
0FF8
0080
0080
0080
0080
0080
0080
0000
0000
0000
0000
ENDCHAR

STARTCHAR a2d5
ENCODING 41685
SWIDTH 960 0
DWIDTH 16 0
BBX 16 18 0 -3
BITMAP
0000
0000
0000
0080
01C0
02A0
0080
0080
0080
0080
0080
02A0
01C0
0080
0000
0000
0000
0000
ENDCHAR

STARTCHAR a2d6
ENCODING 41686
SWIDTH 960 0
DWIDTH 16 0
BBX 16 18 0 -3
BITMAP
0000
0000
0000
003C
000C
0014
0024
0040
0080
0100
0200
0400
0800
1000
0000
0000
0000
0000
ENDCHAR

STARTCHAR a2d7
ENCODING 41687
SWIDTH 960 0
DWIDTH 16 0
BBX 16 18 0 -3
BITMAP
0000
0000
0000
0004
0008
0010
0020
0040
0080
0100
1200
1400
1800
1E00
0000
0000
0000
0000
ENDCHAR

STARTCHAR a2d8
ENCODING 41688
SWIDTH 960 0
DWIDTH 16 0
BBX 16 18 0 -3
BITMAP
0000
0000
0000
1E00
1800
1400
1200
0100
0080
0040
0020
0010
0008
0004
0000
0000
0000
0000
ENDCHAR

STARTCHAR a2d9
ENCODING 41689
SWIDTH 960 0
DWIDTH 16 0
BBX 16 18 0 -3
BITMAP
0000
0000
0000
1000
0800
0400
0200
0100
0080
0040
0024
0014
000C
007C
0000
0000
0000
0000
ENDCHAR

STARTCHAR a2da
ENCODING 41690
SWIDTH 960 0
DWIDTH 16 0
BBX 16 18 0 -3
BITMAP
0000
0000
0400
0400
0400
0400
0400
0400
07C0
0420
0420
0440
0480
0700
0000
0000
0000
0000
ENDCHAR

STARTCHAR a2db
ENCODING 41691
SWIDTH 960 0
DWIDTH 16 0
BBX 16 18 0 -3
BITMAP
0000
0000
0040
0040
0040
0040
0040
0040
0040
01C0
03C0
03C0
0180
0000
0000
0000
0000
0000
ENDCHAR

STARTCHAR a2dc
ENCODING 41692
SWIDTH 960 0
DWIDTH 16 0
BBX 16 18 0 -3
BITMAP
0000
0000
0040
0060
0050
0048
0048
0048
0040
0040
01C0
03C0
03C0
0180
0000
0000
0000
0000
ENDCHAR

STARTCHAR a2dd
ENCODING 41693
SWIDTH 960 0
DWIDTH 16 0
BBX 16 18 0 -3
BITMAP
0000
0000
03FC
0204
03FC
0204
0204
0204
0204
0204
0E1C
1E3C
1E3C
0C18
0000
0000
0000
0000
ENDCHAR

STARTCHAR a2de
ENCODING 41694
SWIDTH 960 0
DWIDTH 16 0
BBX 16 18 0 -3
BITMAP
0000
0000
03E0
0C18
1004
2632
4241
4280
7B1F
0281
2242
1224
0C18
03E0
0000
0000
0000
0000
ENDCHAR

STARTCHAR a2df
ENCODING 41695
SWIDTH 960 0
DWIDTH 16 0
BBX 16 18 0 -3
BITMAP
0000
0000
0808
17F4
2082
2142
4631
4001
47F1
2082
2082
1084
0888
0000
0000
0000
0000
0000
ENDCHAR

STARTCHAR a2e0
ENCODING 41696
SWIDTH 960 0
DWIDTH 16 0
BBX 16 18 0 -3
BITMAP
0000
0000
0000
6080
5080
5080
4880
4880
449C
44A2
42A2
42A2
419D
0000
0000
0000
0000
0000
ENDCHAR

STARTCHAR a2e1
ENCODING 41697
SWIDTH 960 0
DWIDTH 16 0
BBX 16 18 0 -3
BITMAP
0000
0000
0000
0E00
1100
2080
2080
2000
2018
20A4
20A4
1124
0E1A
0000
0000
0000
0000
0000
ENDCHAR

STARTCHAR a2e2
ENCODING 41698
SWIDTH 960 0
DWIDTH 16 0
BBX 16 18 0 -3
BITMAP
0000
0000
0000
7F63
0855
0855
0849
0849
0841
0841
0841
0841
0841
0000
0000
0000
0000
0000
ENDCHAR

STARTCHAR a2e3
ENCODING 41699
SWIDTH 960 0
DWIDTH 16 0
BBX 16 18 0 -3
BITMAP
0000
0000
0000
0000
0000
3836
4449
0449
3C49
4449
4449
4449
3B49
0000
0000
0000
0000
0000
ENDCHAR

STARTCHAR a2e4
ENCODING 41700
SWIDTH 960 0
DWIDTH 16 0
BBX 16 18 0 -3
BITMAP
0000
0000
0000
0000
0000
7836
4449
4449
4449
7849
4049
4049
4249
0000
0000
0000
0000
0000
ENDCHAR

STARTCHAR a2e5
ENCODING 41701
SWIDTH 960 0
DWIDTH 16 0
BBX 16 18 0 -3
BITMAP
0000
0000
0000
7F06
0802
0802
08E2
0912
0912
09F2
0902
0902
08F7
0000
0000
0000
0000
0000
ENDCHAR

STARTCHAR a3a1
ENCODING 41889
SWIDTH 960 0
DWIDTH 16 0
BBX 16 18 0 -3
BITMAP
0000
0180
0180
0180
0180
0180
0180
0180
0180
0180
0180
0000
0180
0180
0000
0000
0000
0000
ENDCHAR

STARTCHAR a3a2
ENCODING 41890
SWIDTH 960 0
DWIDTH 16 0
BBX 16 18 0 -3
BITMAP
0000
0000
0330
0330
0220
0440
0000
0000
0000
0000
0000
0000
0000
0000
0000
0000
0000
0000
ENDCHAR

STARTCHAR a3a3
ENCODING 41891
SWIDTH 960 0
DWIDTH 16 0
BBX 16 18 0 -3
BITMAP
0000
0000
0000
0240
0240
0240
1FF8
0240
0240
1FF8
0240
0240
0240
0000
0000
0000
0000
0000
ENDCHAR

STARTCHAR a3a4
ENCODING 41892
SWIDTH 960 0
DWIDTH 16 0
BBX 16 18 0 -3
BITMAP
0000
0000
0000
0280
07C0
0AA0
1280
0A80
07C0
02A0
0290
0AA0
07C0
0280
0000
0000
0000
0000
ENDCHAR

STARTCHAR a3a5
ENCODING 41893
SWIDTH 960 0
DWIDTH 16 0
BBX 16 18 0 -3
BITMAP
0000
0000
0000
0C08
1210
1220
0C40
0080
0100
0230
0448
0848
1030
0000
0000
0000
0000
0000
ENDCHAR

STARTCHAR a3a6
ENCODING 41894
SWIDTH 960 0
DWIDTH 16 0
BBX 16 18 0 -3
BITMAP
0000
0000
0000
0600
0900
0900
0500
0200
0500
0888
0850
0820
0450
038C
0000
0000
0000
0000
ENDCHAR

STARTCHAR a3a7
ENCODING 41895
SWIDTH 960 0
DWIDTH 16 0
BBX 16 18 0 -3
BITMAP
0000
0000
0C00
0C00
0400
0800
1000
0000
0000
0000
0000
0000
0000
0000
0000
0000
0000
0000
ENDCHAR

STARTCHAR a3a8
ENCODING 41896
SWIDTH 960 0
DWIDTH 16 0
BBX 16 18 0 -3
BITMAP
0000
0000
0008
0010
0020
0040
0040
0040
0040
0020
0010
0008
0000
0000
0000
0000
0000
0000
ENDCHAR

STARTCHAR a3a9
ENCODING 41897
SWIDTH 960 0
DWIDTH 16 0
BBX 16 18 0 -3
BITMAP
0000
0000
4000
2000
1000
0800
0800
0800
0800
1000
2000
4000
0000
0000
0000
0000
0000
0000
ENDCHAR

STARTCHAR a3aa
ENCODING 41898
SWIDTH 960 0
DWIDTH 16 0
BBX 16 18 0 -3
BITMAP
0000
0000
0000
0000
0080
0490
02A0
01C0
01C0
02A0
0490
0080
0000
0000
0000
0000
0000
0000
ENDCHAR

STARTCHAR a3ab
ENCODING 41899
SWIDTH 960 0
DWIDTH 16 0
BBX 16 18 0 -3
BITMAP
0000
0000
0000
0000
0080
0080
0080
0080
0FF8
0080
0080
0080
0080
0000
0000
0000
0000
0000
ENDCHAR

STARTCHAR a3ac
ENCODING 41900
SWIDTH 960 0
DWIDTH 16 0
BBX 16 18 0 -3
BITMAP
0000
0000
0000
0000
0000
0000
0000
0000
0000
0000
0C00
0C00
0400
0800
1000
0000
0000
0000
ENDCHAR

STARTCHAR a3ad
ENCODING 41901
SWIDTH 960 0
DWIDTH 16 0
BBX 16 18 0 -3
BITMAP
0000
0000
0000
0000
0000
0000
0000
0FF8
0000
0000
0000
0000
0000
0000
0000
0000
0000
0000
ENDCHAR

STARTCHAR a3ae
ENCODING 41902
SWIDTH 960 0
DWIDTH 16 0
BBX 16 18 0 -3
BITMAP
0000
0000
0000
0000
0000
0000
0000
0000
0000
0000
0000
0C00
0C00
0000
0000
0000
0000
0000
ENDCHAR

STARTCHAR a3af
ENCODING 41903
SWIDTH 960 0
DWIDTH 16 0
BBX 16 18 0 -3
BITMAP
0000
0000
0004
0008
0010
0020
0040
0080
0100
0200
0400
0800
1000
2000
0000
0000
0000
0000
ENDCHAR

STARTCHAR a3b0
ENCODING 41904
SWIDTH 960 0
DWIDTH 16 0
BBX 16 18 0 -3
BITMAP
0000
0000
0000
0380
0440
0820
1050
1090
1110
1210
1410
0820
0440
0380
0000
0000
0000
0000
ENDCHAR

STARTCHAR a3b1
ENCODING 41905
SWIDTH 960 0
DWIDTH 16 0
BBX 16 18 0 -3
BITMAP
0000
0000
0000
0100
0300
0500
0100
0100
0100
0100
0100
0100
0100
07C0
0000
0000
0000
0000
ENDCHAR

STARTCHAR a3b2
ENCODING 41906
SWIDTH 960 0
DWIDTH 16 0
BBX 16 18 0 -3
BITMAP
0000
0000
0000
0780
0840
1020
1020
0020
0040
0180
0200
0400
0800
1FF0
0000
0000
0000
0000
ENDCHAR

STARTCHAR a3b3
ENCODING 41907
SWIDTH 960 0
DWIDTH 16 0
BBX 16 18 0 -3
BITMAP
0000
0000
0000
07C0
0820
1010
0020
0040
0180
0040
0020
1010
0820
07C0
0000
0000
0000
0000
ENDCHAR

STARTCHAR a3b4
ENCODING 41908
SWIDTH 960 0
DWIDTH 16 0
BBX 16 18 0 -3
BITMAP
0000
0000
0000
0040
00C0
0140
0240
0440
0840
1FF0
0040
0040
0040
0040
0000
0000
0000
0000
ENDCHAR

STARTCHAR a3b5
ENCODING 41909
SWIDTH 960 0
DWIDTH 16 0
BBX 16 18 0 -3
BITMAP
0000
0000
0000
1FE0
1000
1000
1000
1000
1FC0
0020
0010
0010
1020
0FC0
0000
0000
0000
0000
ENDCHAR

STARTCHAR a3b6
ENCODING 41910
SWIDTH 960 0
DWIDTH 16 0
BBX 16 18 0 -3
BITMAP
0000
0000
0000
07C0
0820
1010
1000
1000
17C0
1820
1010
1010
0820
07C0
0000
0000
0000
0000
ENDCHAR

STARTCHAR a3b7
ENCODING 41911
SWIDTH 960 0
DWIDTH 16 0
BBX 16 18 0 -3
BITMAP
0000
0000
0000
1FF0
0010
0010
0020
0040
0080
0100
0200
0400
0800
1000
0000
0000
0000
0000
ENDCHAR

STARTCHAR a3b8
ENCODING 41912
SWIDTH 960 0
DWIDTH 16 0
BBX 16 18 0 -3
BITMAP
0000
0000
0000
07C0
0820
1010
1010
0820
07C0
0820
1010
1010
0820
07C0
0000
0000
0000
0000
ENDCHAR

STARTCHAR a3b9
ENCODING 41913
SWIDTH 960 0
DWIDTH 16 0
BBX 16 18 0 -3
BITMAP
0000
0000
0000
07C0
0820
1010
1010
0830
07D0
0010
0010
1010
0820
07C0
0000
0000
0000
0000
ENDCHAR

STARTCHAR a3ba
ENCODING 41914
SWIDTH 960 0
DWIDTH 16 0
BBX 16 18 0 -3
BITMAP
0000
0000
0000
0000
0000
0180
0180
0000
0000
0180
0180
0000
0000
0000
0000
0000
0000
0000
ENDCHAR

STARTCHAR a3bb
ENCODING 41915
SWIDTH 960 0
DWIDTH 16 0
BBX 16 18 0 -3
BITMAP
0000
0000
0000
0000
0000
0180
0180
0000
0000
0180
0180
0080
0100
0200
0000
0000
0000
0000
ENDCHAR

STARTCHAR a3bc
ENCODING 41916
SWIDTH 960 0
DWIDTH 16 0
BBX 16 18 0 -3
BITMAP
0000
0000
0000
0008
0010
0020
0040
0080
0100
0080
0040
0020
0010
0008
0000
0000
0000
0000
ENDCHAR

STARTCHAR a3bd
ENCODING 41917
SWIDTH 960 0
DWIDTH 16 0
BBX 16 18 0 -3
BITMAP
0000
0000
0000
0000
0000
0000
1FF8
0000
0000
1FF8
0000
0000
0000
0000
0000
0000
0000
0000
ENDCHAR

STARTCHAR a3be
ENCODING 41918
SWIDTH 960 0
DWIDTH 16 0
BBX 16 18 0 -3
BITMAP
0000
0000
0000
1000
0800
0400
0200
0100
0080
0100
0200
0400
0800
1000
0000
0000
0000
0000
ENDCHAR

STARTCHAR a3bf
ENCODING 41919
SWIDTH 960 0
DWIDTH 16 0
BBX 16 18 0 -3
BITMAP
0000
0000
03C0
0420
0810
0810
0420
0040
0080
0080
0080
0080
0000
0080
0000
0000
0000
0000
ENDCHAR

STARTCHAR a3c0
ENCODING 41920
SWIDTH 960 0
DWIDTH 16 0
BBX 16 18 0 -3
BITMAP
0000
0000
0000
0000
03E0
0410
0990
0A50
0A50
0A50
09A0
0400
03E0
0000
0000
0000
0000
0000
ENDCHAR

STARTCHAR a3c1
ENCODING 41921
SWIDTH 960 0
DWIDTH 16 0
BBX 16 18 0 -3
BITMAP
0000
0000
0000
0100
0280
0440
0820
1010
1010
1FF0
1010
1010
1010
1010
0000
0000
0000
0000
ENDCHAR

STARTCHAR a3c2
ENCODING 41922
SWIDTH 960 0
DWIDTH 16 0
BBX 16 18 0 -3
BITMAP
0000
0000
0000
1FC0
0820
0810
0810
0820
0FC0
0820
0810
0810
0820
1FC0
0000
0000
0000
0000
ENDCHAR

STARTCHAR a3c3
ENCODING 41923
SWIDTH 960 0
DWIDTH 16 0
BBX 16 18 0 -3
BITMAP
0000
0000
0000
07C0
0820
1010
1000
1000
1000
1000
1000
1010
0820
07C0
0000
0000
0000
0000
ENDCHAR

STARTCHAR a3c4
ENCODING 41924
SWIDTH 960 0
DWIDTH 16 0
BBX 16 18 0 -3
BITMAP
0000
0000
0000
1FC0
0820
0810
0810
0810
0810
0810
0810
0810
0820
1FC0
0000
0000
0000
0000
ENDCHAR

STARTCHAR a3c5
ENCODING 41925
SWIDTH 960 0
DWIDTH 16 0
BBX 16 18 0 -3
BITMAP
0000
0000
0000
1FF0
1000
1000
1000
1000
1F80
1000
1000
1000
1000
1FF0
0000
0000
0000
0000
ENDCHAR

STARTCHAR a3c6
ENCODING 41926
SWIDTH 960 0
DWIDTH 16 0
BBX 16 18 0 -3
BITMAP
0000
0000
0000
1FF0
1000
1000
1000
1000
1FC0
1000
1000
1000
1000
1000
0000
0000
0000
0000
ENDCHAR

STARTCHAR a3c7
ENCODING 41927
SWIDTH 960 0
DWIDTH 16 0
BBX 16 18 0 -3
BITMAP
0000
0000
0000
07C0
0820
1010
1000
1000
1000
11F0
1010
1010
0830
07D0
0000
0000
0000
0000
ENDCHAR

STARTCHAR a3c8
ENCODING 41928
SWIDTH 960 0
DWIDTH 16 0
BBX 16 18 0 -3
BITMAP
0000
0000
0000
1010
1010
1010
1010
1010
1FF0
1010
1010
1010
1010
1010
0000
0000
0000
0000
ENDCHAR

STARTCHAR a3c9
ENCODING 41929
SWIDTH 960 0
DWIDTH 16 0
BBX 16 18 0 -3
BITMAP
0000
0000
0000
07C0
0100
0100
0100
0100
0100
0100
0100
0100
0100
07C0
0000
0000
0000
0000
ENDCHAR

STARTCHAR a3ca
ENCODING 41930
SWIDTH 960 0
DWIDTH 16 0
BBX 16 18 0 -3
BITMAP
0000
0000
0000
00E0
0040
0040
0040
0040
0040
0040
0040
0040
0440
0380
0000
0000
0000
0000
ENDCHAR

STARTCHAR a3cb
ENCODING 41931
SWIDTH 960 0
DWIDTH 16 0
BBX 16 18 0 -3
BITMAP
0000
0000
0000
1020
1040
1080
1100
1200
1600
1900
1080
1040
1020
1010
0000
0000
0000
0000
ENDCHAR

STARTCHAR a3cc
ENCODING 41932
SWIDTH 960 0
DWIDTH 16 0
BBX 16 18 0 -3
BITMAP
0000
0000
0000
1000
1000
1000
1000
1000
1000
1000
1000
1000
1000
1FF0
0000
0000
0000
0000
ENDCHAR

STARTCHAR a3cd
ENCODING 41933
SWIDTH 960 0
DWIDTH 16 0
BBX 16 18 0 -3
BITMAP
0000
0000
0000
1010
1830
1450
1290
1110
1010
1010
1010
1010
1010
1010
0000
0000
0000
0000
ENDCHAR

STARTCHAR a3ce
ENCODING 41934
SWIDTH 960 0
DWIDTH 16 0
BBX 16 18 0 -3
BITMAP
0000
0000
0000
1010
1010
1810
1410
1210
1110
1090
1050
1030
1010
1010
0000
0000
0000
0000
ENDCHAR

STARTCHAR a3cf
ENCODING 41935
SWIDTH 960 0
DWIDTH 16 0
BBX 16 18 0 -3
BITMAP
0000
0000
0000
07C0
0820
1010
1010
1010
1010
1010
1010
1010
0820
07C0
0000
0000
0000
0000
ENDCHAR

STARTCHAR a3d0
ENCODING 41936
SWIDTH 960 0
DWIDTH 16 0
BBX 16 18 0 -3
BITMAP
0000
0000
0000
1FC0
1020
1010
1010
1020
1FC0
1000
1000
1000
1000
1000
0000
0000
0000
0000
ENDCHAR

STARTCHAR a3d1
ENCODING 41937
SWIDTH 960 0
DWIDTH 16 0
BBX 16 18 0 -3
BITMAP
0000
0000
0000
07C0
0820
1010
1010
1010
1010
1010
1090
1050
0820
07D0
0000
0000
0000
0000
ENDCHAR

STARTCHAR a3d2
ENCODING 41938
SWIDTH 960 0
DWIDTH 16 0
BBX 16 18 0 -3
BITMAP
0000
0000
0000
1FC0
1020
1010
1010
1020
1FC0
1100
1080
1040
1020
1010
0000
0000
0000
0000
ENDCHAR

STARTCHAR a3d3
ENCODING 41939
SWIDTH 960 0
DWIDTH 16 0
BBX 16 18 0 -3
BITMAP
0000
0000
0000
07E0
0810
1000
1000
0800
07C0
0020
0010
0010
1020
0FC0
0000
0000
0000
0000
ENDCHAR

STARTCHAR a3d4
ENCODING 41940
SWIDTH 960 0
DWIDTH 16 0
BBX 16 18 0 -3
BITMAP
0000
0000
0000
1FF0
0100
0100
0100
0100
0100
0100
0100
0100
0100
0100
0000
0000
0000
0000
ENDCHAR

STARTCHAR a3d5
ENCODING 41941
SWIDTH 960 0
DWIDTH 16 0
BBX 16 18 0 -3
BITMAP
0000
0000
0000
1010
1010
1010
1010
1010
1010
1010
1010
1010
0820
07C0
0000
0000
0000
0000
ENDCHAR

STARTCHAR a3d6
ENCODING 41942
SWIDTH 960 0
DWIDTH 16 0
BBX 16 18 0 -3
BITMAP
0000
0000
0000
1010
1010
1010
1010
1010
1010
1010
0820
0440
0280
0100
0000
0000
0000
0000
ENDCHAR

STARTCHAR a3d7
ENCODING 41943
SWIDTH 960 0
DWIDTH 16 0
BBX 16 18 0 -3
BITMAP
0000
0000
0000
1010
1010
1010
1010
1010
1010
1110
1290
1450
1830
1010
0000
0000
0000
0000
ENDCHAR

STARTCHAR a3d8
ENCODING 41944
SWIDTH 960 0
DWIDTH 16 0
BBX 16 18 0 -3
BITMAP
0000
0000
0000
1010
0820
0440
0280
0100
0100
0100
0280
0440
0820
1010
0000
0000
0000
0000
ENDCHAR

STARTCHAR a3d9
ENCODING 41945
SWIDTH 960 0
DWIDTH 16 0
BBX 16 18 0 -3
BITMAP
0000
0000
0000
1010
0820
0440
0280
0100
0100
0100
0100
0100
0100
0100
0000
0000
0000
0000
ENDCHAR

STARTCHAR a3da
ENCODING 41946
SWIDTH 960 0
DWIDTH 16 0
BBX 16 18 0 -3
BITMAP
0000
0000
0000
1FF0
0010
0020
0040
0080
0100
0200
0400
0800
1000
1FF0
0000
0000
0000
0000
ENDCHAR

STARTCHAR a3db
ENCODING 41947
SWIDTH 960 0
DWIDTH 16 0
BBX 16 18 0 -3
BITMAP
0000
0000
0000
0038
0020
0020
0020
0020
0020
0020
0020
0020
0020
0038
0000
0000
0000
0000
ENDCHAR

STARTCHAR a3dc
ENCODING 41948
SWIDTH 960 0
DWIDTH 16 0
BBX 16 18 0 -3
BITMAP
0000
0000
0000
0820
0820
0820
0820
3FF8
0820
3FF8
0920
0AA0
0C60
0820
0000
0000
0000
0000
ENDCHAR

STARTCHAR a3dd
ENCODING 41949
SWIDTH 960 0
DWIDTH 16 0
BBX 16 18 0 -3
BITMAP
0000
0000
0000
1C00
0400
0400
0400
0400
0400
0400
0400
0400
0400
1C00
0000
0000
0000
0000
ENDCHAR

STARTCHAR a3de
ENCODING 41950
SWIDTH 960 0
DWIDTH 16 0
BBX 16 18 0 -3
BITMAP
0000
0000
0200
0500
0880
1040
0000
0000
0000
0000
0000
0000
0000
0000
0000
0000
0000
0000
ENDCHAR

STARTCHAR a3df
ENCODING 41951
SWIDTH 960 0
DWIDTH 16 0
BBX 16 18 0 -3
BITMAP
0000
0000
0000
0000
0000
0000
0000
0000
0000
0000
0000
0000
0000
0000
3FFC
0000
0000
0000
ENDCHAR

STARTCHAR a3e0
ENCODING 41952
SWIDTH 960 0
DWIDTH 16 0
BBX 16 18 0 -3
BITMAP
0000
0000
0200
0100
0080
0040
0000
0000
0000
0000
0000
0000
0000
0000
0000
0000
0000
0000
ENDCHAR

STARTCHAR a3e1
ENCODING 41953
SWIDTH 960 0
DWIDTH 16 0
BBX 16 18 0 -3
BITMAP
0000
0000
0000
0000
0000
0000
0000
1FE0
0010
0FD0
1030
1030
1030
0FD0
0000
0000
0000
0000
ENDCHAR

STARTCHAR a3e2
ENCODING 41954
SWIDTH 960 0
DWIDTH 16 0
BBX 16 18 0 -3
BITMAP
0000
0000
0000
1000
1000
1000
1000
17C0
1820
1010
1010
1010
1820
17C0
0000
0000
0000
0000
ENDCHAR

STARTCHAR a3e3
ENCODING 41955
SWIDTH 960 0
DWIDTH 16 0
BBX 16 18 0 -3
BITMAP
0000
0000
0000
0000
0000
0000
0000
07E0
0810
1000
1000
1000
0800
07F0
0000
0000
0000
0000
ENDCHAR

STARTCHAR a3e4
ENCODING 41956
SWIDTH 960 0
DWIDTH 16 0
BBX 16 18 0 -3
BITMAP
0000
0000
0000
0010
0010
0010
0010
07D0
0830
1010
1010
1010
0830
07D0
0000
0000
0000
0000
ENDCHAR

STARTCHAR a3e5
ENCODING 41957
SWIDTH 960 0
DWIDTH 16 0
BBX 16 18 0 -3
BITMAP
0000
0000
0000
0000
0000
0000
0000
07F0
0808
1008
1FF8
1000
1000
0FF8
0000
0000
0000
0000
ENDCHAR

STARTCHAR a3e6
ENCODING 41958
SWIDTH 960 0
DWIDTH 16 0
BBX 16 18 0 -3
BITMAP
0000
0000
0000
0180
0240
0200
0200
0200
0F80
0200
0200
0200
0200
0200
0000
0000
0000
0000
ENDCHAR

STARTCHAR a3e7
ENCODING 41959
SWIDTH 960 0
DWIDTH 16 0
BBX 16 18 0 -3
BITMAP
0000
0000
0000
0000
0000
0000
0008
0FF0
1010
0FE0
1000
1000
0FE0
1010
1010
0FE0
0000
0000
ENDCHAR

STARTCHAR a3e8
ENCODING 41960
SWIDTH 960 0
DWIDTH 16 0
BBX 16 18 0 -3
BITMAP
0000
0000
0000
1000
1000
1000
1000
17E0
1810
1010
1010
1010
1010
1010
0000
0000
0000
0000
ENDCHAR

STARTCHAR a3e9
ENCODING 41961
SWIDTH 960 0
DWIDTH 16 0
BBX 16 18 0 -3
BITMAP
0000
0000
0000
0000
0100
0100
0000
0300
0100
0100
0100
0100
0100
07C0
0000
0000
0000
0000
ENDCHAR

STARTCHAR a3ea
ENCODING 41962
SWIDTH 960 0
DWIDTH 16 0
BBX 16 18 0 -3
BITMAP
0000
0000
0000
0000
0020
0020
0000
0020
0020
0020
0020
0020
0020
0020
0420
03C0
0000
0000
ENDCHAR

STARTCHAR a3eb
ENCODING 41963
SWIDTH 960 0
DWIDTH 16 0
BBX 16 18 0 -3
BITMAP
0000
0000
0000
1000
1000
1000
1000
1080
1100
1200
1400
1B00
10C0
1030
0000
0000
0000
0000
ENDCHAR

STARTCHAR a3ec
ENCODING 41964
SWIDTH 960 0
DWIDTH 16 0
BBX 16 18 0 -3
BITMAP
0000
0000
0000
0300
0100
0100
0100
0100
0100
0100
0100
0100
0100
07C0
0000
0000
0000
0000
ENDCHAR

STARTCHAR a3ed
ENCODING 41965
SWIDTH 960 0
DWIDTH 16 0
BBX 16 18 0 -3
BITMAP
0000
0000
0000
0000
0000
0000
0000
16E0
1910
1110
1110
1110
1110
1010
0000
0000
0000
0000
ENDCHAR

STARTCHAR a3ee
ENCODING 41966
SWIDTH 960 0
DWIDTH 16 0
BBX 16 18 0 -3
BITMAP
0000
0000
0000
0000
0000
0000
0000
17C0
1820
1010
1010
1010
1010
1010
0000
0000
0000
0000
ENDCHAR

STARTCHAR a3ef
ENCODING 41967
SWIDTH 960 0
DWIDTH 16 0
BBX 16 18 0 -3
BITMAP
0000
0000
0000
0000
0000
0000
0000
0FE0
1010
1010
1010
1010
1010
0FE0
0000
0000
0000
0000
ENDCHAR

STARTCHAR a3f0
ENCODING 41968
SWIDTH 960 0
DWIDTH 16 0
BBX 16 18 0 -3
BITMAP
0000
0000
0000
0000
0000
0000
0000
17E0
1810
1010
1810
17E0
1000
1000
1000
1000
0000
0000
ENDCHAR

STARTCHAR a3f1
ENCODING 41969
SWIDTH 960 0
DWIDTH 16 0
BBX 16 18 0 -3
BITMAP
0000
0000
0000
0000
0000
0000
0000
0FD0
1030
1010
1030
0FD0
0010
0010
0010
0010
0000
0000
ENDCHAR

STARTCHAR a3f2
ENCODING 41970
SWIDTH 960 0
DWIDTH 16 0
BBX 16 18 0 -3
BITMAP
0000
0000
0000
0000
0000
0000
0000
11E0
0A10
0C00
0800
0800
0800
0800
0000
0000
0000
0000
ENDCHAR

STARTCHAR a3f3
ENCODING 41971
SWIDTH 960 0
DWIDTH 16 0
BBX 16 18 0 -3
BITMAP
0000
0000
0000
0000
0000
0000
0000
0FF0
1000
1000
0FE0
0010
0010
1FE0
0000
0000
0000
0000
ENDCHAR

STARTCHAR a3f4
ENCODING 41972
SWIDTH 960 0
DWIDTH 16 0
BBX 16 18 0 -3
BITMAP
0000
0000
0000
0200
0200
0200
0200
0F80
0200
0200
0200
0200
0220
01C0
0000
0000
0000
0000
ENDCHAR

STARTCHAR a3f5
ENCODING 41973
SWIDTH 960 0
DWIDTH 16 0
BBX 16 18 0 -3
BITMAP
0000
0000
0000
0000
0000
0000
0000
1020
1020
1020
1020
1020
1020
0FF0
0000
0000
0000
0000
ENDCHAR

STARTCHAR a3f6
ENCODING 41974
SWIDTH 960 0
DWIDTH 16 0
BBX 16 18 0 -3
BITMAP
0000
0000
0000
0000
0000
0000
0000
1010
1010
1010
0820
0440
0280
0100
0000
0000
0000
0000
ENDCHAR

STARTCHAR a3f7
ENCODING 41975
SWIDTH 960 0
DWIDTH 16 0
BBX 16 18 0 -3
BITMAP
0000
0000
0000
0000
0000
0000
0000
1010
1010
1010
1110
1290
1450
1830
0000
0000
0000
0000
ENDCHAR

STARTCHAR a3f8
ENCODING 41976
SWIDTH 960 0
DWIDTH 16 0
BBX 16 18 0 -3
BITMAP
0000
0000
0000
0000
0000
0000
0000
0810
0420
0240
0180
0240
0420
0810
0000
0000
0000
0000
ENDCHAR

STARTCHAR a3f9
ENCODING 41977
SWIDTH 960 0
DWIDTH 16 0
BBX 16 18 0 -3
BITMAP
0000
0000
0000
0000
0000
0000
0000
1010
1010
1010
1030
0FD0
0010
0010
1010
0FE0
0000
0000
ENDCHAR

STARTCHAR a3fa
ENCODING 41978
SWIDTH 960 0
DWIDTH 16 0
BBX 16 18 0 -3
BITMAP
0000
0000
0000
0000
0000
0000
0000
1FF0
0060
0080
0100
0200
0C00
1FF0
0000
0000
0000
0000
ENDCHAR

STARTCHAR a3fb
ENCODING 41979
SWIDTH 960 0
DWIDTH 16 0
BBX 16 18 0 -3
BITMAP
0000
0000
0000
0008
0010
0010
0010
0010
0020
0010
0010
0010
0010
0008
0000
0000
0000
0000
ENDCHAR

STARTCHAR a3fc
ENCODING 41980
SWIDTH 960 0
DWIDTH 16 0
BBX 16 18 0 -3
BITMAP
0000
0000
0000
0100
0100
0100
0100
0100
0100
0100
0100
0100
0100
0100
0000
0000
0000
0000
ENDCHAR

STARTCHAR a3fd
ENCODING 41981
SWIDTH 960 0
DWIDTH 16 0
BBX 16 18 0 -3
BITMAP
0000
0000
0000
1000
0800
0800
0800
0800
0400
0800
0800
0800
0800
1000
0000
0000
0000
0000
ENDCHAR

STARTCHAR a3fe
ENCODING 41982
SWIDTH 960 0
DWIDTH 16 0
BBX 16 18 0 -3
BITMAP
0000
0000
0000
0FF8
0000
0000
0000
0000
0000
0000
0000
0000
0000
0000
0000
0000
0000
0000
ENDCHAR

STARTCHAR a4a1
ENCODING 42145
SWIDTH 960 0
DWIDTH 16 0
BBX 16 18 0 -3
BITMAP
0000
0000
0000
0000
1FFC
0004
0004
0004
0004
0004
0004
0004
0000
0000
0000
0000
0000
0000
ENDCHAR

STARTCHAR a4a2
ENCODING 42146
SWIDTH 960 0
DWIDTH 16 0
BBX 16 18 0 -3
BITMAP
0000
0000
0000
0000
3F7E
0102
0102
0102
0102
0102
0102
0102
0000
0000
0000
0000
0000
0000
ENDCHAR

STARTCHAR a4a3
ENCODING 42147
SWIDTH 960 0
DWIDTH 16 0
BBX 16 18 0 -3
BITMAP
0000
0000
0000
0000
7E10
0210
0210
0228
0228
0244
0244
0282
0000
0000
0000
0000
0000
0000
ENDCHAR

STARTCHAR a4a4
ENCODING 42148
SWIDTH 960 0
DWIDTH 16 0
BBX 16 18 0 -3
BITMAP
0000
0000
0000
0000
1000
1000
1000
1000
1000
1000
1000
1FF8
0000
0000
0000
0000
0000
0000
ENDCHAR

STARTCHAR a4a5
ENCODING 42149
SWIDTH 960 0
DWIDTH 16 0
BBX 16 18 0 -3
BITMAP
0000
0000
0000
0000
20F8
2020
2020
2020
2050
2050
2088
3F04
0000
0000
0000
0000
0000
0000
ENDCHAR

STARTCHAR a4a6
ENCODING 42150
SWIDTH 960 0
DWIDTH 16 0
BBX 16 18 0 -3
BITMAP
0000
0000
0000
2070
2000
21FC
2000
2070
2088
2088
2088
3F70
0000
0000
0000
0000
0000
0000
ENDCHAR

STARTCHAR a4a7
ENCODING 42151
SWIDTH 960 0
DWIDTH 16 0
BBX 16 18 0 -3
BITMAP
0000
0000
0000
0000
1FF0
1000
1000
1000
1000
1000
1000
1FF0
0000
0000
0000
0000
0000
0000
ENDCHAR

STARTCHAR a4a8
ENCODING 42152
SWIDTH 960 0
DWIDTH 16 0
BBX 16 18 0 -3
BITMAP
0000
0000
0000
0000
3EF8
2080
2080
2080
2080
2080
2080
3EF8
0000
0000
0000
0000
0000
0000
ENDCHAR

STARTCHAR a4a9
ENCODING 42153
SWIDTH 960 0
DWIDTH 16 0
BBX 16 18 0 -3
BITMAP
0000
0000
0000
0FF8
0008
0008
0008
0FF8
0800
0800
0800
0FF8
0000
0000
0000
0000
0000
0000
ENDCHAR

STARTCHAR a4aa
ENCODING 42154
SWIDTH 960 0
DWIDTH 16 0
BBX 16 18 0 -3
BITMAP
0000
0000
0000
3EFC
0204
0204
0204
3E04
2004
2004
2004
3E04
0000
0000
0000
0000
0000
0000
ENDCHAR

STARTCHAR a4ab
ENCODING 42155
SWIDTH 960 0
DWIDTH 16 0
BBX 16 18 0 -3
BITMAP
0000
0000
0000
1F7C
0144
0144
0144
1F44
1044
1044
1044
1F7C
0000
0000
0000
0000
0000
0000
ENDCHAR

STARTCHAR a4ac
ENCODING 42156
SWIDTH 960 0
DWIDTH 16 0
BBX 16 18 0 -3
BITMAP
0000
0000
0000
3E84
0284
0284
0284
3EFC
2084
2084
2084
3EFC
0000
0000
0000
0000
0000
0000
ENDCHAR

STARTCHAR a4ad
ENCODING 42157
SWIDTH 960 0
DWIDTH 16 0
BBX 16 18 0 -3
BITMAP
0000
0000
0000
3E20
0220
0220
0250
3E50
2088
2088
2104
3F04
0000
0000
0000
0000
0000
0000
ENDCHAR

STARTCHAR a4ae
ENCODING 42158
SWIDTH 960 0
DWIDTH 16 0
BBX 16 18 0 -3
BITMAP
0000
0000
0000
1F7C
0140
0140
0140
1F7C
1040
1040
1040
1F7C
0000
0000
0000
0000
0000
0000
ENDCHAR

STARTCHAR a4af
ENCODING 42159
SWIDTH 960 0
DWIDTH 16 0
BBX 16 18 0 -3
BITMAP
0000
0000
0000
1F7E
0124
0124
0124
1F24
1024
1024
1024
1F7E
0000
0000
0000
0000
0000
0000
ENDCHAR

STARTCHAR a4b0
ENCODING 42160
SWIDTH 960 0
DWIDTH 16 0
BBX 16 18 0 -3
BITMAP
0000
0000
0000
1F18
0100
017E
0100
1F18
1024
1024
1024
1F18
0000
0000
0000
0000
0000
0000
ENDCHAR

STARTCHAR a4b1
ENCODING 42161
SWIDTH 960 0
DWIDTH 16 0
BBX 16 18 0 -3
BITMAP
0000
0000
0000
0000
1FF8
1008
1008
1008
1008
1008
1008
1FF8
0000
0000
0000
0000
0000
0000
ENDCHAR

STARTCHAR a4b2
ENCODING 42162
SWIDTH 960 0
DWIDTH 16 0
BBX 16 18 0 -3
BITMAP
0000
0000
0000
0808
0808
0808
0808
0FF8
0808
0808
0808
0FF8
0000
0000
0000
0000
0000
0000
ENDCHAR

STARTCHAR a4b3
ENCODING 42163
SWIDTH 960 0
DWIDTH 16 0
BBX 16 18 0 -3
BITMAP
0000
0000
0000
0000
1144
1144
1144
1F7C
1144
1144
1144
1F7C
0000
0000
0000
0000
0000
0000
ENDCHAR

STARTCHAR a4b4
ENCODING 42164
SWIDTH 960 0
DWIDTH 16 0
BBX 16 18 0 -3
BITMAP
0000
0000
0000
0000
1110
1110
1110
1F28
1128
1144
1144
1F82
0000
0000
0000
0000
0000
0000
ENDCHAR

STARTCHAR a4b5
ENCODING 42165
SWIDTH 960 0
DWIDTH 16 0
BBX 16 18 0 -3
BITMAP
0000
0000
0000
0000
0080
0080
0080
0080
0140
0220
0410
0808
0000
0000
0000
0000
0000
0000
ENDCHAR

STARTCHAR a4b6
ENCODING 42166
SWIDTH 960 0
DWIDTH 16 0
BBX 16 18 0 -3
BITMAP
0000
0000
0000
0000
0410
0410
0410
0A28
0A28
1144
1144
2082
0000
0000
0000
0000
0000
0000
ENDCHAR

STARTCHAR a4b7
ENCODING 42167
SWIDTH 960 0
DWIDTH 16 0
BBX 16 18 0 -3
BITMAP
0000
0000
0000
0000
03E0
0410
0808
0808
0808
0808
0410
03E0
0000
0000
0000
0000
0000
0000
ENDCHAR

STARTCHAR a4b8
ENCODING 42168
SWIDTH 960 0
DWIDTH 16 0
BBX 16 18 0 -3
BITMAP
0000
0000
0000
0000
0FF8
0080
0080
0080
0140
0220
0410
0808
0000
0000
0000
0000
0000
0000
ENDCHAR

STARTCHAR a4b9
ENCODING 42169
SWIDTH 960 0
DWIDTH 16 0
BBX 16 18 0 -3
BITMAP
0000
0000
0000
0000
1F7C
0410
0410
0410
0A28
0A28
1144
2082
0000
0000
0000
0000
0000
0000
ENDCHAR

STARTCHAR a4ba
ENCODING 42170
SWIDTH 960 0
DWIDTH 16 0
BBX 16 18 0 -3
BITMAP
0000
0000
0000
0000
01C0
0000
07F0
0080
0080
0140
0220
0410
0000
0000
0000
0000
0000
0000
ENDCHAR

STARTCHAR a4bb
ENCODING 42171
SWIDTH 960 0
DWIDTH 16 0
BBX 16 18 0 -3
BITMAP
0000
0000
0000
0000
0FF8
0008
0008
0008
07F8
0008
0008
0008
0000
0000
0000
0000
0000
0000
ENDCHAR

STARTCHAR a4bc
ENCODING 42172
SWIDTH 960 0
DWIDTH 16 0
BBX 16 18 0 -3
BITMAP
0000
0000
0000
1FF0
1000
1000
1000
1FF0
1000
1000
1000
1FF0
0000
0000
0000
0000
0000
0000
ENDCHAR

STARTCHAR a4bd
ENCODING 42173
SWIDTH 960 0
DWIDTH 16 0
BBX 16 18 0 -3
BITMAP
0000
0000
0000
0000
1FF8
0420
0420
0420
0420
0420
0420
1FF8
0000
0000
0000
0000
0000
0000
ENDCHAR

STARTCHAR a4be
ENCODING 42174
SWIDTH 960 0
DWIDTH 16 0
BBX 16 18 0 -3
BITMAP
0000
0000
0000
03E0
0000
0FF8
0000
01C0
0220
0410
0410
0220
01C0
0000
0000
0000
0000
0000
ENDCHAR

STARTCHAR a4bf
ENCODING 42175
SWIDTH 960 0
DWIDTH 16 0
BBX 16 18 0 -3
BITMAP
0100
0100
0100
0100
0100
0100
0100
01E0
0100
0100
0100
0100
0100
0100
0100
0000
0000
0000
ENDCHAR

STARTCHAR a4c0
ENCODING 42176
SWIDTH 960 0
DWIDTH 16 0
BBX 16 18 0 -3
BITMAP
0120
0120
0120
0120
0120
0120
0120
01E0
0120
0120
0120
0120
0120
0120
0120
0000
0000
0000
ENDCHAR

STARTCHAR a4c1
ENCODING 42177
SWIDTH 960 0
DWIDTH 16 0
BBX 16 18 0 -3
BITMAP
0100
0100
0100
0100
0100
01E0
0100
0100
0100
01E0
0100
0100
0100
0100
0100
0000
0000
0000
ENDCHAR

STARTCHAR a4c2
ENCODING 42178
SWIDTH 960 0
DWIDTH 16 0
BBX 16 18 0 -3
BITMAP
0120
0120
0120
0120
0120
01E0
0120
0120
01E0
0120
0120
0120
0120
0120
0120
0000
0000
0000
ENDCHAR

STARTCHAR a4c3
ENCODING 42179
SWIDTH 960 0
DWIDTH 16 0
BBX 16 18 0 -3
BITMAP
0100
0100
0100
0100
0100
0100
0100
0F00
0100
0100
0100
0100
0100
0100
0100
0000
0000
0000
ENDCHAR

STARTCHAR a4c4
ENCODING 42180
SWIDTH 960 0
DWIDTH 16 0
BBX 16 18 0 -3
BITMAP
0120
0120
0120
0120
0120
0120
0120
0F20
0120
0120
0120
0120
0120
0120
0120
0000
0000
0000
ENDCHAR

STARTCHAR a4c5
ENCODING 42181
SWIDTH 960 0
DWIDTH 16 0
BBX 16 18 0 -3
BITMAP
0100
0100
0100
0100
0100
0F00
0100
0100
0100
0F00
0100
0100
0100
0100
0100
0000
0000
0000
ENDCHAR

STARTCHAR a4c6
ENCODING 42182
SWIDTH 960 0
DWIDTH 16 0
BBX 16 18 0 -3
BITMAP
0120
0120
0120
0120
0120
0F20
0120
0120
0120
0F20
0120
0120
0120
0120
0120
0000
0000
0000
ENDCHAR

STARTCHAR a4c7
ENCODING 42183
SWIDTH 960 0
DWIDTH 16 0
BBX 16 18 0 -3
BITMAP
0000
0000
0000
0000
0000
0000
0000
0000
0000
0000
0080
0080
0080
0080
3FFE
0000
0000
0000
ENDCHAR

STARTCHAR a4c8
ENCODING 42184
SWIDTH 960 0
DWIDTH 16 0
BBX 16 18 0 -3
BITMAP
0010
0010
0010
0010
0010
0010
0010
021E
0210
0210
3FF0
0010
0010
0010
0010
0000
0000
0000
ENDCHAR

STARTCHAR a4c9
ENCODING 42185
SWIDTH 960 0
DWIDTH 16 0
BBX 16 18 0 -3
BITMAP
0012
0012
0012
0012
0012
0012
0012
021E
0212
0212
3FF2
0012
0012
0012
0012
0000
0000
0000
ENDCHAR

STARTCHAR a4ca
ENCODING 42186
SWIDTH 960 0
DWIDTH 16 0
BBX 16 18 0 -3
BITMAP
0010
0010
0010
0010
0010
0010
0010
0210
0210
0210
3FF0
0010
0010
0010
0010
0000
0000
0000
ENDCHAR

STARTCHAR a4cb
ENCODING 42187
SWIDTH 960 0
DWIDTH 16 0
BBX 16 18 0 -3
BITMAP
0000
0000
0000
0000
0000
0000
0000
0000
0000
0000
0000
0220
0220
0220
3FFE
0000
0000
0000
ENDCHAR

STARTCHAR a4cc
ENCODING 42188
SWIDTH 960 0
DWIDTH 16 0
BBX 16 18 0 -3
BITMAP
0000
0000
0000
0000
0000
0000
0000
0000
0000
0000
3FFE
0080
0080
0080
0080
0000
0000
0000
ENDCHAR

STARTCHAR a4cd
ENCODING 42189
SWIDTH 960 0
DWIDTH 16 0
BBX 16 18 0 -3
BITMAP
0010
0010
0010
0010
0010
0010
0010
0010
3FF0
0210
02F0
0210
0210
0210
0210
0000
0000
0000
ENDCHAR

STARTCHAR a4ce
ENCODING 42190
SWIDTH 960 0
DWIDTH 16 0
BBX 16 18 0 -3
BITMAP
0012
0012
0012
0012
0012
0012
0012
0012
3FF2
0212
02F2
0212
0212
0212
0212
0000
0000
0000
ENDCHAR

STARTCHAR a4cf
ENCODING 42191
SWIDTH 960 0
DWIDTH 16 0
BBX 16 18 0 -3
BITMAP
0010
0010
0010
0010
0010
0010
0010
0010
3FF0
0210
0210
0210
0210
0210
0210
0000
0000
0000
ENDCHAR

STARTCHAR a4d0
ENCODING 42192
SWIDTH 960 0
DWIDTH 16 0
BBX 16 18 0 -3
BITMAP
0000
0000
0000
0000
0000
0000
0000
0000
0000
0000
3FFE
0220
0220
0220
0220
0000
0000
0000
ENDCHAR

STARTCHAR a4d1
ENCODING 42193
SWIDTH 960 0
DWIDTH 16 0
BBX 16 18 0 -3
BITMAP
0000
0000
0000
0000
0000
0000
0000
0000
0000
0000
3FFE
0000
0000
0000
0000
0000
0000
0000
ENDCHAR

STARTCHAR a4d2
ENCODING 42194
SWIDTH 960 0
DWIDTH 16 0
BBX 16 18 0 -3
BITMAP
0010
0010
0010
0010
0010
0010
0010
0010
3FF0
0010
0010
0010
0010
0010
0010
0000
0000
0000
ENDCHAR

STARTCHAR a4d3
ENCODING 42195
SWIDTH 960 0
DWIDTH 16 0
BBX 16 18 0 -3
BITMAP
0100
0100
0100
0100
0100
0100
0100
0100
0100
0100
0100
0100
0100
0100
0100
0000
0000
0000
ENDCHAR

STARTCHAR a4d4
ENCODING 42196
SWIDTH 960 0
DWIDTH 16 0
BBX 16 18 0 -3
BITMAP
0000
0000
0000
0000
0000
0000
0000
0000
0000
0000
0000
0000
0000
0000
0000
0000
0000
0000
ENDCHAR

STARTCHAR a4d5
ENCODING 42197
SWIDTH 960 0
DWIDTH 16 0
BBX 16 18 0 -3
BITMAP
0000
0000
0000
0000
2040
2040
2040
2040
2040
2040
2040
3F7E
0000
0000
0000
0000
0000
0000
ENDCHAR

STARTCHAR a4d6
ENCODING 42198
SWIDTH 960 0
DWIDTH 16 0
BBX 16 18 0 -3
BITMAP
0000
0000
0000
0000
207E
2040
2040
2040
2040
2040
2040
3F7E
0000
0000
0000
0000
0000
0000
ENDCHAR

STARTCHAR a4d7
ENCODING 42199
SWIDTH 960 0
DWIDTH 16 0
BBX 16 18 0 -3
BITMAP
0000
0000
0000
0000
2020
2020
2020
2050
2050
2088
2088
3F04
0000
0000
0000
0000
0000
0000
ENDCHAR

STARTCHAR a4d8
ENCODING 42200
SWIDTH 960 0
DWIDTH 16 0
BBX 16 18 0 -3
BITMAP
0000
0000
0000
0000
4020
4020
4050
4050
4088
4088
4104
7DFC
0000
0000
0000
0000
0000
0000
ENDCHAR

STARTCHAR a4d9
ENCODING 42201
SWIDTH 960 0
DWIDTH 16 0
BBX 16 18 0 -3
BITMAP
0000
0000
0000
0000
7BC8
0848
0848
7848
4054
4054
4062
7841
0000
0000
0000
0000
0000
0000
ENDCHAR

STARTCHAR a4da
ENCODING 42202
SWIDTH 960 0
DWIDTH 16 0
BBX 16 18 0 -3
BITMAP
0000
0000
0000
0000
1F7C
0140
0140
1F40
1040
1040
1040
1F7C
0000
0000
0000
0000
0000
0000
ENDCHAR

STARTCHAR a4db
ENCODING 42203
SWIDTH 960 0
DWIDTH 16 0
BBX 16 18 0 -3
BITMAP
0000
0000
0000
0000
7A48
0A48
0A48
7BC8
4254
4254
4262
7BC1
0000
0000
0000
0000
0000
0000
ENDCHAR

STARTCHAR a4dc
ENCODING 42204
SWIDTH 960 0
DWIDTH 16 0
BBX 16 18 0 -3
BITMAP
0000
0000
0000
0000
3E10
0210
0228
3E28
2044
2044
2082
3EFE
0000
0000
0000
0000
0000
0000
ENDCHAR

STARTCHAR a4dd
ENCODING 42205
SWIDTH 960 0
DWIDTH 16 0
BBX 16 18 0 -3
BITMAP
0000
0000
0000
1F00
017E
0100
013C
1F42
1042
1042
1042
1F3C
0000
0000
0000
0000
0000
0000
ENDCHAR

STARTCHAR a4de
ENCODING 42206
SWIDTH 960 0
DWIDTH 16 0
BBX 16 18 0 -3
BITMAP
0000
0000
0000
0000
1F44
1144
1144
117C
1144
1144
1144
1F7C
0000
0000
0000
0000
0000
0000
ENDCHAR

STARTCHAR a4df
ENCODING 42207
SWIDTH 960 0
DWIDTH 16 0
BBX 16 18 0 -3
BITMAP
0000
0000
0000
0000
1F10
1110
1110
1128
1128
1144
1144
1F82
0000
0000
0000
0000
0000
0000
ENDCHAR

STARTCHAR a4e0
ENCODING 42208
SWIDTH 960 0
DWIDTH 16 0
BBX 16 18 0 -3
BITMAP
0000
0000
0000
0000
3E10
2210
2228
2228
2244
2244
2282
3EFE
0000
0000
0000
0000
0000
0000
ENDCHAR

STARTCHAR a4e1
ENCODING 42209
SWIDTH 960 0
DWIDTH 16 0
BBX 16 18 0 -3
BITMAP
0000
0000
0000
0000
0FF8
0808
0808
0FF8
0000
07F0
0808
0808
07F0
0000
0000
0000
0000
0000
ENDCHAR

STARTCHAR a4e2
ENCODING 42210
SWIDTH 960 0
DWIDTH 16 0
BBX 16 18 0 -3
BITMAP
0000
0000
0000
0000
117C
1104
1104
1F04
1104
1104
1104
1F04
0000
0000
0000
0000
0000
0000
ENDCHAR

STARTCHAR a4e3
ENCODING 42211
SWIDTH 960 0
DWIDTH 16 0
BBX 16 18 0 -3
BITMAP
0000
0000
0000
0000
117C
1140
1140
1F40
1140
1140
1140
1F7C
0000
0000
0000
0000
0000
0000
ENDCHAR

STARTCHAR a4e4
ENCODING 42212
SWIDTH 960 0
DWIDTH 16 0
BBX 16 18 0 -3
BITMAP
0000
0000
0000
0000
245F
2441
2441
3CA1
24A1
2511
2511
3E09
0000
0000
0000
0000
0000
0000
ENDCHAR

STARTCHAR a4e5
ENCODING 42213
SWIDTH 960 0
DWIDTH 16 0
BBX 16 18 0 -3
BITMAP
0000
0000
0000
0000
248F
2488
2488
3D48
2548
2628
2628
3C1F
0000
0000
0000
0000
0000
0000
ENDCHAR

STARTCHAR a4e6
ENCODING 42214
SWIDTH 960 0
DWIDTH 16 0
BBX 16 18 0 -3
BITMAP
0000
0000
0000
0000
117C
1110
1110
1F28
1128
1144
1144
1F82
0000
0000
0000
0000
0000
0000
ENDCHAR

STARTCHAR a4e7
ENCODING 42215
SWIDTH 960 0
DWIDTH 16 0
BBX 16 18 0 -3
BITMAP
0000
0000
0000
0000
117C
1140
1140
1F7C
1140
1140
1140
1F7C
0000
0000
0000
0000
0000
0000
ENDCHAR

STARTCHAR a4e8
ENCODING 42216
SWIDTH 960 0
DWIDTH 16 0
BBX 16 18 0 -3
BITMAP
0000
0000
0000
0810
0810
0FF0
0810
0FF0
0000
07E0
0810
0810
07E0
0000
0000
0000
0000
0000
ENDCHAR

STARTCHAR a4e9
ENCODING 42217
SWIDTH 960 0
DWIDTH 16 0
BBX 16 18 0 -3
BITMAP
0000
0000
0000
0948
0948
0F78
0948
0F78
0000
07F0
0808
0808
07F0
0000
0000
0000
0000
0000
ENDCHAR

STARTCHAR a4ea
ENCODING 42218
SWIDTH 960 0
DWIDTH 16 0
BBX 16 18 0 -3
BITMAP
0000
0000
0000
0000
04FC
0404
0404
0A04
0A04
1104
1104
2084
0000
0000
0000
0000
0000
0000
ENDCHAR

STARTCHAR a4eb
ENCODING 42219
SWIDTH 960 0
DWIDTH 16 0
BBX 16 18 0 -3
BITMAP
0000
0000
0000
0000
0440
0440
0440
0A40
0A40
1140
1140
20FE
0000
0000
0000
0000
0000
0000
ENDCHAR

STARTCHAR a4ec
ENCODING 42220
SWIDTH 960 0
DWIDTH 16 0
BBX 16 18 0 -3
BITMAP
0000
0000
0000
0000
047E
0440
0440
0A40
0A40
1140
1140
20FE
0000
0000
0000
0000
0000
0000
ENDCHAR

STARTCHAR a4ed
ENCODING 42221
SWIDTH 960 0
DWIDTH 16 0
BBX 16 18 0 -3
BITMAP
0000
0000
0000
0000
0444
0444
0444
0A7C
0A44
1144
1144
20FC
0000
0000
0000
0000
0000
0000
ENDCHAR

STARTCHAR a4ee
ENCODING 42222
SWIDTH 960 0
DWIDTH 16 0
BBX 16 18 0 -3
BITMAP
0000
0000
0000
0000
047C
0410
0410
0A10
0A28
1128
1144
2082
0000
0000
0000
0000
0000
0000
ENDCHAR

STARTCHAR a4ef
ENCODING 42223
SWIDTH 960 0
DWIDTH 16 0
BBX 16 18 0 -3
BITMAP
0000
0000
0000
0000
0080
0080
0140
0140
0220
0220
0410
0FF8
0000
0000
0000
0000
0000
0000
ENDCHAR

STARTCHAR a4f0
ENCODING 42224
SWIDTH 960 0
DWIDTH 16 0
BBX 16 18 0 -3
BITMAP
0000
0000
0000
0000
0C18
1224
2142
2142
2142
2142
1224
0C18
0000
0000
0000
0000
0000
0000
ENDCHAR

STARTCHAR a4f1
ENCODING 42225
SWIDTH 960 0
DWIDTH 16 0
BBX 16 18 0 -3
BITMAP
0000
0000
0000
0000
0080
0080
03E0
0410
0808
0808
0410
03E0
0000
0000
0000
0000
0000
0000
ENDCHAR

STARTCHAR a4f2
ENCODING 42226
SWIDTH 960 0
DWIDTH 16 0
BBX 16 18 0 -3
BITMAP
0000
0000
0000
0000
0810
0810
1C10
2228
4128
4144
2244
1C82
0000
0000
0000
0000
0000
0000
ENDCHAR

STARTCHAR a4f3
ENCODING 42227
SWIDTH 960 0
DWIDTH 16 0
BBX 16 18 0 -3
BITMAP
0000
0000
0000
0000
0810
0810
1C28
2228
4144
4144
2282
1CFE
0000
0000
0000
0000
0000
0000
ENDCHAR

STARTCHAR a4f4
ENCODING 42228
SWIDTH 960 0
DWIDTH 16 0
BBX 16 18 0 -3
BITMAP
0000
0000
0000
07E0
0240
0240
0240
07E0
0000
03C0
0420
0420
03C0
0000
0000
0000
0000
0000
ENDCHAR

STARTCHAR a4f5
ENCODING 42229
SWIDTH 960 0
DWIDTH 16 0
BBX 16 18 0 -3
BITMAP
0000
0000
0000
0000
0C18
0000
3F7E
0000
0C18
1224
1224
0C18
0000
0000
0000
0000
0000
0000
ENDCHAR

STARTCHAR a4f6
ENCODING 42230
SWIDTH 960 0
DWIDTH 16 0
BBX 16 18 0 -3
BITMAP
0000
0000
0000
0000
0FF8
0000
0000
03E0
0410
0410
0410
03E0
0000
0000
0000
0000
0000
0000
ENDCHAR

STARTCHAR a4f7
ENCODING 42231
SWIDTH 960 0
DWIDTH 16 0
BBX 16 18 0 -3
BITMAP
0010
0010
0010
0010
001E
0010
0010
049E
0490
0490
3FF0
0010
0010
0010
0010
0000
0000
0000
ENDCHAR

STARTCHAR a4f8
ENCODING 42232
SWIDTH 960 0
DWIDTH 16 0
BBX 16 18 0 -3
BITMAP
0012
0012
0012
0012
0012
049E
0492
0492
0492
049E
3FF2
0012
0012
0012
0012
0000
0000
0000
ENDCHAR

STARTCHAR a4f9
ENCODING 42233
SWIDTH 960 0
DWIDTH 16 0
BBX 16 18 0 -3
BITMAP
0010
0010
0010
0010
0010
0490
0490
0490
0490
0490
3FF0
0010
0010
0010
0010
0000
0000
0000
ENDCHAR

STARTCHAR a4fa
ENCODING 42234
SWIDTH 960 0
DWIDTH 16 0
BBX 16 18 0 -3
BITMAP
0008
0008
0008
0008
0008
0008
0038
0008
3FE8
0488
04B8
0488
0488
0488
0488
0000
0000
0000
ENDCHAR

STARTCHAR a4fb
ENCODING 42235
SWIDTH 960 0
DWIDTH 16 0
BBX 16 18 0 -3
BITMAP
0009
0009
0009
0009
0009
0009
0009
3FE9
0489
04B9
0489
04B9
0489
0489
0489
0000
0000
0000
ENDCHAR

STARTCHAR a4fc
ENCODING 42236
SWIDTH 960 0
DWIDTH 16 0
BBX 16 18 0 -3
BITMAP
0010
0010
0010
0010
0010
0010
0010
0010
3FF0
0490
0490
0490
0490
0490
0490
0000
0000
0000
ENDCHAR

STARTCHAR a4fd
ENCODING 42237
SWIDTH 960 0
DWIDTH 16 0
BBX 16 18 0 -3
BITMAP
0000
0000
0000
0000
0000
0000
0180
0180
0000
0000
0000
0000
0000
0000
0000
0000
0000
0000
ENDCHAR

STARTCHAR a4fe
ENCODING 42238
SWIDTH 960 0
DWIDTH 16 0
BBX 16 18 0 -3
BITMAP
0010
0010
0010
0010
0010
0010
0190
0190
0010
0010
0010
0010
0010
0010
0010
0000
0000
0000
ENDCHAR

STARTCHAR a5a1
ENCODING 42401
SWIDTH 960 0
DWIDTH 16 0
BBX 16 18 0 -3
BITMAP
0000
0000
0000
0100
0100
0000
0100
0100
0100
0100
0100
0100
0100
0100
0000
0000
0000
0000
ENDCHAR

STARTCHAR a5a2
ENCODING 42402
SWIDTH 960 0
DWIDTH 16 0
BBX 16 18 0 -3
BITMAP
0000
0000
0000
0240
0240
0000
0240
0240
0240
0240
0240
0240
0240
0240
0000
0000
0000
0000
ENDCHAR

STARTCHAR a5a3
ENCODING 42403
SWIDTH 960 0
DWIDTH 16 0
BBX 16 18 0 -3
BITMAP
0000
0000
0000
0540
0540
0000
0540
0540
0540
0540
0540
0540
0540
0540
0000
0000
0000
0000
ENDCHAR

STARTCHAR a5a4
ENCODING 42404
SWIDTH 960 0
DWIDTH 16 0
BBX 16 18 0 -3
BITMAP
0000
0000
0000
0800
0800
0000
0A08
0A08
0910
0910
08A0
08A0
0840
0840
0000
0000
0000
0000
ENDCHAR

STARTCHAR a5a5
ENCODING 42405
SWIDTH 960 0
DWIDTH 16 0
BBX 16 18 0 -3
BITMAP
0000
0000
0000
0000
0000
0000
0820
0820
0440
0440
0280
0280
0100
0100
0000
0000
0000
0000
ENDCHAR

STARTCHAR a5a6
ENCODING 42406
SWIDTH 960 0
DWIDTH 16 0
BBX 16 18 0 -3
BITMAP
0000
0000
0000
0010
0010
0000
1050
1050
0890
0890
0510
0510
0210
0210
0000
0000
0000
0000
ENDCHAR

STARTCHAR a5a7
ENCODING 42407
SWIDTH 960 0
DWIDTH 16 0
BBX 16 18 0 -3
BITMAP
0000
0000
0000
0028
0028
0000
20A8
20A8
1128
1128
0A28
0A28
0428
0428
0000
0000
0000
0000
ENDCHAR

STARTCHAR a5a8
ENCODING 42408
SWIDTH 960 0
DWIDTH 16 0
BBX 16 18 0 -3
BITMAP
0000
0000
0000
0054
0054
0000
4154
4154
2254
2254
1454
1454
0854
0854
0000
0000
0000
0000
ENDCHAR

STARTCHAR a5a9
ENCODING 42409
SWIDTH 960 0
DWIDTH 16 0
BBX 16 18 0 -3
BITMAP
0000
0000
0000
1000
1000
0000
1408
1210
1120
10C0
10C0
1120
1210
1408
0000
0000
0000
0000
ENDCHAR

STARTCHAR a5aa
ENCODING 42410
SWIDTH 960 0
DWIDTH 16 0
BBX 16 18 0 -3
BITMAP
0000
0000
0000
0000
0000
0000
0810
0420
0240
0180
0180
0240
0420
0810
0000
0000
0000
0000
ENDCHAR

STARTCHAR a5b0
ENCODING 42416
SWIDTH 960 0
DWIDTH 16 0
BBX 16 18 0 -3
BITMAP
0000
0000
0380
0100
0100
0100
0100
0100
0100
0100
0100
0100
0380
0000
0000
0000
0000
0000
ENDCHAR

STARTCHAR a5b1
ENCODING 42417
SWIDTH 960 0
DWIDTH 16 0
BBX 16 18 0 -3
BITMAP
0000
0000
03E0
0140
0140
0140
0140
0140
0140
0140
0140
0140
03E0
0000
0000
0000
0000
0000
ENDCHAR

STARTCHAR a5b2
ENCODING 42418
SWIDTH 960 0
DWIDTH 16 0
BBX 16 18 0 -3
BITMAP
0000
0000
0FE0
0540
0540
0540
0540
0540
0540
0540
0540
0540
0FE0
0000
0000
0000
0000
0000
ENDCHAR

STARTCHAR a5b3
ENCODING 42419
SWIDTH 960 0
DWIDTH 16 0
BBX 16 18 0 -3
BITMAP
0000
0000
1F8E
0904
0904
0904
0888
0888
0888
0850
0850
0850
1C20
0000
0000
0000
0000
0000
ENDCHAR

STARTCHAR a5b4
ENCODING 42420
SWIDTH 960 0
DWIDTH 16 0
BBX 16 18 0 -3
BITMAP
0000
0000
1C70
0820
0820
0820
0440
0440
0440
0440
0280
0280
0100
0000
0000
0000
0000
0000
ENDCHAR

STARTCHAR a5b5
ENCODING 42421
SWIDTH 960 0
DWIDTH 16 0
BBX 16 18 0 -3
BITMAP
0000
0000
38F8
1050
1050
1050
1050
0890
0890
0890
0510
0510
0238
0000
0000
0000
0000
0000
ENDCHAR

STARTCHAR a5b6
ENCODING 42422
SWIDTH 960 0
DWIDTH 16 0
BBX 16 18 0 -3
BITMAP
0000
0000
71FE
2094
2094
2094
1114
1114
1114
1114
1114
0A14
043E
0000
0000
0000
0000
0000
ENDCHAR

STARTCHAR a5b7
ENCODING 42423
SWIDTH 960 0
DWIDTH 16 0
BBX 16 18 0 -3
BITMAP
0000
0000
77FE
2254
2254
2254
2254
1454
1454
1454
1454
0854
08FE
0000
0000
0000
0000
0000
ENDCHAR

STARTCHAR a5b8
ENCODING 42424
SWIDTH 960 0
DWIDTH 16 0
BBX 16 18 0 -3
BITMAP
0000
0000
3B8E
1104
1088
1050
1020
1020
1050
1088
1104
1204
3F0E
0000
0000
0000
0000
0000
ENDCHAR

STARTCHAR a5b9
ENCODING 42425
SWIDTH 960 0
DWIDTH 16 0
BBX 16 18 0 -3
BITMAP
0000
0000
381C
1008
0810
0420
0240
0180
0180
0240
0420
0810
381C
0000
0000
0000
0000
0000
ENDCHAR

STARTCHAR a5c1
ENCODING 42433
SWIDTH 960 0
DWIDTH 16 0
BBX 16 18 0 -3
BITMAP
0000
0000
0010
0010
0030
0050
0090
0190
03F0
0410
0810
1010
3838
0000
0000
0000
0000
0000
ENDCHAR

STARTCHAR a5c2
ENCODING 42434
SWIDTH 960 0
DWIDTH 16 0
BBX 16 18 0 -3
BITMAP
0000
0000
0FE0
0410
0408
0408
0810
0FE0
0820
1010
1010
1020
3FC0
0000
0000
0000
0000
0000
ENDCHAR

STARTCHAR a5c3
ENCODING 42435
SWIDTH 960 0
DWIDTH 16 0
BBX 16 18 0 -3
BITMAP
0000
0000
0FFC
0404
0400
0400
0400
0400
0400
0400
0400
0400
0E00
0000
0000
0000
0000
0000
ENDCHAR

STARTCHAR a5c4
ENCODING 42436
SWIDTH 960 0
DWIDTH 16 0
BBX 16 18 0 -3
BITMAP
0000
0000
0080
0140
0140
0220
0220
0420
0410
0810
0808
1008
1FFC
0000
0000
0000
0000
0000
ENDCHAR

STARTCHAR a5c5
ENCODING 42437
SWIDTH 960 0
DWIDTH 16 0
BBX 16 18 0 -3
BITMAP
0000
0000
0FF8
0410
0400
0400
0820
0FC0
0840
0800
1000
1010
3FE0
0000
0000
0000
0000
0000
ENDCHAR

STARTCHAR a5c6
ENCODING 42438
SWIDTH 960 0
DWIDTH 16 0
BBX 16 18 0 -3
BITMAP
0000
0000
0FF8
1010
0020
0040
0080
0100
0200
0400
0800
1010
3FE0
0000
0000
0000
0000
0000
ENDCHAR

STARTCHAR a5c7
ENCODING 42439
SWIDTH 960 0
DWIDTH 16 0
BBX 16 18 0 -3
BITMAP
0000
0000
0E38
0410
0410
0820
0820
0FE0
0820
1040
1040
1040
38E0
0000
0000
0000
0000
0000
ENDCHAR

STARTCHAR a5c8
ENCODING 42440
SWIDTH 960 0
DWIDTH 16 0
BBX 16 18 0 -3
BITMAP
0000
0000
03C0
0420
0810
1008
1428
17E8
1428
1008
0810
0420
03C0
0000
0000
0000
0000
0000
ENDCHAR

STARTCHAR a5c9
ENCODING 42441
SWIDTH 960 0
DWIDTH 16 0
BBX 16 18 0 -3
BITMAP
0000
0000
03E0
0080
0080
0080
0100
0100
0100
0200
0200
0200
0F80
0000
0000
0000
0000
0000
ENDCHAR

STARTCHAR a5ca
ENCODING 42442
SWIDTH 960 0
DWIDTH 16 0
BBX 16 18 0 -3
BITMAP
0000
0000
0E78
0420
0440
0480
0900
0A00
0D00
0880
1040
1020
3878
0000
0000
0000
0000
0000
ENDCHAR

STARTCHAR a5cb
ENCODING 42443
SWIDTH 960 0
DWIDTH 16 0
BBX 16 18 0 -3
BITMAP
0000
0000
0100
0280
0280
0440
0440
0820
0820
0820
1010
1010
3838
0000
0000
0000
0000
0000
ENDCHAR

STARTCHAR a5cc
ENCODING 42444
SWIDTH 960 0
DWIDTH 16 0
BBX 16 18 0 -3
BITMAP
0000
0000
1C0E
080C
0814
1424
1428
1248
1288
2110
2110
2010
7038
0000
0000
0000
0000
0000
ENDCHAR

STARTCHAR a5cd
ENCODING 42445
SWIDTH 960 0
DWIDTH 16 0
BBX 16 18 0 -3
BITMAP
0000
0000
0C0E
0604
0508
0908
0888
0890
0850
1050
1020
1010
3830
0000
0000
0000
0000
0000
ENDCHAR

STARTCHAR a5ce
ENCODING 42446
SWIDTH 960 0
DWIDTH 16 0
BBX 16 18 0 -3
BITMAP
0000
0000
1FF8
2010
0000
0000
0000
0FC0
0000
0000
0000
1010
3FE0
0000
0000
0000
0000
0000
ENDCHAR

STARTCHAR a5cf
ENCODING 42447
SWIDTH 960 0
DWIDTH 16 0
BBX 16 18 0 -3
BITMAP
0000
0000
03E0
0410
0808
1008
2008
2008
2008
2008
2010
2020
1040
0F80
0000
0000
0000
0000
ENDCHAR

STARTCHAR a5d0
ENCODING 42448
SWIDTH 960 0
DWIDTH 16 0
BBX 16 18 0 -3
BITMAP
0000
0000
0FF8
0220
0220
0220
0440
0440
0440
0880
0880
0880
0880
3DE0
0000
0000
0000
0000
ENDCHAR

STARTCHAR a5d1
ENCODING 42449
SWIDTH 960 0
DWIDTH 16 0
BBX 16 18 0 -3
BITMAP
0000
0000
1FE0
0410
0408
0408
0810
0FE0
0800
0800
1000
1000
1000
3800
0000
0000
0000
0000
ENDCHAR

STARTCHAR a5d2
ENCODING 42450
SWIDTH 960 0
DWIDTH 16 0
BBX 16 18 0 -3
BITMAP
0000
0000
0FF8
0408
0200
0100
0080
0080
0100
0200
0400
0810
1010
3FF0
0000
0000
0000
0000
ENDCHAR

STARTCHAR a5d3
ENCODING 42451
SWIDTH 960 0
DWIDTH 16 0
BBX 16 18 0 -3
BITMAP
0000
0000
1FF8
2110
0100
0100
0200
0200
0200
0200
0400
0400
0400
1F00
0000
0000
0000
0000
ENDCHAR

STARTCHAR a5d4
ENCODING 42452
SWIDTH 960 0
DWIDTH 16 0
BBX 16 18 0 -3
BITMAP
0000
0000
19F0
2608
0408
0400
0800
0800
0800
0800
1000
1000
1000
3800
0000
0000
0000
0000
ENDCHAR

STARTCHAR a5d5
ENCODING 42453
SWIDTH 960 0
DWIDTH 16 0
BBX 16 18 0 -3
BITMAP
0000
0000
03E0
0080
07C0
08A0
1110
1110
1110
1110
0A20
07C0
0200
0F80
0000
0000
0000
0000
ENDCHAR

STARTCHAR a5d6
ENCODING 42454
SWIDTH 960 0
DWIDTH 16 0
BBX 16 18 0 -3
BITMAP
0000
0000
0E3C
0410
0420
0240
0180
0100
0180
0240
0440
0820
1020
3C70
0000
0000
0000
0000
ENDCHAR

STARTCHAR a5d7
ENCODING 42455
SWIDTH 960 0
DWIDTH 16 0
BBX 16 18 0 -3
BITMAP
0000
0000
1DCC
0490
0490
0920
0920
1240
1240
1240
0F80
0400
0400
1F00
0000
0000
0000
0000
ENDCHAR

STARTCHAR a5d8
ENCODING 42456
SWIDTH 960 0
DWIDTH 16 0
BBX 16 18 0 -3
BITMAP
0000
0000
07E0
0810
1008
2008
2008
2008
2010
1020
0CC0
0480
2490
3870
0000
0000
0000
0000
ENDCHAR

STARTCHAR a5e1
ENCODING 42465
SWIDTH 960 0
DWIDTH 16 0
BBX 16 18 0 -3
BITMAP
0000
0000
0000
0000
0000
0000
0000
0720
08A0
10C0
10C0
1080
1180
0E60
0000
0000
0000
0000
ENDCHAR

STARTCHAR a5e2
ENCODING 42466
SWIDTH 960 0
DWIDTH 16 0
BBX 16 18 0 -3
BITMAP
0000
0000
0000
0000
01E0
0210
0210
0420
05C0
0420
0820
0820
0C40
1380
1000
2000
0000
0000
ENDCHAR

STARTCHAR a5e3
ENCODING 42467
SWIDTH 960 0
DWIDTH 16 0
BBX 16 18 0 -3
BITMAP
0000
0000
0000
0000
0000
0000
070C
0890
00A0
0040
0040
0080
0080
0100
0000
0000
0000
0000
ENDCHAR

STARTCHAR a5e4
ENCODING 42468
SWIDTH 960 0
DWIDTH 16 0
BBX 16 18 0 -3
BITMAP
0000
0000
0000
0000
03C0
0420
0200
0100
03C0
0420
0820
0820
0840
0780
0000
0000
0000
0000
ENDCHAR

STARTCHAR a5e5
ENCODING 42469
SWIDTH 960 0
DWIDTH 16 0
BBX 16 18 0 -3
BITMAP
0000
0000
0000
0000
0000
0000
01E0
0210
0400
0380
0400
0800
0820
07C0
0000
0000
0000
0000
ENDCHAR

STARTCHAR a5e6
ENCODING 42470
SWIDTH 960 0
DWIDTH 16 0
BBX 16 18 0 -3
BITMAP
0000
0000
0000
0100
0230
01E0
0080
0100
0200
0400
0400
03C0
0020
0420
03C0
0000
0000
0000
ENDCHAR

STARTCHAR a5e7
ENCODING 42471
SWIDTH 960 0
DWIDTH 16 0
BBX 16 18 0 -3
BITMAP
0000
0000
0000
0000
0000
0000
0C60
0290
0310
0420
0420
0840
0840
0080
0080
0000
0000
0000
ENDCHAR

STARTCHAR a5e8
ENCODING 42472
SWIDTH 960 0
DWIDTH 16 0
BBX 16 18 0 -3
BITMAP
0000
0000
0000
0000
0000
03C0
0420
0810
1010
1FF0
1010
1020
0840
0780
0000
0000
0000
0000
ENDCHAR

STARTCHAR a5e9
ENCODING 42473
SWIDTH 960 0
DWIDTH 16 0
BBX 16 18 0 -3
BITMAP
0000
0000
0000
0000
0000
0000
0080
0080
0100
0100
0100
0200
0200
0300
0000
0000
0000
0000
ENDCHAR

STARTCHAR a5ea
ENCODING 42474
SWIDTH 960 0
DWIDTH 16 0
BBX 16 18 0 -3
BITMAP
0000
0000
0000
0000
0000
0218
0220
0240
0280
0500
0480
0840
0820
0810
0000
0000
0000
0000
ENDCHAR

STARTCHAR a5eb
ENCODING 42475
SWIDTH 960 0
DWIDTH 16 0
BBX 16 18 0 -3
BITMAP
0000
0000
0000
0600
0100
0100
0100
0080
0080
0080
0140
0240
0420
0818
0000
0000
0000
0000
ENDCHAR

STARTCHAR a5ec
ENCODING 42476
SWIDTH 960 0
DWIDTH 16 0
BBX 16 18 0 -3
BITMAP
0000
0000
0000
0000
0000
0000
0000
0420
0420
0840
0840
14C8
1330
1000
2000
2000
0000
0000
ENDCHAR

STARTCHAR a5ed
ENCODING 42477
SWIDTH 960 0
DWIDTH 16 0
BBX 16 18 0 -3
BITMAP
0000
0000
0000
0000
0000
0000
0000
0840
0440
0440
0440
0280
0280
0100
0000
0000
0000
0000
ENDCHAR

STARTCHAR a5ee
ENCODING 42478
SWIDTH 960 0
DWIDTH 16 0
BBX 16 18 0 -3
BITMAP
0000
0000
0000
0300
0400
03C0
0400
0400
03C0
0400
0800
0800
0780
0040
0440
0380
0000
0000
ENDCHAR

STARTCHAR a5ef
ENCODING 42479
SWIDTH 960 0
DWIDTH 16 0
BBX 16 18 0 -3
BITMAP
0000
0000
0000
0000
0000
0000
0000
01C0
0220
0220
0420
0440
0440
0380
0000
0000
0000
0000
ENDCHAR

STARTCHAR a5f0
ENCODING 42480
SWIDTH 960 0
DWIDTH 16 0
BBX 16 18 0 -3
BITMAP
0000
0000
0000
0000
0000
0000
0000
1FF8
0440
0440
0880
0880
1120
21C0
0000
0000
0000
0000
ENDCHAR

STARTCHAR a5f1
ENCODING 42481
SWIDTH 960 0
DWIDTH 16 0
BBX 16 18 0 -3
BITMAP
0000
0000
0000
0000
0000
0000
00E0
0110
0210
0610
0610
0A20
09C0
1000
1000
0000
0000
0000
ENDCHAR

STARTCHAR a5f2
ENCODING 42482
SWIDTH 960 0
DWIDTH 16 0
BBX 16 18 0 -3
BITMAP
0000
0000
0000
0000
0000
0000
0000
01F8
0220
0420
0820
0820
0840
0780
0000
0000
0000
0000
ENDCHAR

STARTCHAR a5f3
ENCODING 42483
SWIDTH 960 0
DWIDTH 16 0
BBX 16 18 0 -3
BITMAP
0000
0000
0000
0000
0000
0000
0000
0FE0
0080
0100
0100
0200
0240
0180
0000
0000
0000
0000
ENDCHAR

STARTCHAR a5f4
ENCODING 42484
SWIDTH 960 0
DWIDTH 16 0
BBX 16 18 0 -3
BITMAP
0000
0000
0000
0000
0000
0000
0000
0040
0420
0420
0420
0420
0440
0380
0000
0000
0000
0000
ENDCHAR

STARTCHAR a5f5
ENCODING 42485
SWIDTH 960 0
DWIDTH 16 0
BBX 16 18 0 -3
BITMAP
0000
0000
0000
0000
0000
0000
0130
0248
0448
0488
0490
03E0
0100
0100
0200
0000
0000
0000
ENDCHAR

STARTCHAR a5f6
ENCODING 42486
SWIDTH 960 0
DWIDTH 16 0
BBX 16 18 0 -3
BITMAP
0000
0000
0000
0000
0000
0000
0610
0920
0140
0080
0300
0480
0890
1060
0000
0000
0000
0000
ENDCHAR

STARTCHAR a5f7
ENCODING 42487
SWIDTH 960 0
DWIDTH 16 0
BBX 16 18 0 -3
BITMAP
0000
0000
0000
0000
0000
0040
0040
0490
0490
0910
0920
0920
07C0
0200
0400
0000
0000
0000
ENDCHAR

STARTCHAR a5f8
ENCODING 42488
SWIDTH 960 0
DWIDTH 16 0
BBX 16 18 0 -3
BITMAP
0000
0000
0000
0000
0000
0000
0000
0810
1008
2008
2108
2108
2310
1CE0
0000
0000
0000
0000
ENDCHAR

STARTCHAR a6a1
ENCODING 42657
SWIDTH 960 0
DWIDTH 16 0
BBX 16 18 0 -3
BITMAP
0000
0000
0000
0000
0000
0000
0000
FFFF
0000
0000
0000
0000
0000
0000
0000
0000
0000
0000
ENDCHAR

STARTCHAR a6a2
ENCODING 42658
SWIDTH 960 0
DWIDTH 16 0
BBX 16 18 0 -3
BITMAP
0100
0100
0100
0100
0100
0100
0100
0100
0100
0100
0100
0100
0100
0100
0100
0100
0000
0000
ENDCHAR

STARTCHAR a6a3
ENCODING 42659
SWIDTH 960 0
DWIDTH 16 0
BBX 16 18 0 -3
BITMAP
0000
0000
0000
0000
0000
0000
0000
01FF
0100
0100
0100
0100
0100
0100
0100
0100
0000
0000
ENDCHAR

STARTCHAR a6a4
ENCODING 42660
SWIDTH 960 0
DWIDTH 16 0
BBX 16 18 0 -3
BITMAP
0000
0000
0000
0000
0000
0000
0000
FF00
0100
0100
0100
0100
0100
0100
0100
0100
0000
0000
ENDCHAR

STARTCHAR a6a5
ENCODING 42661
SWIDTH 960 0
DWIDTH 16 0
BBX 16 18 0 -3
BITMAP
0100
0100
0100
0100
0100
0100
0100
FF00
0000
0000
0000
0000
0000
0000
0000
0000
0000
0000
ENDCHAR

STARTCHAR a6a6
ENCODING 42662
SWIDTH 960 0
DWIDTH 16 0
BBX 16 18 0 -3
BITMAP
0100
0100
0100
0100
0100
0100
0100
01FF
0000
0000
0000
0000
0000
0000
0000
0000
0000
0000
ENDCHAR

STARTCHAR a6a7
ENCODING 42663
SWIDTH 960 0
DWIDTH 16 0
BBX 16 18 0 -3
BITMAP
0100
0100
0100
0100
0100
0100
0100
01FF
0100
0100
0100
0100
0100
0100
0100
0100
0000
0000
ENDCHAR

STARTCHAR a6a8
ENCODING 42664
SWIDTH 960 0
DWIDTH 16 0
BBX 16 18 0 -3
BITMAP
0000
0000
0000
0000
0000
0000
0000
FFFF
0100
0100
0100
0100
0100
0100
0100
0100
0000
0000
ENDCHAR

STARTCHAR a6a9
ENCODING 42665
SWIDTH 960 0
DWIDTH 16 0
BBX 16 18 0 -3
BITMAP
0100
0100
0100
0100
0100
0100
0100
FF00
0100
0100
0100
0100
0100
0100
0100
0100
0000
0000
ENDCHAR

STARTCHAR a6aa
ENCODING 42666
SWIDTH 960 0
DWIDTH 16 0
BBX 16 18 0 -3
BITMAP
0100
0100
0100
0100
0100
0100
0100
FFFF
0000
0000
0000
0000
0000
0000
0000
0000
0000
0000
ENDCHAR

STARTCHAR a6ab
ENCODING 42667
SWIDTH 960 0
DWIDTH 16 0
BBX 16 18 0 -3
BITMAP
0100
0100
0100
0100
0100
0100
0100
FFFF
0100
0100
0100
0100
0100
0100
0100
0100
0000
0000
ENDCHAR

STARTCHAR a6ac
ENCODING 42668
SWIDTH 960 0
DWIDTH 16 0
BBX 16 18 0 -3
BITMAP
0000
0000
0000
0000
0000
0000
FFFF
FFFF
FFFF
0000
0000
0000
0000
0000
0000
0000
0000
0000
ENDCHAR

STARTCHAR a6ad
ENCODING 42669
SWIDTH 960 0
DWIDTH 16 0
BBX 16 18 0 -3
BITMAP
01C0
01C0
01C0
01C0
01C0
01C0
01C0
01C0
01C0
01C0
01C0
01C0
01C0
01C0
01C0
01C0
0000
0000
ENDCHAR

STARTCHAR a6ae
ENCODING 42670
SWIDTH 960 0
DWIDTH 16 0
BBX 16 18 0 -3
BITMAP
0000
0000
0000
0000
0000
0000
03FF
03FF
03FF
0380
0380
0380
0380
0380
0380
0380
0000
0000
ENDCHAR

STARTCHAR a6af
ENCODING 42671
SWIDTH 960 0
DWIDTH 16 0
BBX 16 18 0 -3
BITMAP
0000
0000
0000
0000
0000
0000
FF80
FF80
FF80
0380
0380
0380
0380
0380
0380
0380
0000
0000
ENDCHAR

STARTCHAR a6b0
ENCODING 42672
SWIDTH 960 0
DWIDTH 16 0
BBX 16 18 0 -3
BITMAP
0380
0380
0380
0380
0380
0380
FF80
FF80
FF80
0000
0000
0000
0000
0000
0000
0000
0000
0000
ENDCHAR

STARTCHAR a6b1
ENCODING 42673
SWIDTH 960 0
DWIDTH 16 0
BBX 16 18 0 -3
BITMAP
0380
0380
0380
0380
0380
0380
03FF
03FF
03FF
0000
0000
0000
0000
0000
0000
0000
0000
0000
ENDCHAR

STARTCHAR a6b2
ENCODING 42674
SWIDTH 960 0
DWIDTH 16 0
BBX 16 18 0 -3
BITMAP
0380
0380
0380
0380
0380
0380
03FF
03FF
03FF
0380
0380
0380
0380
0380
0380
0380
0000
0000
ENDCHAR

STARTCHAR a6b3
ENCODING 42675
SWIDTH 960 0
DWIDTH 16 0
BBX 16 18 0 -3
BITMAP
0000
0000
0000
0000
0000
0000
FFFF
FFFF
FFFF
0380
0380
0380
0380
0380
0380
0380
0000
0000
ENDCHAR

STARTCHAR a6b4
ENCODING 42676
SWIDTH 960 0
DWIDTH 16 0
BBX 16 18 0 -3
BITMAP
0380
0380
0380
0380
0380
0380
FF80
FF80
FF80
0380
0380
0380
0380
0380
0380
0380
0000
0000
ENDCHAR

STARTCHAR a6b5
ENCODING 42677
SWIDTH 960 0
DWIDTH 16 0
BBX 16 18 0 -3
BITMAP
0380
0380
0380
0380
0380
0380
FFFF
FFFF
FFFF
0000
0000
0000
0000
0000
0000
0000
0000
0000
ENDCHAR

STARTCHAR a6b6
ENCODING 42678
SWIDTH 960 0
DWIDTH 16 0
BBX 16 18 0 -3
BITMAP
0380
0380
0380
0380
0380
0380
FFFF
FFFF
FFFF
0380
0380
0380
0380
0380
0380
0380
0000
0000
ENDCHAR

STARTCHAR a6b7
ENCODING 42679
SWIDTH 960 0
DWIDTH 16 0
BBX 16 18 0 -3
BITMAP
0380
0380
0380
0380
0380
0380
0380
03FF
0380
0380
0380
0380
0380
0380
0380
0380
0000
0000
ENDCHAR

STARTCHAR a6b8
ENCODING 42680
SWIDTH 960 0
DWIDTH 16 0
BBX 16 18 0 -3
BITMAP
0000
0000
0000
0000
0000
0000
FFFF
FFFF
FFFF
0100
0100
0100
0100
0100
0100
0100
0000
0000
ENDCHAR

STARTCHAR a6b9
ENCODING 42681
SWIDTH 960 0
DWIDTH 16 0
BBX 16 18 0 -3
BITMAP
0380
0380
0380
0380
0380
0380
0380
FF80
0380
0380
0380
0380
0380
0380
0380
0380
0000
0000
ENDCHAR

STARTCHAR a6ba
ENCODING 42682
SWIDTH 960 0
DWIDTH 16 0
BBX 16 18 0 -3
BITMAP
0100
0100
0100
0100
0100
0100
FFFF
FFFF
FFFF
0000
0000
0000
0000
0000
0000
0000
0000
0000
ENDCHAR

STARTCHAR a6bb
ENCODING 42683
SWIDTH 960 0
DWIDTH 16 0
BBX 16 18 0 -3
BITMAP
0100
0100
0100
0100
0100
0100
FFFF
FFFF
FFFF
0100
0100
0100
0100
0100
0100
0100
0000
0000
ENDCHAR

STARTCHAR a6bc
ENCODING 42684
SWIDTH 960 0
DWIDTH 16 0
BBX 16 18 0 -3
BITMAP
0100
0100
0100
0100
0100
0100
01FF
01FF
01FF
0100
0100
0100
0100
0100
0100
0100
0000
0000
ENDCHAR

STARTCHAR a6bd
ENCODING 42685
SWIDTH 960 0
DWIDTH 16 0
BBX 16 18 0 -3
BITMAP
0000
0000
0000
0000
0000
0000
0000
FFFF
0380
0380
0380
0380
0380
0380
0380
0380
0000
0000
ENDCHAR

STARTCHAR a6be
ENCODING 42686
SWIDTH 960 0
DWIDTH 16 0
BBX 16 18 0 -3
BITMAP
0100
0100
0100
0100
0100
0100
FF00
FF00
FF00
0100
0100
0100
0100
0100
0100
0100
0000
0000
ENDCHAR

STARTCHAR a6bf
ENCODING 42687
SWIDTH 960 0
DWIDTH 16 0
BBX 16 18 0 -3
BITMAP
0380
0380
0380
0380
0380
0380
0380
FFFF
0000
0000
0000
0000
0000
0000
0000
0000
0000
0000
ENDCHAR

STARTCHAR a6c0
ENCODING 42688
SWIDTH 960 0
DWIDTH 16 0
BBX 16 18 0 -3
BITMAP
0380
0380
0380
0380
0380
0380
0380
FFFF
0380
0380
0380
0380
0380
0380
0380
0380
0000
0000
ENDCHAR

STARTCHAR a6c1
ENCODING 42689
SWIDTH 960 0
DWIDTH 16 0
BBX 16 18 0 -3
BITMAP
0000
0000
0000
0000
0000
0000
0000
FF80
0380
0380
0380
0380
0380
0380
0380
0380
0000
0000
ENDCHAR

STARTCHAR a6c2
ENCODING 42690
SWIDTH 960 0
DWIDTH 16 0
BBX 16 18 0 -3
BITMAP
0000
0000
0000
0000
0000
0000
FF00
FF00
FF00
0100
0100
0100
0100
0100
0100
0100
0000
0000
ENDCHAR

STARTCHAR a6c3
ENCODING 42691
SWIDTH 960 0
DWIDTH 16 0
BBX 16 18 0 -3
BITMAP
0380
0380
0380
0380
0380
0380
0380
FF80
0000
0000
0000
0000
0000
0000
0000
0000
0000
0000
ENDCHAR

STARTCHAR a6c4
ENCODING 42692
SWIDTH 960 0
DWIDTH 16 0
BBX 16 18 0 -3
BITMAP
0100
0100
0100
0100
0100
0100
FF00
FF00
FF00
0000
0000
0000
0000
0000
0000
0000
0000
0000
ENDCHAR

STARTCHAR a6c5
ENCODING 42693
SWIDTH 960 0
DWIDTH 16 0
BBX 16 18 0 -3
BITMAP
0380
0380
0380
0380
0380
0380
0380
03FF
0000
0000
0000
0000
0000
0000
0000
0000
0000
0000
ENDCHAR

STARTCHAR a6c6
ENCODING 42694
SWIDTH 960 0
DWIDTH 16 0
BBX 16 18 0 -3
BITMAP
0100
0100
0100
0100
0100
0100
01FF
01FF
01FF
0000
0000
0000
0000
0000
0000
0000
0000
0000
ENDCHAR

STARTCHAR a6c7
ENCODING 42695
SWIDTH 960 0
DWIDTH 16 0
BBX 16 18 0 -3
BITMAP
0000
0000
0000
0000
0000
0000
0000
03FF
0380
0380
0380
0380
0380
0380
0380
0380
0000
0000
ENDCHAR

STARTCHAR a6c8
ENCODING 42696
SWIDTH 960 0
DWIDTH 16 0
BBX 16 18 0 -3
BITMAP
0000
0000
0000
0000
0000
0000
01FF
01FF
01FF
0100
0100
0100
0100
0100
0100
0100
0000
0000
ENDCHAR

STARTCHAR a6c9
ENCODING 42697
SWIDTH 960 0
DWIDTH 16 0
BBX 16 18 0 -3
BITMAP
0380
0380
0380
0380
0380
0380
0380
03FF
0100
0100
0100
0100
0100
0100
0100
0100
0000
0000
ENDCHAR

STARTCHAR a6ca
ENCODING 42698
SWIDTH 960 0
DWIDTH 16 0
BBX 16 18 0 -3
BITMAP
0100
0100
0100
0100
0100
0100
0100
03FF
0380
0380
0380
0380
0380
0380
0380
0380
0000
0000
ENDCHAR

STARTCHAR a6cb
ENCODING 42699
SWIDTH 960 0
DWIDTH 16 0
BBX 16 18 0 -3
BITMAP
0380
0380
0380
0380
0380
0380
03FF
03FF
03FF
0100
0100
0100
0100
0100
0100
0100
0000
0000
ENDCHAR

STARTCHAR a6cc
ENCODING 42700
SWIDTH 960 0
DWIDTH 16 0
BBX 16 18 0 -3
BITMAP
0100
0100
0100
0100
0100
0100
03FF
03FF
03FF
0380
0380
0380
0380
0380
0380
0380
0000
0000
ENDCHAR

STARTCHAR a6cd
ENCODING 42701
SWIDTH 960 0
DWIDTH 16 0
BBX 16 18 0 -3
BITMAP
0380
0380
0380
0380
0380
0380
0380
FF80
0100
0100
0100
0100
0100
0100
0100
0100
0000
0000
ENDCHAR

STARTCHAR a6ce
ENCODING 42702
SWIDTH 960 0
DWIDTH 16 0
BBX 16 18 0 -3
BITMAP
0100
0100
0100
0100
0100
0100
0100
FF80
0380
0380
0380
0380
0380
0380
0380
0380
0000
0000
ENDCHAR

STARTCHAR a6cf
ENCODING 42703
SWIDTH 960 0
DWIDTH 16 0
BBX 16 18 0 -3
BITMAP
0380
0380
0380
0380
0380
0380
FF80
FF80
FF80
0100
0100
0100
0100
0100
0100
0100
0000
0000
ENDCHAR

STARTCHAR a6d0
ENCODING 42704
SWIDTH 960 0
DWIDTH 16 0
BBX 16 18 0 -3
BITMAP
0100
0100
0100
0100
0100
0100
FF80
FF80
FF80
0380
0380
0380
0380
0380
0380
0380
0000
0000
ENDCHAR

STARTCHAR a6d1
ENCODING 42705
SWIDTH 960 0
DWIDTH 16 0
BBX 16 18 0 -3
BITMAP
0000
0000
0000
0000
0000
0000
FF00
FFFF
FF00
0100
0100
0100
0100
0100
0100
0100
0000
0000
ENDCHAR

STARTCHAR a6d2
ENCODING 42706
SWIDTH 960 0
DWIDTH 16 0
BBX 16 18 0 -3
BITMAP
0000
0000
0000
0000
0000
0000
01FF
FFFF
01FF
0100
0100
0100
0100
0100
0100
0100
0000
0000
ENDCHAR

STARTCHAR a6d3
ENCODING 42707
SWIDTH 960 0
DWIDTH 16 0
BBX 16 18 0 -3
BITMAP
0000
0000
0000
0000
0000
0000
FF80
FFFF
FF80
0380
0380
0380
0380
0380
0380
0380
0000
0000
ENDCHAR

STARTCHAR a6d4
ENCODING 42708
SWIDTH 960 0
DWIDTH 16 0
BBX 16 18 0 -3
BITMAP
0000
0000
0000
0000
0000
0000
03FF
FFFF
03FF
0380
0380
0380
0380
0380
0380
0380
0000
0000
ENDCHAR

STARTCHAR a6d5
ENCODING 42709
SWIDTH 960 0
DWIDTH 16 0
BBX 16 18 0 -3
BITMAP
0100
0100
0100
0100
0100
0100
FF00
FFFF
FF00
0000
0000
0000
0000
0000
0000
0000
0000
0000
ENDCHAR

STARTCHAR a6d6
ENCODING 42710
SWIDTH 960 0
DWIDTH 16 0
BBX 16 18 0 -3
BITMAP
0100
0100
0100
0100
0100
0100
01FF
FFFF
01FF
0000
0000
0000
0000
0000
0000
0000
0000
0000
ENDCHAR

STARTCHAR a6d7
ENCODING 42711
SWIDTH 960 0
DWIDTH 16 0
BBX 16 18 0 -3
BITMAP
0380
0380
0380
0380
0380
0380
FF80
FFFF
FF80
0000
0000
0000
0000
0000
0000
0000
0000
0000
ENDCHAR

STARTCHAR a6d8
ENCODING 42712
SWIDTH 960 0
DWIDTH 16 0
BBX 16 18 0 -3
BITMAP
0380
0380
0380
0380
0380
0380
03FF
FFFF
03FF
0000
0000
0000
0000
0000
0000
0000
0000
0000
ENDCHAR

STARTCHAR a6d9
ENCODING 42713
SWIDTH 960 0
DWIDTH 16 0
BBX 16 18 0 -3
BITMAP
0100
0100
0100
0100
0100
0100
FF00
FFFF
FF00
0100
0100
0100
0100
0100
0100
0100
0000
0000
ENDCHAR

STARTCHAR a6da
ENCODING 42714
SWIDTH 960 0
DWIDTH 16 0
BBX 16 18 0 -3
BITMAP
0100
0100
0100
0100
0100
0100
01FF
FFFF
01FF
0100
0100
0100
0100
0100
0100
0100
0000
0000
ENDCHAR

STARTCHAR a6db
ENCODING 42715
SWIDTH 960 0
DWIDTH 16 0
BBX 16 18 0 -3
BITMAP
0380
0380
0380
0380
0380
0380
0380
FFFF
0100
0100
0100
0100
0100
0100
0100
0100
0000
0000
ENDCHAR

STARTCHAR a6dc
ENCODING 42716
SWIDTH 960 0
DWIDTH 16 0
BBX 16 18 0 -3
BITMAP
0100
0100
0100
0100
0100
0100
0100
FFFF
0380
0380
0380
0380
0380
0380
0380
0380
0000
0000
ENDCHAR

STARTCHAR a6dd
ENCODING 42717
SWIDTH 960 0
DWIDTH 16 0
BBX 16 18 0 -3
BITMAP
0380
0380
0380
0380
0380
0380
FF80
FFFF
FF80
0100
0100
0100
0100
0100
0100
0100
0000
0000
ENDCHAR

STARTCHAR a6de
ENCODING 42718
SWIDTH 960 0
DWIDTH 16 0
BBX 16 18 0 -3
BITMAP
0380
0380
0380
0380
0380
0380
03FF
FFFF
03FF
0100
0100
0100
0100
0100
0100
0100
0000
0000
ENDCHAR

STARTCHAR a6df
ENCODING 42719
SWIDTH 960 0
DWIDTH 16 0
BBX 16 18 0 -3
BITMAP
0100
0100
0100
0100
0100
0100
FF80
FFFF
FF80
0380
0380
0380
0380
0380
0380
0380
0000
0000
ENDCHAR

STARTCHAR a6e0
ENCODING 42720
SWIDTH 960 0
DWIDTH 16 0
BBX 16 18 0 -3
BITMAP
0100
0100
0100
0100
0100
0100
03FF
FFFF
03FF
0380
0380
0380
0380
0380
0380
0380
0000
0000
ENDCHAR

STARTCHAR a6e1
ENCODING 42721
SWIDTH 960 0
DWIDTH 16 0
BBX 16 18 0 -3
BITMAP
0380
0380
0380
0380
0380
0380
FFFF
FFFF
FFFF
0100
0100
0100
0100
0100
0100
0100
0000
0000
ENDCHAR

STARTCHAR a6e2
ENCODING 42722
SWIDTH 960 0
DWIDTH 16 0
BBX 16 18 0 -3
BITMAP
0100
0100
0100
0100
0100
0100
FFFF
FFFF
FFFF
0380
0380
0380
0380
0380
0380
0380
0000
0000
ENDCHAR

STARTCHAR a6e3
ENCODING 42723
SWIDTH 960 0
DWIDTH 16 0
BBX 16 18 0 -3
BITMAP
0380
0380
0380
0380
0380
0380
FF80
FFFF
FF80
0380
0380
0380
0380
0380
0380
0380
0000
0000
ENDCHAR

STARTCHAR a6e4
ENCODING 42724
SWIDTH 960 0
DWIDTH 16 0
BBX 16 18 0 -3
BITMAP
0380
0380
0380
0380
0380
0380
03FF
FFFF
03FF
0380
0380
0380
0380
0380
0380
0380
0000
0000
ENDCHAR

STARTCHAR a7a1
ENCODING 42913
SWIDTH 960 0
DWIDTH 16 0
BBX 16 18 0 -3
BITMAP
0000
0000
0000
0000
000C
0012
0012
0012
0494
0494
0918
0910
1EE9
2006
0000
0000
0000
0000
ENDCHAR

STARTCHAR a7a2
ENCODING 42914
SWIDTH 960 0
DWIDTH 16 0
BBX 16 18 0 -3
BITMAP
0000
0000
0000
0000
000C
0012
0012
0012
3B14
2494
2498
2490
24A9
24C6
0000
0000
0000
0000
ENDCHAR

STARTCHAR a7a3
ENCODING 42915
SWIDTH 960 0
DWIDTH 16 0
BBX 16 18 0 -3
BITMAP
0000
0000
0000
0000
0118
0124
0124
0124
0F28
1128
1130
1120
1152
0F8C
0000
0000
0000
0000
ENDCHAR

STARTCHAR a7a4
ENCODING 42916
SWIDTH 960 0
DWIDTH 16 0
BBX 16 18 0 -3
BITMAP
0000
0000
0000
0000
0180
0240
0240
0240
0280
0280
0300
0200
0520
08C0
0000
0000
0000
0000
ENDCHAR

STARTCHAR a7a5
ENCODING 42917
SWIDTH 960 0
DWIDTH 16 0
BBX 16 18 0 -3
BITMAP
0000
0000
0000
0000
0018
0024
0024
2024
2228
2C28
3030
2820
2452
228C
0000
0000
0000
0000
ENDCHAR

STARTCHAR a7a6
ENCODING 42918
SWIDTH 960 0
DWIDTH 16 0
BBX 16 18 0 -3
BITMAP
0000
0000
0000
0000
0000
0000
0000
0000
0E1C
1122
2040
2040
1122
0E1C
0000
0000
0000
0000
ENDCHAR

STARTCHAR a7a7
ENCODING 42919
SWIDTH 960 0
DWIDTH 16 0
BBX 16 18 0 -3
BITMAP
0000
0000
0000
0000
000C
0002
000C
0002
69AC
5550
5550
5550
5550
5550
0000
0000
0000
0000
ENDCHAR

STARTCHAR a7a8
ENCODING 42920
SWIDTH 960 0
DWIDTH 16 0
BBX 16 18 0 -3
BITMAP
0000
0000
0000
0000
000C
0002
000C
0002
19AC
2550
4150
4150
2550
1950
0000
0000
0000
0000
ENDCHAR

STARTCHAR a7a9
ENCODING 42921
SWIDTH 960 0
DWIDTH 16 0
BBX 16 18 0 -3
BITMAP
0000
0000
0000
0000
0030
0008
0030
0008
1DB0
1240
1240
1240
1240
1240
0000
0000
0000
0000
ENDCHAR

STARTCHAR a7aa
ENCODING 42922
SWIDTH 960 0
DWIDTH 16 0
BBX 16 18 0 -3
BITMAP
0000
0000
0000
0000
000C
0002
000C
4002
45AC
5950
6150
5150
4950
4550
0000
0000
0000
0000
ENDCHAR

STARTCHAR a7ab
ENCODING 42923
SWIDTH 960 0
DWIDTH 16 0
BBX 16 18 0 -3
BITMAP
0000
0000
0000
0000
0000
0400
0A00
0800
1CD0
08A8
08A8
08A8
08A8
1CA8
0000
0000
0000
0000
ENDCHAR

STARTCHAR a7ac
ENCODING 42924
SWIDTH 960 0
DWIDTH 16 0
BBX 16 18 0 -3
BITMAP
0000
0000
0000
0000
0000
0000
0000
0000
39D8
2524
2524
2524
2524
2524
0000
0000
0000
0000
ENDCHAR

STARTCHAR a7ad
ENCODING 42925
SWIDTH 960 0
DWIDTH 16 0
BBX 16 18 0 -3
BITMAP
0000
0000
0000
0000
0000
0000
0000
0000
0934
092A
122A
122A
3DAA
402A
0000
0000
0000
0000
ENDCHAR

STARTCHAR a7ae
ENCODING 42926
SWIDTH 960 0
DWIDTH 16 0
BBX 16 18 0 -3
BITMAP
0000
0000
0000
0000
0000
0000
0000
0000
1A68
1554
1554
1554
1554
1554
0000
0000
0000
0000
ENDCHAR

STARTCHAR a7af
ENCODING 42927
SWIDTH 960 0
DWIDTH 16 0
BBX 16 18 0 -3
BITMAP
0000
0000
0000
0000
0000
0000
0000
0000
0CEC
1292
2092
2092
1292
0C92
0000
0000
0000
0000
ENDCHAR

STARTCHAR a7b0
ENCODING 42928
SWIDTH 960 0
DWIDTH 16 0
BBX 16 18 0 -3
BITMAP
0000
0000
0000
0000
0000
2000
2000
2200
246C
2892
3092
2892
2492
2292
0000
0000
0000
0000
ENDCHAR

STARTCHAR a7b1
ENCODING 42929
SWIDTH 960 0
DWIDTH 16 0
BBX 16 18 0 -3
BITMAP
0000
0000
0000
0000
000C
0002
0004
0008
69AE
5550
5550
5550
5550
5550
0000
0000
0000
0000
ENDCHAR

STARTCHAR a7b2
ENCODING 42930
SWIDTH 960 0
DWIDTH 16 0
BBX 16 18 0 -3
BITMAP
0000
0000
0000
0000
000C
0002
0004
0008
19AE
2550
4150
4150
2550
1950
0000
0000
0000
0000
ENDCHAR

STARTCHAR a7b3
ENCODING 42931
SWIDTH 960 0
DWIDTH 16 0
BBX 16 18 0 -3
BITMAP
0000
0000
0000
0000
0018
0004
0008
0010
0EDC
0920
0920
0920
0920
0920
0000
0000
0000
0000
ENDCHAR

STARTCHAR a7b4
ENCODING 42932
SWIDTH 960 0
DWIDTH 16 0
BBX 16 18 0 -3
BITMAP
0000
0000
0000
0000
000C
0002
0004
4008
45AE
5950
6150
5150
4950
4550
0000
0000
0000
0000
ENDCHAR

STARTCHAR a7b5
ENCODING 42933
SWIDTH 960 0
DWIDTH 16 0
BBX 16 18 0 -3
BITMAP
0000
0000
0000
0000
0000
0000
1000
1000
1060
1C90
1270
1290
1298
1260
0000
0000
0000
0000
ENDCHAR

STARTCHAR a7b6
ENCODING 42934
SWIDTH 960 0
DWIDTH 16 0
BBX 16 18 0 -3
BITMAP
0000
0000
0000
0000
0000
0000
0004
0918
0924
1218
1208
3D94
4022
001C
0000
0000
0000
0000
ENDCHAR

STARTCHAR a7b7
ENCODING 42935
SWIDTH 960 0
DWIDTH 16 0
BBX 16 18 0 -3
BITMAP
0000
0000
0000
0000
0000
0000
0008
1A30
1548
1530
1510
1528
1544
0038
0000
0000
0000
0000
ENDCHAR

STARTCHAR a7b8
ENCODING 42936
SWIDTH 960 0
DWIDTH 16 0
BBX 16 18 0 -3
BITMAP
0000
0000
0000
0000
0000
0000
1008
1130
1648
1830
1410
1228
1144
0038
0000
0000
0000
0000
ENDCHAR

STARTCHAR a7b9
ENCODING 42937
SWIDTH 960 0
DWIDTH 16 0
BBX 16 18 0 -3
BITMAP
0000
0000
0000
0000
0000
0000
0000
1020
1120
1670
1820
1420
1228
1110
0000
0000
0000
0000
ENDCHAR

STARTCHAR a7ba
ENCODING 42938
SWIDTH 960 0
DWIDTH 16 0
BBX 16 18 0 -3
BITMAP
0000
0000
0000
0000
0000
0000
000C
0004
18C4
2524
4024
41E4
2524
18DE
0000
0000
0000
0000
ENDCHAR

STARTCHAR a7bb
ENCODING 42939
SWIDTH 960 0
DWIDTH 16 0
BBX 16 18 0 -3
BITMAP
0000
0000
0000
0000
0000
0000
0006
4002
49B2
524A
640A
547A
4A4A
49B7
0000
0000
0000
0000
ENDCHAR

STARTCHAR a7bc
ENCODING 42940
SWIDTH 960 0
DWIDTH 16 0
BBX 16 18 0 -3
BITMAP
0000
0000
0000
0000
0000
0000
02F0
0288
0288
1EF0
2288
2288
2288
1EF0
0000
0000
0000
0000
ENDCHAR

STARTCHAR a7bd
ENCODING 42941
SWIDTH 960 0
DWIDTH 16 0
BBX 16 18 0 -3
BITMAP
0000
0000
0000
0000
0000
0000
0040
004C
6892
5490
550C
5502
5612
560C
0000
0000
0000
0000
ENDCHAR

STARTCHAR a7be
ENCODING 42942
SWIDTH 960 0
DWIDTH 16 0
BBX 16 18 0 -3
BITMAP
0040
0040
6880
548C
5502
5504
5608
566E
0090
0080
0060
0010
0090
0060
0000
0000
0000
0000
ENDCHAR

STARTCHAR a7bf
ENCODING 42943
SWIDTH 960 0
DWIDTH 16 0
BBX 16 18 0 -3
BITMAP
0000
0000
0000
0000
0000
0000
0E30
0948
0940
0930
0E08
0848
0830
0800
0000
0000
0000
0000
ENDCHAR

STARTCHAR a7c0
ENCODING 42944
SWIDTH 960 0
DWIDTH 16 0
BBX 16 18 0 -3
BITMAP
0000
0000
0000
0000
0000
0000
0000
1C30
1248
1240
1230
1208
1248
1230
0000
0000
0000
0000
ENDCHAR

STARTCHAR a7c1
ENCODING 42945
SWIDTH 960 0
DWIDTH 16 0
BBX 16 18 0 -3
BITMAP
0000
0000
0000
0000
0000
0000
0000
0018
0924
0920
1218
1204
3DA4
4018
0000
0000
0000
0000
ENDCHAR

STARTCHAR a7c2
ENCODING 42946
SWIDTH 960 0
DWIDTH 16 0
BBX 16 18 0 -3
BITMAP
0000
0000
0000
0000
0000
0000
0000
1A30
1548
1540
1530
1508
1548
1530
0000
0000
0000
0000
ENDCHAR

STARTCHAR a7c3
ENCODING 42947
SWIDTH 960 0
DWIDTH 16 0
BBX 16 18 0 -3
BITMAP
0000
0000
0000
0000
0000
0082
1C82
1244
1244
1228
1C28
1010
1000
1000
0000
0000
0000
0000
ENDCHAR

STARTCHAR a7c4
ENCODING 42948
SWIDTH 960 0
DWIDTH 16 0
BBX 16 18 0 -3
BITMAP
0000
0000
0000
0000
0000
0000
0000
0104
3904
2488
2488
2450
2450
2420
0000
0000
0000
0000
ENDCHAR

STARTCHAR a7c5
ENCODING 42949
SWIDTH 960 0
DWIDTH 16 0
BBX 16 18 0 -3
BITMAP
0000
0000
0000
0000
0000
0000
0041
0041
0922
0922
1214
1214
3D88
4000
0000
0000
0000
0000
ENDCHAR

STARTCHAR a7c6
ENCODING 42950
SWIDTH 960 0
DWIDTH 16 0
BBX 16 18 0 -3
BITMAP
0000
0000
0000
0000
0000
0000
0000
0082
3482
2A44
2A44
2A28
2A28
2A10
0000
0000
0000
0000
ENDCHAR

STARTCHAR a7c7
ENCODING 42951
SWIDTH 960 0
DWIDTH 16 0
BBX 16 18 0 -3
BITMAP
0000
0000
0000
0000
0000
0000
0000
2082
2282
2C44
3044
2828
2428
2210
0000
0000
0000
0000
ENDCHAR

STARTCHAR a7c8
ENCODING 42952
SWIDTH 960 0
DWIDTH 16 0
BBX 16 18 0 -3
BITMAP
0000
0000
0000
0000
0000
0000
0000
4141
6341
5522
4922
4114
4114
4108
0000
0000
0000
0000
ENDCHAR

STARTCHAR a7c9
ENCODING 42953
SWIDTH 960 0
DWIDTH 16 0
BBX 16 18 0 -3
BITMAP
0000
0000
0000
0020
0020
0050
3850
24F8
2488
2504
3B8E
2000
2000
2000
0000
0000
0000
0000
ENDCHAR

STARTCHAR a7ca
ENCODING 42954
SWIDTH 960 0
DWIDTH 16 0
BBX 16 18 0 -3
BITMAP
0000
0000
0000
0000
0000
0000
0010
0010
3828
2428
247C
2444
2482
25C7
0000
0000
0000
0000
ENDCHAR

STARTCHAR a7cb
ENCODING 42955
SWIDTH 960 0
DWIDTH 16 0
BBX 16 18 0 -3
BITMAP
0000
0000
0000
0000
0000
0000
0008
0008
0914
0914
123E
1222
3DC1
4041
0000
0000
0000
0000
ENDCHAR

STARTCHAR a7cc
ENCODING 42956
SWIDTH 960 0
DWIDTH 16 0
BBX 16 18 0 -3
BITMAP
0000
0000
0000
0000
0000
0000
0020
0020
6850
5450
54F8
5488
5504
578E
0000
0000
0000
0000
ENDCHAR

STARTCHAR a7cd
ENCODING 42957
SWIDTH 960 0
DWIDTH 16 0
BBX 16 18 0 -3
BITMAP
0000
0000
0000
0000
0000
0000
0020
4020
4450
5850
60F8
5088
4904
478E
0000
0000
0000
0000
ENDCHAR

STARTCHAR a7ce
ENCODING 42958
SWIDTH 960 0
DWIDTH 16 0
BBX 16 18 0 -3
BITMAP
0000
0000
0000
0000
0000
0222
7222
4A22
4954
4954
7154
4088
4088
4000
0000
0000
0000
0000
ENDCHAR

STARTCHAR a7cf
ENCODING 42959
SWIDTH 960 0
DWIDTH 16 0
BBX 16 18 0 -3
BITMAP
0000
0000
0000
0000
0000
0000
0222
0222
7222
4954
4954
4954
4888
4888
0000
0000
0000
0000
ENDCHAR

STARTCHAR a7d0
ENCODING 42960
SWIDTH 960 0
DWIDTH 16 0
BBX 16 18 0 -3
BITMAP
0000
0000
0000
0000
0000
0000
0111
0111
0111
12AA
24AA
24AA
3B44
4044
0000
0000
0000
0000
ENDCHAR

STARTCHAR a7d1
ENCODING 42961
SWIDTH 960 0
DWIDTH 16 0
BBX 16 18 0 -3
BITMAP
0000
0000
0000
0000
0000
0000
0111
0111
6911
54AA
54AA
54AA
5444
5444
0000
0000
0000
0000
ENDCHAR

STARTCHAR a7d2
ENCODING 42962
SWIDTH 960 0
DWIDTH 16 0
BBX 16 18 0 -3
BITMAP
0000
0000
0000
0000
0000
0000
4111
4511
4911
50AA
60AA
50AA
4844
4444
0000
0000
0000
0000
ENDCHAR

STARTCHAR a7d3
ENCODING 42963
SWIDTH 960 0
DWIDTH 16 0
BBX 16 18 0 -3
BITMAP
0000
0000
0000
0000
0000
0000
4511
6D11
5511
54AA
44AA
44AA
4444
4444
0000
0000
0000
0000
ENDCHAR

STARTCHAR a7d4
ENCODING 42964
SWIDTH 960 0
DWIDTH 16 0
BBX 16 18 0 -3
BITMAP
0000
0000
0000
0000
0000
3B80
1100
1100
1100
1F00
113C
1108
1110
3BBC
0000
0000
0000
0000
ENDCHAR

STARTCHAR a7d5
ENCODING 42965
SWIDTH 960 0
DWIDTH 16 0
BBX 16 18 0 -3
BITMAP
0000
0000
0000
0000
0000
0220
0220
4220
4220
4BEF
5221
6222
5224
4A2F
0000
0000
0000
0000
ENDCHAR

STARTCHAR a7d6
ENCODING 42966
SWIDTH 960 0
DWIDTH 16 0
BBX 16 18 0 -3
BITMAP
0000
0000
0000
0000
0000
0110
0110
4510
6D10
55FF
5511
4512
4514
451F
0000
0000
0000
0000
ENDCHAR

STARTCHAR a7d7
ENCODING 42967
SWIDTH 960 0
DWIDTH 16 0
BBX 16 18 0 -3
BITMAP
0000
0000
0000
0000
0000
0110
0110
1910
2510
41FF
7D11
4512
2514
191F
0000
0000
0000
0000
ENDCHAR

STARTCHAR a7d8
ENCODING 42968
SWIDTH 960 0
DWIDTH 16 0
BBX 16 18 0 -3
BITMAP
0000
0000
0000
0000
0000
0110
0110
7D10
1110
11FF
1111
1112
1114
111F
0000
0000
0000
0000
ENDCHAR

STARTCHAR a7d9
ENCODING 42969
SWIDTH 960 0
DWIDTH 16 0
BBX 16 18 0 -3
BITMAP
0000
0000
0000
0000
0000
01C0
0220
0410
0410
0410
0410
0220
1144
0F78
0000
0000
0000
0000
ENDCHAR

STARTCHAR a7da
ENCODING 42970
SWIDTH 960 0
DWIDTH 16 0
BBX 16 18 0 -3
BITMAP
0000
0000
0000
0000
0000
0070
4088
4504
4904
5104
6104
5088
4A52
45DC
0000
0000
0000
0000
ENDCHAR

STARTCHAR a7db
ENCODING 42971
SWIDTH 960 0
DWIDTH 16 0
BBX 16 18 0 -3
BITMAP
0000
0000
0000
0000
0000
0070
0088
4504
6D04
5504
5504
4488
4652
45DC
0000
0000
0000
0000
ENDCHAR

STARTCHAR a7dc
ENCODING 42972
SWIDTH 960 0
DWIDTH 16 0
BBX 16 18 0 -3
BITMAP
0000
0000
0000
00F8
0084
0090
38F0
2490
2480
2480
39C0
2000
2000
2000
0000
0000
0000
0000
ENDCHAR

STARTCHAR a7dd
ENCODING 42973
SWIDTH 960 0
DWIDTH 16 0
BBX 16 18 0 -3
BITMAP
0000
0000
0000
0000
0000
00F8
0084
0090
38F0
2490
2480
2480
25C0
2400
0000
0000
0000
0000
ENDCHAR

STARTCHAR a7de
ENCODING 42974
SWIDTH 960 0
DWIDTH 16 0
BBX 16 18 0 -3
BITMAP
0000
0000
0000
0000
0000
003E
0021
0024
093C
0924
1220
1220
3DF0
4000
0000
0000
0000
0000
ENDCHAR

STARTCHAR a7df
ENCODING 42975
SWIDTH 960 0
DWIDTH 16 0
BBX 16 18 0 -3
BITMAP
0000
0000
0000
0000
0002
0002
0002
6862
5492
550A
550A
5492
5462
0000
0000
0000
0000
0000
ENDCHAR

STARTCHAR a7e0
ENCODING 42976
SWIDTH 960 0
DWIDTH 16 0
BBX 16 18 0 -3
BITMAP
0000
0000
0000
0000
0000
0004
0004
0004
0604
093C
1044
1044
0944
063C
0000
0000
0000
0000
ENDCHAR

STARTCHAR a7e1
ENCODING 42977
SWIDTH 960 0
DWIDTH 16 0
BBX 16 18 0 -3
BITMAP
0000
0000
0000
0000
0000
0001
0001
7B81
4441
404F
43D1
4451
4451
43AF
0000
0000
0000
0000
ENDCHAR

STARTCHAR a7e2
ENCODING 42978
SWIDTH 960 0
DWIDTH 16 0
BBX 16 18 0 -3
BITMAP
0002
7382
484E
41D2
4252
41CE
0003
000C
0036
00C9
0308
0C06
3001
4009
0006
0000
0000
0000
ENDCHAR

STARTCHAR a7e3
ENCODING 42979
SWIDTH 960 0
DWIDTH 16 0
BBX 16 18 0 -3
BITMAP
0002
7382
484E
41D2
4252
41CF
000C
0030
00CC
0302
0CE4
310E
40C0
0020
01C0
0000
0000
0000
ENDCHAR

STARTCHAR a7e4
ENCODING 42980
SWIDTH 960 0
DWIDTH 16 0
BBX 16 18 0 -3
BITMAP
0000
0000
0000
0000
0000
0000
0000
1C78
2244
2040
1C40
0240
2240
1C40
0000
0000
0000
0000
ENDCHAR

STARTCHAR a7e5
ENCODING 42981
SWIDTH 960 0
DWIDTH 16 0
BBX 16 18 0 -3
BITMAP
0000
0000
0000
0000
0000
3C00
2200
2270
2288
3C08
2078
2088
2088
2074
0000
0000
0000
0000
ENDCHAR

STARTCHAR a7e6
ENCODING 42982
SWIDTH 960 0
DWIDTH 16 0
BBX 16 18 0 -3
BITMAP
0000
0000
0000
0000
0000
01C0
4120
452E
4931
51C1
610F
5111
4911
450F
0000
0000
0000
0000
ENDCHAR

STARTCHAR a7e7
ENCODING 42983
SWIDTH 960 0
DWIDTH 16 0
BBX 16 18 0 -3
BITMAP
0000
0000
0000
0000
0000
45C0
6D20
552E
5531
45C1
450F
4511
4511
450F
0000
0000
0000
0000
ENDCHAR

STARTCHAR a7e8
ENCODING 42984
SWIDTH 960 0
DWIDTH 16 0
BBX 16 18 0 -3
BITMAP
0000
0000
0000
0000
0000
19C0
2520
412E
4131
41C1
4D0F
4511
2511
190F
0000
0000
0000
0000
ENDCHAR

STARTCHAR a7e9
ENCODING 42985
SWIDTH 960 0
DWIDTH 16 0
BBX 16 18 0 -3
BITMAP
0000
0000
0000
0000
0000
0000
4450
4450
4450
2A9E
2A91
2A91
1111
111E
0000
0000
0000
0000
ENDCHAR

STARTCHAR a7ea
ENCODING 42986
SWIDTH 960 0
DWIDTH 16 0
BBX 16 18 0 -3
BITMAP
0000
0000
0000
0000
0000
3000
1000
1000
13B0
1248
1248
1248
1248
3A48
0000
0000
0000
0000
ENDCHAR

STARTCHAR a7eb
ENCODING 42987
SWIDTH 960 0
DWIDTH 16 0
BBX 16 18 0 -3
BITMAP
0000
0000
0000
0000
0000
3000
1000
118C
1088
1050
1020
1050
1088
398C
0000
0000
0000
0000
ENDCHAR

STARTCHAR a7ec
ENCODING 42988
SWIDTH 960 0
DWIDTH 16 0
BBX 16 18 0 -3
BITMAP
0000
0000
0000
0000
0000
1E00
1100
113C
1144
1E44
1144
113C
1104
1E04
0004
0000
0000
0000
ENDCHAR

STARTCHAR a7ed
ENCODING 42989
SWIDTH 960 0
DWIDTH 16 0
BBX 16 18 0 -3
BITMAP
0000
0000
0000
0000
0000
0000
0E00
1122
20A2
2014
2F88
2090
11A0
0E40
0000
0000
0000
0000
ENDCHAR

STARTCHAR a7ee
ENCODING 42990
SWIDTH 960 0
DWIDTH 16 0
BBX 16 18 0 -3
BITMAP
0000
0000
0000
0000
0000
3C00
4200
40C6
4044
3C28
0228
0210
4210
3C00
0000
0000
0000
0000
ENDCHAR

STARTCHAR a7ef
ENCODING 42991
SWIDTH 960 0
DWIDTH 16 0
BBX 16 18 0 -3
BITMAP
0000
0C00
1200
2003
200C
1230
0CC2
030C
0E52
328C
4304
028A
0251
000E
0000
0000
0000
0000
ENDCHAR

STARTCHAR a8a1
ENCODING 43169
SWIDTH 960 0
DWIDTH 16 0
BBX 16 18 0 -3
BITMAP
0000
0000
0000
03FC
0200
0500
0500
08FC
0F80
1040
1040
2020
203C
0000
0000
0000
0000
0000
ENDCHAR

STARTCHAR a8a2
ENCODING 43170
SWIDTH 960 0
DWIDTH 16 0
BBX 16 18 0 -3
BITMAP
0000
0000
0000
1F80
1060
1010
1008
7F08
1008
1008
1010
1060
1F80
0000
0000
0000
0000
0000
ENDCHAR

STARTCHAR a8a3
ENCODING 43171
SWIDTH 960 0
DWIDTH 16 0
BBX 16 18 0 -3
BITMAP
0000
0000
07C0
0820
0020
07E0
0820
0820
07F0
0000
0000
0000
3FFC
0000
0000
0000
0000
0000
ENDCHAR

STARTCHAR a8a4
ENCODING 43172
SWIDTH 960 0
DWIDTH 16 0
BBX 16 18 0 -3
BITMAP
0000
0000
0000
1C38
0810
3FFC
0810
0810
0FF0
0810
0810
0810
0838
1C38
0000
0000
0000
0000
ENDCHAR

STARTCHAR a8a6
ENCODING 43174
SWIDTH 960 0
DWIDTH 16 0
BBX 16 18 0 -3
BITMAP
0000
0000
0000
1C7C
0810
0810
0810
0810
0810
0810
0810
0810
1C90
0060
0000
0000
0000
0000
ENDCHAR

STARTCHAR a8a8
ENCODING 43176
SWIDTH 960 0
DWIDTH 16 0
BBX 16 18 0 -3
BITMAP
0000
0000
3800
1000
1000
1000
1008
101C
1008
1000
1000
1020
1FC0
0000
0000
0000
0000
0000
ENDCHAR

STARTCHAR a8a9
ENCODING 43177
SWIDTH 960 0
DWIDTH 16 0
BBX 16 18 0 -3
BITMAP
0000
0000
1C00
0800
0A00
0C00
1800
2800
4800
0800
0800
0810
0FE0
0000
0000
0000
0000
0000
ENDCHAR

STARTCHAR a8aa
ENCODING 43178
SWIDTH 960 0
DWIDTH 16 0
BBX 16 18 0 -3
BITMAP
0000
0000
0002
03E4
0C18
1014
2022
2042
2082
2102
2202
1404
0C18
13E0
2000
0000
0000
0000
ENDCHAR

STARTCHAR a8ab
ENCODING 43179
SWIDTH 960 0
DWIDTH 16 0
BBX 16 18 0 -3
BITMAP
0000
0000
0000
0000
1F00
20FC
4040
407C
4040
4040
20FC
1F00
0000
0000
0000
0000
0000
0000
ENDCHAR

STARTCHAR a8ac
ENCODING 43180
SWIDTH 960 0
DWIDTH 16 0
BBX 16 18 0 -3
BITMAP
0000
0000
0000
0000
03C0
0420
0810
0810
0420
03C0
0000
0000
1FF8
0000
0000
0000
0000
0000
ENDCHAR

STARTCHAR a8ad
ENCODING 43181
SWIDTH 960 0
DWIDTH 16 0
BBX 16 18 0 -3
BITMAP
0000
0000
1C00
0800
0FC0
0820
0810
0810
0810
0810
0820
0FC0
0800
1C00
0000
0000
0000
0000
ENDCHAR

STARTCHAR a8ae
ENCODING 43182
SWIDTH 960 0
DWIDTH 16 0
BBX 16 18 0 -3
BITMAP
0000
0000
0FF8
1084
0080
0080
0080
0FF8
0080
0080
0080
0080
0080
0000
0000
0000
0000
0000
ENDCHAR

STARTCHAR a8af
ENCODING 43183
SWIDTH 960 0
DWIDTH 16 0
BBX 16 18 0 -3
BITMAP
0000
0000
1000
1000
17C0
1820
1010
1010
1010
1010
1010
1020
13C0
0000
0000
0000
0000
0000
ENDCHAR

STARTCHAR a8b1
ENCODING 43185
SWIDTH 960 0
DWIDTH 16 0
BBX 16 18 0 -3
BITMAP
0000
0000
0000
03E0
0C18
1004
1004
27F2
2012
2012
2012
1014
1004
0C18
03E0
0000
0000
0000
ENDCHAR

STARTCHAR a8b2
ENCODING 43186
SWIDTH 960 0
DWIDTH 16 0
BBX 16 18 0 -3
BITMAP
0000
0000
0000
03E0
0C18
1004
1004
2202
2202
2202
2202
13F4
1004
0C18
03E0
0000
0000
0000
ENDCHAR

STARTCHAR a8b3
ENCODING 43187
SWIDTH 960 0
DWIDTH 16 0
BBX 16 18 0 -3
BITMAP
0000
0000
0000
03E0
0C18
1004
1004
27F2
2402
2402
2402
17F4
1004
0C18
03E0
0000
0000
0000
ENDCHAR

STARTCHAR a8b4
ENCODING 43188
SWIDTH 960 0
DWIDTH 16 0
BBX 16 18 0 -3
BITMAP
0000
0000
0000
03E0
0C18
1004
1004
23F2
2012
23F2
2202
13F4
1004
0C18
03E0
0000
0000
0000
ENDCHAR

STARTCHAR a8b5
ENCODING 43189
SWIDTH 960 0
DWIDTH 16 0
BBX 16 18 0 -3
BITMAP
0000
0000
0000
03E0
0C18
1004
1004
27F2
2412
2412
2412
17F4
1004
0C18
03E0
0000
0000
0000
ENDCHAR

STARTCHAR a8b6
ENCODING 43190
SWIDTH 960 0
DWIDTH 16 0
BBX 16 18 0 -3
BITMAP
0000
0000
0000
03E0
0C18
1004
1414
2412
27F2
2412
2412
17F4
1004
0C18
03E0
0000
0000
0000
ENDCHAR

STARTCHAR a8b7
ENCODING 43191
SWIDTH 960 0
DWIDTH 16 0
BBX 16 18 0 -3
BITMAP
0000
0000
0000
03E0
0C18
1004
1084
2082
2082
2142
2222
1414
1004
0C18
03E0
0000
0000
0000
ENDCHAR

STARTCHAR a8b8
ENCODING 43192
SWIDTH 960 0
DWIDTH 16 0
BBX 16 18 0 -3
BITMAP
0000
0000
0000
03E0
0C18
1004
11C4
2222
2412
2412
2412
1224
11C4
0C18
03E0
0000
0000
0000
ENDCHAR

STARTCHAR a8b9
ENCODING 43193
SWIDTH 960 0
DWIDTH 16 0
BBX 16 18 0 -3
BITMAP
0000
0000
0000
03E0
0C18
1004
17F4
2082
2082
2142
2222
1414
1004
0C18
03E0
0000
0000
0000
ENDCHAR

STARTCHAR a8ba
ENCODING 43194
SWIDTH 960 0
DWIDTH 16 0
BBX 16 18 0 -3
BITMAP
0000
0000
0000
03E0
0C18
11C4
1004
23E2
2082
2082
2142
1224
1004
0C18
03E0
0000
0000
0000
ENDCHAR

STARTCHAR a8bb
ENCODING 43195
SWIDTH 960 0
DWIDTH 16 0
BBX 16 18 0 -3
BITMAP
0000
0000
0000
03E0
0C18
1004
13F4
2012
2012
23F2
2012
1014
1004
0C18
03E0
0000
0000
0000
ENDCHAR

STARTCHAR a8bc
ENCODING 43196
SWIDTH 960 0
DWIDTH 16 0
BBX 16 18 0 -3
BITMAP
0000
0000
0000
03E0
0C18
1004
1004
23F2
2202
23F2
2202
13F4
1004
0C18
03E0
0000
0000
0000
ENDCHAR

STARTCHAR a8bd
ENCODING 43197
SWIDTH 960 0
DWIDTH 16 0
BBX 16 18 0 -3
BITMAP
0000
0000
0000
03E0
0C18
1004
1004
27F2
2222
2222
2222
17F4
1004
0C18
03E0
0000
0000
0000
ENDCHAR

STARTCHAR a8be
ENCODING 43198
SWIDTH 960 0
DWIDTH 16 0
BBX 16 18 0 -3
BITMAP
0000
0000
0000
03E0
0C18
13C4
1004
27E2
2002
23C2
2422
1424
13C4
0C18
03E0
0000
0000
0000
ENDCHAR

STARTCHAR a8bf
ENCODING 43199
SWIDTH 960 0
DWIDTH 16 0
BBX 16 18 0 -3
BITMAP
0000
0000
0000
03E0
0C18
1024
1024
27A2
20BA
2122
2222
1424
1024
0C18
03E0
0000
0000
0000
ENDCHAR

STARTCHAR a8c0
ENCODING 43200
SWIDTH 960 0
DWIDTH 16 0
BBX 16 18 0 -3
BITMAP
0000
0000
0000
03E0
0C18
1024
1024
2422
2422
243A
27E2
1024
1024
0C18
03E0
0000
0000
0000
ENDCHAR

STARTCHAR a8c1
ENCODING 43201
SWIDTH 960 0
DWIDTH 16 0
BBX 16 18 0 -3
BITMAP
0000
0000
0000
03E0
0C18
1024
1024
27A2
2422
243A
27A2
1024
1024
0C18
03E0
0000
0000
0000
ENDCHAR

STARTCHAR a8c2
ENCODING 43202
SWIDTH 960 0
DWIDTH 16 0
BBX 16 18 0 -3
BITMAP
0000
0000
0000
03E0
0C18
1024
17A4
20A2
27BA
2422
27A2
1024
1024
0C18
03E0
0000
0000
0000
ENDCHAR

STARTCHAR a8c3
ENCODING 43203
SWIDTH 960 0
DWIDTH 16 0
BBX 16 18 0 -3
BITMAP
0000
0000
0000
03E0
0C18
1024
17A4
24A2
24BA
24A2
27A2
1024
1024
0C18
03E0
0000
0000
0000
ENDCHAR

STARTCHAR a8c4
ENCODING 43204
SWIDTH 960 0
DWIDTH 16 0
BBX 16 18 0 -3
BITMAP
0000
0000
0000
03E0
0C18
1024
14A4
24A2
27BA
24A2
27A2
1024
1024
0C18
03E0
0000
0000
0000
ENDCHAR

STARTCHAR a8c5
ENCODING 43205
SWIDTH 960 0
DWIDTH 16 0
BBX 16 18 0 -3
BITMAP
0000
0000
0000
03E0
0C18
1024
1124
2122
213A
22A2
2462
1024
1024
0C18
03E0
0000
0000
0000
ENDCHAR

STARTCHAR a8c6
ENCODING 43206
SWIDTH 960 0
DWIDTH 16 0
BBX 16 18 0 -3
BITMAP
0000
0000
0000
03E0
0C18
1024
1324
24A2
24BA
24A2
2322
1024
1024
0C18
03E0
0000
0000
0000
ENDCHAR

STARTCHAR a8c7
ENCODING 43207
SWIDTH 960 0
DWIDTH 16 0
BBX 16 18 0 -3
BITMAP
0000
0000
0000
03E0
0C18
1024
17E4
2122
213A
22A2
2462
1024
1024
0C18
03E0
0000
0000
0000
ENDCHAR

STARTCHAR a8c8
ENCODING 43208
SWIDTH 960 0
DWIDTH 16 0
BBX 16 18 0 -3
BITMAP
0000
0000
0000
03E0
0C18
13A4
1024
27E2
213A
2122
22A2
1464
1024
0C18
03E0
0000
0000
0000
ENDCHAR

STARTCHAR a8c9
ENCODING 43209
SWIDTH 960 0
DWIDTH 16 0
BBX 16 18 0 -3
BITMAP
0000
0000
0000
03E0
0C18
1024
17A4
20A2
27BA
20A2
2122
1224
1024
0C18
03E0
0000
0000
0000
ENDCHAR

STARTCHAR a8ca
ENCODING 43210
SWIDTH 960 0
DWIDTH 16 0
BBX 16 18 0 -3
BITMAP
0000
0000
0000
03E0
0C18
1024
17A4
2422
27BA
2422
27A2
1024
1024
0C18
03E0
0000
0000
0000
ENDCHAR

STARTCHAR a8cb
ENCODING 43211
SWIDTH 960 0
DWIDTH 16 0
BBX 16 18 0 -3
BITMAP
0000
0000
0000
03E0
0C18
1024
17E4
22A2
22BA
22A2
27E2
1024
1024
0C18
03E0
0000
0000
0000
ENDCHAR

STARTCHAR a8cc
ENCODING 43212
SWIDTH 960 0
DWIDTH 16 0
BBX 16 18 0 -3
BITMAP
0000
0000
0000
03E0
0C18
1324
1024
27A2
203A
2322
24A2
1324
1024
0C18
03E0
0000
0000
0000
ENDCHAR

STARTCHAR a8cd
ENCODING 43213
SWIDTH 960 0
DWIDTH 16 0
BBX 16 18 0 -3
BITMAP
0000
0000
0000
03E0
0C18
1004
13C4
2022
21E2
2222
2222
11D4
1004
0C18
03E0
0000
0000
0000
ENDCHAR

STARTCHAR a8ce
ENCODING 43214
SWIDTH 960 0
DWIDTH 16 0
BBX 16 18 0 -3
BITMAP
0000
0000
0000
03E0
0C18
1204
1204
2202
23C2
2222
2222
1224
13C4
0C18
03E0
0000
0000
0000
ENDCHAR

STARTCHAR a8cf
ENCODING 43215
SWIDTH 960 0
DWIDTH 16 0
BBX 16 18 0 -3
BITMAP
0000
0000
0000
03E0
0C18
1004
11C4
2222
2402
2402
2402
1224
11C4
0C18
03E0
0000
0000
0000
ENDCHAR

STARTCHAR a8d0
ENCODING 43216
SWIDTH 960 0
DWIDTH 16 0
BBX 16 18 0 -3
BITMAP
0000
0000
0000
03E0
0C18
1024
1024
2022
21E2
2222
2222
1224
11E4
0C18
03E0
0000
0000
0000
ENDCHAR

STARTCHAR a8d1
ENCODING 43217
SWIDTH 960 0
DWIDTH 16 0
BBX 16 18 0 -3
BITMAP
0000
0000
0000
03E0
0C18
1004
11C4
2222
23E2
2202
2222
11C4
1004
0C18
03E0
0000
0000
0000
ENDCHAR

STARTCHAR a8d2
ENCODING 43218
SWIDTH 960 0
DWIDTH 16 0
BBX 16 18 0 -3
BITMAP
0000
0000
0000
03E0
0C18
1064
1084
2082
21E2
2082
2082
1084
1084
0C18
03E0
0000
0000
0000
ENDCHAR

STARTCHAR a8d3
ENCODING 43219
SWIDTH 960 0
DWIDTH 16 0
BBX 16 18 0 -3
BITMAP
0000
0000
0000
03E0
0C98
11C4
1224
21C2
2082
21C2
2222
1224
11C4
0C18
03E0
0000
0000
0000
ENDCHAR

STARTCHAR a8d4
ENCODING 43220
SWIDTH 960 0
DWIDTH 16 0
BBX 16 18 0 -3
BITMAP
0000
0000
0000
03E0
0C18
1204
1204
2202
23C2
2222
2222
1224
1224
0C18
03E0
0000
0000
0000
ENDCHAR

STARTCHAR a8d5
ENCODING 43221
SWIDTH 960 0
DWIDTH 16 0
BBX 16 18 0 -3
BITMAP
0000
0000
0000
03E0
0C18
1084
1084
2002
2082
2082
2082
1084
1084
0C18
03E0
0000
0000
0000
ENDCHAR

STARTCHAR a8d6
ENCODING 43222
SWIDTH 960 0
DWIDTH 16 0
BBX 16 18 0 -3
BITMAP
0000
0000
0000
03E0
0C18
1084
1084
2002
2082
2082
2082
1284
1104
0C18
03E0
0000
0000
0000
ENDCHAR

STARTCHAR a8d7
ENCODING 43223
SWIDTH 960 0
DWIDTH 16 0
BBX 16 18 0 -3
BITMAP
0000
0000
0000
03E0
0C18
1204
1244
2282
2302
2282
2242
1224
1004
0C18
03E0
0000
0000
0000
ENDCHAR

STARTCHAR a8d8
ENCODING 43224
SWIDTH 960 0
DWIDTH 16 0
BBX 16 18 0 -3
BITMAP
0000
0000
0000
03E0
0C18
1184
1084
2082
2082
2082
2082
1084
11C4
0C18
03E0
0000
0000
0000
ENDCHAR

STARTCHAR a8d9
ENCODING 43225
SWIDTH 960 0
DWIDTH 16 0
BBX 16 18 0 -3
BITMAP
0000
0000
0000
03E0
0C18
1004
1764
2492
2492
2492
2492
1494
1004
0C18
03E0
0000
0000
0000
ENDCHAR

STARTCHAR a8da
ENCODING 43226
SWIDTH 960 0
DWIDTH 16 0
BBX 16 18 0 -3
BITMAP
0000
0000
0000
03E0
0C18
1004
1004
23C2
2122
2122
2122
1124
1124
0C18
03E0
0000
0000
0000
ENDCHAR

STARTCHAR a8db
ENCODING 43227
SWIDTH 960 0
DWIDTH 16 0
BBX 16 18 0 -3
BITMAP
0000
0000
0000
03E0
0C18
1004
11C4
2222
2412
2412
2222
11C4
1004
0C18
03E0
0000
0000
0000
ENDCHAR

STARTCHAR a8dc
ENCODING 43228
SWIDTH 960 0
DWIDTH 16 0
BBX 16 18 0 -3
BITMAP
0000
0000
0000
03E0
0C18
1004
13C4
2222
2222
2222
23C2
1204
1204
0C18
03E0
0000
0000
0000
ENDCHAR

STARTCHAR a8dd
ENCODING 43229
SWIDTH 960 0
DWIDTH 16 0
BBX 16 18 0 -3
BITMAP
0000
0000
0000
03E0
0C18
1004
11E4
2222
2222
2222
21E2
1024
1024
0C18
03E0
0000
0000
0000
ENDCHAR

STARTCHAR a8de
ENCODING 43230
SWIDTH 960 0
DWIDTH 16 0
BBX 16 18 0 -3
BITMAP
0000
0000
0000
03E0
0C18
1004
1004
2162
2192
2102
2102
1104
1104
0C18
03E0
0000
0000
0000
ENDCHAR

STARTCHAR a8df
ENCODING 43231
SWIDTH 960 0
DWIDTH 16 0
BBX 16 18 0 -3
BITMAP
0000
0000
0000
03E0
0C18
1024
11E4
2222
2202
21C2
2022
1224
13C4
0C18
03E0
0000
0000
0000
ENDCHAR

STARTCHAR a8e0
ENCODING 43232
SWIDTH 960 0
DWIDTH 16 0
BBX 16 18 0 -3
BITMAP
0000
0000
0000
03E0
0C18
1004
1104
2102
23C2
2102
2102
1124
10C4
0C18
03E0
0000
0000
0000
ENDCHAR

STARTCHAR a8e1
ENCODING 43233
SWIDTH 960 0
DWIDTH 16 0
BBX 16 18 0 -3
BITMAP
0000
0000
0000
03E0
0C18
1004
1004
2442
2442
2442
2442
1444
13A4
0C18
03E0
0000
0000
0000
ENDCHAR

STARTCHAR a8e2
ENCODING 43234
SWIDTH 960 0
DWIDTH 16 0
BBX 16 18 0 -3
BITMAP
0000
0000
0000
03E0
0C18
1004
1774
2222
2222
2142
2142
1084
1084
0C18
03E0
0000
0000
0000
ENDCHAR

STARTCHAR a8e3
ENCODING 43235
SWIDTH 960 0
DWIDTH 16 0
BBX 16 18 0 -3
BITMAP
0000
0000
0000
03E0
0C18
1004
1494
2492
2492
2222
2222
1224
1004
0C18
03E0
0000
0000
0000
ENDCHAR

STARTCHAR a8e4
ENCODING 43236
SWIDTH 960 0
DWIDTH 16 0
BBX 16 18 0 -3
BITMAP
0000
0000
0000
03E0
0C18
1004
1224
2142
2082
2142
2222
1414
1004
0C18
03E0
0000
0000
0000
ENDCHAR

STARTCHAR a8e5
ENCODING 43237
SWIDTH 960 0
DWIDTH 16 0
BBX 16 18 0 -3
BITMAP
0000
0000
0000
03E0
0C18
1004
1334
2122
20A2
2042
2042
1184
1004
0C18
03E0
0000
0000
0000
ENDCHAR

STARTCHAR a8e6
ENCODING 43238
SWIDTH 960 0
DWIDTH 16 0
BBX 16 18 0 -3
BITMAP
0000
0000
0000
03E0
0C18
1004
13F4
2222
2042
2082
2112
13F4
1004
0C18
03E0
0000
0000
0000
ENDCHAR

STARTCHAR a8e7
ENCODING 43239
SWIDTH 960 0
DWIDTH 16 0
BBX 16 18 0 -3
BITMAP
0000
0000
0000
03E0
0C18
1004
1084
2182
2082
2082
2082
1084
11C4
0C18
03E0
0000
0000
0000
ENDCHAR

STARTCHAR a8e8
ENCODING 43240
SWIDTH 960 0
DWIDTH 16 0
BBX 16 18 0 -3
BITMAP
0000
0000
0000
03E0
0C18
1004
11C4
2222
2222
2042
2082
1104
13E4
0C18
03E0
0000
0000
0000
ENDCHAR

STARTCHAR a8e9
ENCODING 43241
SWIDTH 960 0
DWIDTH 16 0
BBX 16 18 0 -3
BITMAP
0000
0000
0000
03E0
0C18
11C4
1224
2022
21C2
2022
2022
1224
11C4
0C18
03E0
0000
0000
0000
ENDCHAR

STARTCHAR a8ea
ENCODING 43242
SWIDTH 960 0
DWIDTH 16 0
BBX 16 18 0 -3
BITMAP
0000
0000
0000
03E0
0C18
1004
1044
20C2
2142
2242
27F2
1044
1044
0C18
03E0
0000
0000
0000
ENDCHAR

STARTCHAR a8eb
ENCODING 43243
SWIDTH 960 0
DWIDTH 16 0
BBX 16 18 0 -3
BITMAP
0000
0000
0000
03E0
0C18
1004
11E4
2102
2102
21C2
2022
1024
11C4
0C18
03E0
0000
0000
0000
ENDCHAR

STARTCHAR a8ec
ENCODING 43244
SWIDTH 960 0
DWIDTH 16 0
BBX 16 18 0 -3
BITMAP
0000
0000
0000
03E0
0C18
11C4
1224
2202
23C2
2222
2222
1224
11C4
0C18
03E0
0000
0000
0000
ENDCHAR

STARTCHAR a8ed
ENCODING 43245
SWIDTH 960 0
DWIDTH 16 0
BBX 16 18 0 -3
BITMAP
0000
0000
0000
03E0
0C18
1004
13E4
2222
2042
2082
2082
1084
1084
0C18
03E0
0000
0000
0000
ENDCHAR

STARTCHAR a8ee
ENCODING 43246
SWIDTH 960 0
DWIDTH 16 0
BBX 16 18 0 -3
BITMAP
0000
0000
0000
03E0
0C18
11C4
1224
2222
21C2
2222
2222
1224
11C4
0C18
03E0
0000
0000
0000
ENDCHAR

STARTCHAR a8ef
ENCODING 43247
SWIDTH 960 0
DWIDTH 16 0
BBX 16 18 0 -3
BITMAP
0000
0000
0000
03E0
0C18
11C4
1224
2222
2222
21E2
2022
1224
11C4
0C18
03E0
0000
0000
0000
ENDCHAR

STARTCHAR a8f0
ENCODING 43248
SWIDTH 960 0
DWIDTH 16 0
BBX 16 18 0 -3
BITMAP
0000
0000
0000
03E0
0C18
1004
1264
2692
2292
2292
2292
1294
1264
0C18
03E0
0000
0000
0000
ENDCHAR

STARTCHAR a8f1
ENCODING 43249
SWIDTH 960 0
DWIDTH 16 0
BBX 16 18 0 -3
BITMAP
0000
0000
0000
03E0
0C18
1004
1224
2662
2222
2222
2222
1224
1374
0C18
03E0
0000
0000
0000
ENDCHAR

STARTCHAR a8f2
ENCODING 43250
SWIDTH 960 0
DWIDTH 16 0
BBX 16 18 0 -3
BITMAP
0000
0000
0000
03E0
0C18
1004
1264
2692
2292
2222
2242
1284
12F4
0C18
03E0
0000
0000
0000
ENDCHAR

STARTCHAR a8f3
ENCODING 43251
SWIDTH 960 0
DWIDTH 16 0
BBX 16 18 0 -3
BITMAP
0000
0000
0000
03E0
0C18
1004
1264
2692
2212
2262
2212
1294
1364
0C18
03E0
0000
0000
0000
ENDCHAR

STARTCHAR a8f4
ENCODING 43252
SWIDTH 960 0
DWIDTH 16 0
BBX 16 18 0 -3
BITMAP
0000
0000
0000
03E0
0C18
1004
1214
2622
2252
2292
22FA
1214
1004
0C18
03E0
0000
0000
0000
ENDCHAR

STARTCHAR a8f5
ENCODING 43253
SWIDTH 960 0
DWIDTH 16 0
BBX 16 18 0 -3
BITMAP
0000
0000
0000
03E0
0C18
1004
12F4
2682
22E2
2292
2212
1294
1264
0C18
03E0
0000
0000
0000
ENDCHAR

STARTCHAR a8f6
ENCODING 43254
SWIDTH 960 0
DWIDTH 16 0
BBX 16 18 0 -3
BITMAP
0000
0000
0000
0020
0020
1040
305C
10A2
10A2
1102
1104
1208
1210
143E
0400
0000
0000
0000
ENDCHAR

STARTCHAR a8f7
ENCODING 43255
SWIDTH 960 0
DWIDTH 16 0
BBX 16 18 0 -3
BITMAP
0000
0000
0000
0000
0000
0040
105C
30A2
1082
1102
111C
1202
1202
1422
141C
0000
0000
0000
ENDCHAR

STARTCHAR a8f8
ENCODING 43256
SWIDTH 960 0
DWIDTH 16 0
BBX 16 18 0 -3
BITMAP
0000
0000
0000
0020
0020
384E
4451
4491
0481
090E
1101
2201
4211
7C0E
0400
0000
0000
0000
ENDCHAR

STARTCHAR a8f9
ENCODING 43257
SWIDTH 960 0
DWIDTH 16 0
BBX 16 18 0 -3
BITMAP
0000
0000
0000
0020
0020
1048
3048
1090
1094
1124
1124
1244
127E
1404
0400
0000
0000
0000
ENDCHAR

STARTCHAR a8fa
ENCODING 43258
SWIDTH 960 0
DWIDTH 16 0
BBX 16 18 0 -3
BITMAP
0000
0000
0000
0020
0020
3848
4448
0490
3894
0524
4524
3A7E
0204
0404
0400
0000
0000
0000
ENDCHAR

STARTCHAR a8fb
ENCODING 43259
SWIDTH 960 0
DWIDTH 16 0
BBX 16 18 0 -3
BITMAP
0000
0000
0000
0020
0020
104C
1052
3092
108C
1112
1121
1221
1212
140C
0400
0000
0000
0000
ENDCHAR

STARTCHAR a8fc
ENCODING 43260
SWIDTH 960 0
DWIDTH 16 0
BBX 16 18 0 -3
BITMAP
0000
0000
0000
0020
0020
384C
4452
0492
388C
0512
4521
3A21
021E
0400
0400
0000
0000
0000
ENDCHAR

STARTCHAR a8fd
ENCODING 43261
SWIDTH 960 0
DWIDTH 16 0
BBX 16 18 0 -3
BITMAP
0000
0000
0000
0020
0020
7C4C
4052
4092
788C
0512
0521
0621
4A12
340C
0400
0000
0000
0000
ENDCHAR

STARTCHAR a8fe
ENCODING 43262
SWIDTH 960 0
DWIDTH 16 0
BBX 16 18 0 -3
BITMAP
0000
0000
0000
0020
0020
7C4C
0452
0492
088C
0912
1121
1221
2212
240C
0400
0000
0000
0000
ENDCHAR

STARTCHAR a9a1
ENCODING 43425
SWIDTH 960 0
DWIDTH 16 0
BBX 16 18 0 -3
BITMAP
0000
0000
0000
0000
0000
0000
0000
0770
0888
0088
07F8
0880
0888
0770
0000
0000
0000
0000
ENDCHAR

STARTCHAR a9a2
ENCODING 43426
SWIDTH 960 0
DWIDTH 16 0
BBX 16 18 0 -3
BITMAP
0000
0000
0000
0000
0000
0000
0040
0040
03E0
03C0
0440
0440
0440
03C0
0000
0000
0000
0000
ENDCHAR

STARTCHAR a9a3
ENCODING 43427
SWIDTH 960 0
DWIDTH 16 0
BBX 16 18 0 -3
BITMAP
0000
0000
0000
0000
0000
0340
0080
0140
0020
0020
07A0
0420
0240
0180
0000
0000
0000
0000
ENDCHAR

STARTCHAR a9a4
ENCODING 43428
SWIDTH 960 0
DWIDTH 16 0
BBX 16 18 0 -3
BITMAP
0000
0000
0000
0000
0000
0000
0200
0200
07C0
03C0
0220
0220
0220
0220
0000
0000
0000
0000
ENDCHAR

STARTCHAR a9a5
ENCODING 43429
SWIDTH 960 0
DWIDTH 16 0
BBX 16 18 0 -3
BITMAP
0000
0000
0000
0000
0000
0080
0000
0080
0080
0080
0080
0080
0080
0080
0000
0000
0000
0000
ENDCHAR

STARTCHAR a9a6
ENCODING 43430
SWIDTH 960 0
DWIDTH 16 0
BBX 16 18 0 -3
BITMAP
0000
0000
0000
0000
0000
0420
0000
0420
0420
0420
0420
0420
0420
04A0
0040
0000
0000
0000
ENDCHAR

STARTCHAR a9a7
ENCODING 43431
SWIDTH 960 0
DWIDTH 16 0
BBX 16 18 0 -3
BITMAP
0000
0000
0000
0000
0000
0000
0E10
0460
0580
0600
0580
0440
0420
0E10
0000
0000
0000
0000
ENDCHAR

STARTCHAR a9a8
ENCODING 43432
SWIDTH 960 0
DWIDTH 16 0
BBX 16 18 0 -3
BITMAP
0000
0000
0000
0000
0000
0600
0200
0200
0200
0220
0200
0200
0200
0700
0000
0000
0000
0000
ENDCHAR

STARTCHAR a9a9
ENCODING 43433
SWIDTH 960 0
DWIDTH 16 0
BBX 16 18 0 -3
BITMAP
0000
0000
0000
0000
0000
0180
0080
00A0
00C0
0080
0180
0280
0080
01C0
0000
0000
0000
0000
ENDCHAR

STARTCHAR a9aa
ENCODING 43434
SWIDTH 960 0
DWIDTH 16 0
BBX 16 18 0 -3
BITMAP
0000
0000
0000
0000
0000
0000
0008
03F0
0430
0848
0888
0510
03E0
0400
0800
0000
0000
0000
ENDCHAR

STARTCHAR a9ab
ENCODING 43435
SWIDTH 960 0
DWIDTH 16 0
BBX 16 18 0 -3
BITMAP
0000
0000
0000
0000
0000
0000
0000
0630
0948
1084
10FC
1080
0944
0638
0000
0000
0000
0000
ENDCHAR

STARTCHAR a9ac
ENCODING 43436
SWIDTH 960 0
DWIDTH 16 0
BBX 16 18 0 -3
BITMAP
0000
0000
0180
0240
0240
0240
0280
0280
0280
0240
0220
0220
0220
03C0
0200
0000
0000
0000
ENDCHAR

STARTCHAR a9ad
ENCODING 43437
SWIDTH 960 0
DWIDTH 16 0
BBX 16 18 0 -3
BITMAP
0000
0000
0000
0000
0000
0E00
0400
07C0
0420
0410
0410
0420
07C0
0E00
0000
0000
0000
0000
ENDCHAR

STARTCHAR a9ae
ENCODING 43438
SWIDTH 960 0
DWIDTH 16 0
BBX 16 18 0 -3
BITMAP
0000
0000
0000
0100
01C0
0700
0100
07C0
0100
0100
0100
0100
0120
00C0
0000
0000
0000
0000
ENDCHAR

STARTCHAR a9af
ENCODING 43439
SWIDTH 960 0
DWIDTH 16 0
BBX 16 18 0 -3
BITMAP
0000
0000
0000
0000
0BC0
0420
0420
0420
0420
0420
0420
0020
0020
01C0
0000
0000
0000
0000
ENDCHAR

STARTCHAR a9b0
ENCODING 43440
SWIDTH 960 0
DWIDTH 16 0
BBX 16 18 0 -3
BITMAP
0000
0000
0000
0000
0000
0000
0000
0000
05C0
0220
0220
0220
0220
0220
0220
0000
0000
0000
ENDCHAR

STARTCHAR a9b1
ENCODING 43441
SWIDTH 960 0
DWIDTH 16 0
BBX 16 18 0 -3
BITMAP
0000
0000
0000
1010
2008
2FE8
4024
4024
4024
4024
4024
2028
2008
1010
0000
0000
0000
0000
ENDCHAR

STARTCHAR a9b2
ENCODING 43442
SWIDTH 960 0
DWIDTH 16 0
BBX 16 18 0 -3
BITMAP
0000
0000
0000
1010
2008
2808
4804
4804
4804
4804
4804
2FE8
2008
1010
0000
0000
0000
0000
ENDCHAR

STARTCHAR a9b3
ENCODING 43443
SWIDTH 960 0
DWIDTH 16 0
BBX 16 18 0 -3
BITMAP
0000
0000
0000
1010
2008
2FE8
4804
4804
4804
4804
4804
2FE8
2008
1010
0000
0000
0000
0000
ENDCHAR

STARTCHAR a9b4
ENCODING 43444
SWIDTH 960 0
DWIDTH 16 0
BBX 16 18 0 -3
BITMAP
0000
0000
0000
1010
2008
2FE8
4024
4024
4FE4
4804
4804
2FE8
2008
1010
0000
0000
0000
0000
ENDCHAR

STARTCHAR a9b5
ENCODING 43445
SWIDTH 960 0
DWIDTH 16 0
BBX 16 18 0 -3
BITMAP
0000
0000
0000
1010
2008
2FE8
4824
4824
4824
4824
4824
2FE8
2008
1010
0000
0000
0000
0000
ENDCHAR

STARTCHAR a9b6
ENCODING 43446
SWIDTH 960 0
DWIDTH 16 0
BBX 16 18 0 -3
BITMAP
0000
0000
0000
1010
2008
2828
4824
4824
4FE4
4824
4824
2FE8
2008
1010
0000
0000
0000
0000
ENDCHAR

STARTCHAR a9b7
ENCODING 43447
SWIDTH 960 0
DWIDTH 16 0
BBX 16 18 0 -3
BITMAP
0000
0000
0000
1010
2008
2108
4104
4104
4284
4284
4444
2828
2008
1010
0000
0000
0000
0000
ENDCHAR

STARTCHAR a9b8
ENCODING 43448
SWIDTH 960 0
DWIDTH 16 0
BBX 16 18 0 -3
BITMAP
0000
0000
0000
1010
2008
2388
4444
4824
4824
4824
4444
2388
2008
1010
0000
0000
0000
0000
ENDCHAR

STARTCHAR a9b9
ENCODING 43449
SWIDTH 960 0
DWIDTH 16 0
BBX 16 18 0 -3
BITMAP
0000
0000
0000
1010
2008
2FE8
4104
4104
4104
4284
4444
2828
2008
1010
0000
0000
0000
0000
ENDCHAR

STARTCHAR a9ba
ENCODING 43450
SWIDTH 960 0
DWIDTH 16 0
BBX 16 18 0 -3
BITMAP
0000
0000
0000
1010
2008
2388
4004
4FE4
4104
4284
4444
2828
2008
1010
0000
0000
0000
0000
ENDCHAR

STARTCHAR a9bb
ENCODING 43451
SWIDTH 960 0
DWIDTH 16 0
BBX 16 18 0 -3
BITMAP
0000
0000
0000
1010
2008
2FE8
4024
4024
4FE4
4024
4024
2028
2008
1010
0000
0000
0000
0000
ENDCHAR

STARTCHAR a9bc
ENCODING 43452
SWIDTH 960 0
DWIDTH 16 0
BBX 16 18 0 -3
BITMAP
0000
0000
0000
1010
2008
2FE8
4804
4804
4FE4
4804
4804
2FE8
2008
1010
0000
0000
0000
0000
ENDCHAR

STARTCHAR a9bd
ENCODING 43453
SWIDTH 960 0
DWIDTH 16 0
BBX 16 18 0 -3
BITMAP
0000
0000
0000
1010
2008
2FE8
4444
4444
4444
4444
4444
2FE8
2008
1010
0000
0000
0000
0000
ENDCHAR

STARTCHAR a9be
ENCODING 43454
SWIDTH 960 0
DWIDTH 16 0
BBX 16 18 0 -3
BITMAP
0000
0000
0000
1010
2008
2388
4004
4FE4
4004
4384
4444
2448
2388
1010
0000
0000
0000
0000
ENDCHAR

STARTCHAR a9bf
ENCODING 43455
SWIDTH 960 0
DWIDTH 16 0
BBX 16 18 0 -3
BITMAP
0000
0000
0000
1010
2048
2F48
4144
4174
4244
4444
4844
2048
2048
1010
0000
0000
0000
0000
ENDCHAR

STARTCHAR a9c0
ENCODING 43456
SWIDTH 960 0
DWIDTH 16 0
BBX 16 18 0 -3
BITMAP
0000
0000
0000
1010
2048
2848
4844
4874
4844
4844
4F44
2048
2048
1010
0000
0000
0000
0000
ENDCHAR

STARTCHAR a9c1
ENCODING 43457
SWIDTH 960 0
DWIDTH 16 0
BBX 16 18 0 -3
BITMAP
0000
0000
0000
1010
2048
2F48
4844
4874
4844
4844
4F44
2048
2048
1010
0000
0000
0000
0000
ENDCHAR

STARTCHAR a9c2
ENCODING 43458
SWIDTH 960 0
DWIDTH 16 0
BBX 16 18 0 -3
BITMAP
0000
0000
0000
1010
2048
2F48
4144
4174
4F44
4844
4844
2F48
2048
1010
0000
0000
0000
0000
ENDCHAR

STARTCHAR a9c3
ENCODING 43459
SWIDTH 960 0
DWIDTH 16 0
BBX 16 18 0 -3
BITMAP
0000
0000
0000
1010
2048
2F48
4944
4974
4944
4944
4F44
2048
2048
1010
0000
0000
0000
0000
ENDCHAR

STARTCHAR a9c4
ENCODING 43460
SWIDTH 960 0
DWIDTH 16 0
BBX 16 18 0 -3
BITMAP
0000
0000
0000
1010
2048
2948
4944
4F44
4974
4944
4F44
2048
2048
1010
0000
0000
0000
0000
ENDCHAR

STARTCHAR a9c5
ENCODING 43461
SWIDTH 960 0
DWIDTH 16 0
BBX 16 18 0 -3
BITMAP
0000
0000
0000
1010
2048
2448
4444
4A44
4A74
5144
5144
2048
2048
1010
0000
0000
0000
0000
ENDCHAR

STARTCHAR a9c6
ENCODING 43462
SWIDTH 960 0
DWIDTH 16 0
BBX 16 18 0 -3
BITMAP
0000
0000
0000
1010
2048
2E48
5144
5144
5174
5144
4E44
2048
2048
1010
0000
0000
0000
0000
ENDCHAR

STARTCHAR a9c7
ENCODING 43463
SWIDTH 960 0
DWIDTH 16 0
BBX 16 18 0 -3
BITMAP
0000
0000
0000
1010
2048
3F48
4444
4444
4A74
4A44
5144
2048
2048
1010
0000
0000
0000
0000
ENDCHAR

STARTCHAR a9c8
ENCODING 43464
SWIDTH 960 0
DWIDTH 16 0
BBX 16 18 0 -3
BITMAP
0000
0000
0000
1010
2048
2E48
4044
5F44
4474
4A44
5144
3148
2048
1010
0000
0000
0000
0000
ENDCHAR

STARTCHAR a9c9
ENCODING 43465
SWIDTH 960 0
DWIDTH 16 0
BBX 16 18 0 -3
BITMAP
0000
0000
0000
1010
2048
2F48
4144
4F44
4274
4444
4844
2048
2048
1010
0000
0000
0000
0000
ENDCHAR

STARTCHAR a9ca
ENCODING 43466
SWIDTH 960 0
DWIDTH 16 0
BBX 16 18 0 -3
BITMAP
0000
0000
0000
1010
2048
2F48
4844
4844
4F74
4844
4844
2F48
2048
1010
0000
0000
0000
0000
ENDCHAR

STARTCHAR a9cb
ENCODING 43467
SWIDTH 960 0
DWIDTH 16 0
BBX 16 18 0 -3
BITMAP
0000
0000
0000
1010
2048
3F48
4A44
4A44
4A74
4A44
5F44
2048
2048
1010
0000
0000
0000
0000
ENDCHAR

STARTCHAR a9cc
ENCODING 43468
SWIDTH 960 0
DWIDTH 16 0
BBX 16 18 0 -3
BITMAP
0000
0000
0000
1010
2648
2048
5F44
4044
4674
4944
4944
2648
2048
1010
0000
0000
0000
0000
ENDCHAR

STARTCHAR a9cd
ENCODING 43469
SWIDTH 960 0
DWIDTH 16 0
BBX 16 18 0 -3
BITMAP
0000
0000
0000
1010
2008
2388
4444
4044
43C4
4444
4444
23A8
2008
1010
0000
0000
0000
0000
ENDCHAR

STARTCHAR a9ce
ENCODING 43470
SWIDTH 960 0
DWIDTH 16 0
BBX 16 18 0 -3
BITMAP
0000
0000
0000
1010
2008
2408
4404
4404
4784
4444
4444
2788
2008
1010
0000
0000
0000
0000
ENDCHAR

STARTCHAR a9cf
ENCODING 43471
SWIDTH 960 0
DWIDTH 16 0
BBX 16 18 0 -3
BITMAP
0000
0000
0000
1010
2008
23C8
4424
4804
4804
4804
4424
23C8
2008
1010
0000
0000
0000
0000
ENDCHAR

STARTCHAR a9d0
ENCODING 43472
SWIDTH 960 0
DWIDTH 16 0
BBX 16 18 0 -3
BITMAP
0000
0000
0000
1010
2008
2048
4044
4044
43C4
4444
4444
23C8
2008
1010
0000
0000
0000
0000
ENDCHAR

STARTCHAR a9d1
ENCODING 43473
SWIDTH 960 0
DWIDTH 16 0
BBX 16 18 0 -3
BITMAP
0000
0000
0000
1010
2008
2388
4444
4824
4FE4
4804
4404
23C8
2008
1010
0000
0000
0000
0000
ENDCHAR

STARTCHAR a9d2
ENCODING 43474
SWIDTH 960 0
DWIDTH 16 0
BBX 16 18 0 -3
BITMAP
0000
0000
0000
1010
20C8
2128
4104
4384
4104
4104
4104
2108
2388
1010
0000
0000
0000
0000
ENDCHAR

STARTCHAR a9d3
ENCODING 43475
SWIDTH 960 0
DWIDTH 16 0
BBX 16 18 0 -3
BITMAP
0000
0000
0000
1010
2088
2188
4244
4244
4184
4384
4444
2448
2388
1010
0000
0000
0000
0000
ENDCHAR

STARTCHAR a9d4
ENCODING 43476
SWIDTH 960 0
DWIDTH 16 0
BBX 16 18 0 -3
BITMAP
0000
0000
0000
1010
2008
2408
4404
4404
4784
4444
4444
2448
2448
1010
0000
0000
0000
0000
ENDCHAR

STARTCHAR a9d5
ENCODING 43477
SWIDTH 960 0
DWIDTH 16 0
BBX 16 18 0 -3
BITMAP
0000
0000
0000
1010
2108
2008
4104
4104
4104
4104
4104
2108
2008
1010
0000
0000
0000
0000
ENDCHAR

STARTCHAR a9d6
ENCODING 43478
SWIDTH 960 0
DWIDTH 16 0
BBX 16 18 0 -3
BITMAP
0000
0000
0000
1010
2108
2008
4104
4104
4104
4104
4104
2508
2208
1010
0000
0000
0000
0000
ENDCHAR

STARTCHAR a9d7
ENCODING 43479
SWIDTH 960 0
DWIDTH 16 0
BBX 16 18 0 -3
BITMAP
0000
0000
0000
1010
2008
2E08
4464
4584
4604
4584
4444
2E28
2008
1010
0000
0000
0000
0000
ENDCHAR

STARTCHAR a9d8
ENCODING 43480
SWIDTH 960 0
DWIDTH 16 0
BBX 16 18 0 -3
BITMAP
0000
0000
0000
1010
2008
2308
4104
4104
4104
4104
4104
2108
2388
1010
0000
0000
0000
0000
ENDCHAR

STARTCHAR a9d9
ENCODING 43481
SWIDTH 960 0
DWIDTH 16 0
BBX 16 18 0 -3
BITMAP
0000
0000
0000
1010
2008
2008
56C4
4924
4924
4924
4924
2928
2008
1010
0000
0000
0000
0000
ENDCHAR

STARTCHAR a9da
ENCODING 43482
SWIDTH 960 0
DWIDTH 16 0
BBX 16 18 0 -3
BITMAP
0000
0000
0000
1010
2008
2008
4B84
4444
4444
4444
4444
2448
2008
1010
0000
0000
0000
0000
ENDCHAR

STARTCHAR a9db
ENCODING 43483
SWIDTH 960 0
DWIDTH 16 0
BBX 16 18 0 -3
BITMAP
0000
0000
0000
1010
2008
2388
4444
4824
4824
4824
4444
2388
2008
1010
0000
0000
0000
0000
ENDCHAR

STARTCHAR a9dc
ENCODING 43484
SWIDTH 960 0
DWIDTH 16 0
BBX 16 18 0 -3
BITMAP
0000
0000
0000
1010
2008
2788
4444
4444
4784
4404
4404
2408
2008
1010
0000
0000
0000
0000
ENDCHAR

STARTCHAR a9dd
ENCODING 43485
SWIDTH 960 0
DWIDTH 16 0
BBX 16 18 0 -3
BITMAP
0000
0000
0000
1010
2008
23C8
4444
4444
43C4
4044
4044
2048
2008
1010
0000
0000
0000
0000
ENDCHAR

STARTCHAR a9de
ENCODING 43486
SWIDTH 960 0
DWIDTH 16 0
BBX 16 18 0 -3
BITMAP
0000
0000
0000
1010
2008
2008
4F84
4444
4404
4404
4404
2408
2008
1010
0000
0000
0000
0000
ENDCHAR

STARTCHAR a9df
ENCODING 43487
SWIDTH 960 0
DWIDTH 16 0
BBX 16 18 0 -3
BITMAP
0000
0000
0000
1010
2008
2388
4444
4404
4384
4044
4444
2388
2008
1010
0000
0000
0000
0000
ENDCHAR

STARTCHAR a9e0
ENCODING 43488
SWIDTH 960 0
DWIDTH 16 0
BBX 16 18 0 -3
BITMAP
0000
0000
0000
1010
2008
2108
4104
4384
4104
4104
4104
2148
2088
1010
0000
0000
0000
0000
ENDCHAR

STARTCHAR a9e1
ENCODING 43489
SWIDTH 960 0
DWIDTH 16 0
BBX 16 18 0 -3
BITMAP
0000
0000
0000
1010
2008
2008
4444
4444
4444
4444
4444
23A8
2008
1010
0000
0000
0000
0000
ENDCHAR

STARTCHAR a9e2
ENCODING 43490
SWIDTH 960 0
DWIDTH 16 0
BBX 16 18 0 -3
BITMAP
0000
0000
0000
1010
2008
2008
5C74
4824
4444
4444
4284
2288
2108
1010
0000
0000
0000
0000
ENDCHAR

STARTCHAR a9e3
ENCODING 43491
SWIDTH 960 0
DWIDTH 16 0
BBX 16 18 0 -3
BITMAP
0000
0000
0000
1010
2008
2008
5114
5114
4AA4
4AA4
4444
2448
2008
1010
0000
0000
0000
0000
ENDCHAR

STARTCHAR a9e4
ENCODING 43492
SWIDTH 960 0
DWIDTH 16 0
BBX 16 18 0 -3
BITMAP
0000
0000
0000
1010
2008
2C68
4444
4284
4104
4284
4444
2C68
2008
1010
0000
0000
0000
0000
ENDCHAR

STARTCHAR a9e5
ENCODING 43493
SWIDTH 960 0
DWIDTH 16 0
BBX 16 18 0 -3
BITMAP
0000
0000
0000
1010
2008
2828
4444
4284
4104
4104
4204
2A08
2408
1010
0000
0000
0000
0000
ENDCHAR

STARTCHAR a9e6
ENCODING 43494
SWIDTH 960 0
DWIDTH 16 0
BBX 16 18 0 -3
BITMAP
0000
0000
0000
1010
2008
27E8
4844
4084
4104
4204
4414
2FE8
2008
1010
0000
0000
0000
0000
ENDCHAR

STARTCHAR a9e7
ENCODING 43495
SWIDTH 960 0
DWIDTH 16 0
BBX 16 18 0 -3
BITMAP
0000
0000
0000
1010
2008
2108
4304
4104
4104
4104
4104
2108
2388
1010
0000
0000
0000
0000
ENDCHAR

STARTCHAR a9e8
ENCODING 43496
SWIDTH 960 0
DWIDTH 16 0
BBX 16 18 0 -3
BITMAP
0000
0000
0000
1010
2008
2388
4444
4044
4084
4104
4204
2408
27C8
1010
0000
0000
0000
0000
ENDCHAR

STARTCHAR a9e9
ENCODING 43497
SWIDTH 960 0
DWIDTH 16 0
BBX 16 18 0 -3
BITMAP
0000
0000
0000
1010
2388
2448
4044
4044
4384
4044
4044
2448
2388
1010
0000
0000
0000
0000
ENDCHAR

STARTCHAR a9ea
ENCODING 43498
SWIDTH 960 0
DWIDTH 16 0
BBX 16 18 0 -3
BITMAP
0000
0000
0000
1010
2008
2088
4184
4284
4484
4884
4FE4
2088
2088
1010
0000
0000
0000
0000
ENDCHAR

STARTCHAR a9eb
ENCODING 43499
SWIDTH 960 0
DWIDTH 16 0
BBX 16 18 0 -3
BITMAP
0000
0000
0000
1010
2008
27C8
4404
4404
4784
4044
4044
2448
2388
1010
0000
0000
0000
0000
ENDCHAR

STARTCHAR a9ec
ENCODING 43500
SWIDTH 960 0
DWIDTH 16 0
BBX 16 18 0 -3
BITMAP
0000
0000
0000
1010
2388
2448
4404
4404
4784
4444
4444
2448
2388
1010
0000
0000
0000
0000
ENDCHAR

STARTCHAR a9ed
ENCODING 43501
SWIDTH 960 0
DWIDTH 16 0
BBX 16 18 0 -3
BITMAP
0000
0000
0000
1010
27C8
2448
4444
4044
4084
4084
4084
2088
2088
1010
0000
0000
0000
0000
ENDCHAR

STARTCHAR a9ee
ENCODING 43502
SWIDTH 960 0
DWIDTH 16 0
BBX 16 18 0 -3
BITMAP
0000
0000
0000
1010
2388
2448
4444
4444
4384
4444
4444
2448
2388
1010
0000
0000
0000
0000
ENDCHAR

STARTCHAR a9ef
ENCODING 43503
SWIDTH 960 0
DWIDTH 16 0
BBX 16 18 0 -3
BITMAP
0000
0000
0000
1010
2388
2448
4444
4444
43C4
4044
4044
2448
2388
1010
0000
0000
0000
0000
ENDCHAR

STARTCHAR a9f0
ENCODING 43504
SWIDTH 960 0
DWIDTH 16 0
BBX 16 18 0 -3
BITMAP
0000
0000
0000
1010
2008
24C8
4D24
4524
4524
4524
4524
2528
24C8
1010
0000
0000
0000
0000
ENDCHAR

STARTCHAR a9f1
ENCODING 43505
SWIDTH 960 0
DWIDTH 16 0
BBX 16 18 0 -3
BITMAP
0000
0000
0000
1010
2008
2448
4CC4
4444
4444
4444
4444
2448
2EE8
1010
0000
0000
0000
0000
ENDCHAR

STARTCHAR a9f2
ENCODING 43506
SWIDTH 960 0
DWIDTH 16 0
BBX 16 18 0 -3
BITMAP
0000
0000
0000
1010
2008
28C8
5924
4824
4844
4884
4904
29E8
2008
1010
0000
0000
0000
0000
ENDCHAR

STARTCHAR a9f3
ENCODING 43507
SWIDTH 960 0
DWIDTH 16 0
BBX 16 18 0 -3
BITMAP
0000
0000
0000
1010
2008
29C8
5A24
4824
49C4
4824
4A24
29C8
2008
1010
0000
0000
0000
0000
ENDCHAR

STARTCHAR a9f4
ENCODING 43508
SWIDTH 960 0
DWIDTH 16 0
BBX 16 18 0 -3
BITMAP
0000
0000
0000
1010
2008
2828
5864
48A4
4924
4A24
4BF4
2828
2008
1010
0000
0000
0000
0000
ENDCHAR

STARTCHAR a9f5
ENCODING 43509
SWIDTH 960 0
DWIDTH 16 0
BBX 16 18 0 -3
BITMAP
0000
0000
0000
1010
2008
25E8
4D04
4504
45C4
4424
4424
25C8
2008
1010
0000
0000
0000
0000
ENDCHAR

STARTCHAR a9f6
ENCODING 43510
SWIDTH 960 0
DWIDTH 16 0
BBX 16 18 0 -3
BITMAP
0000
0080
0180
0080
0080
0080
0080
01C0
0000
0000
0000
0000
0000
0000
0000
0000
0000
0000
ENDCHAR

STARTCHAR a9f7
ENCODING 43511
SWIDTH 960 0
DWIDTH 16 0
BBX 16 18 0 -3
BITMAP
0000
0180
0240
0040
0080
0100
0200
03C0
0000
0000
0000
0000
0000
0000
0000
0000
0000
0000
ENDCHAR

STARTCHAR a9f8
ENCODING 43512
SWIDTH 960 0
DWIDTH 16 0
BBX 16 18 0 -3
BITMAP
0000
0180
0240
0040
0180
0040
0240
0180
0000
0000
0000
0000
0000
0000
0000
0000
0000
0000
ENDCHAR

STARTCHAR a9f9
ENCODING 43513
SWIDTH 960 0
DWIDTH 16 0
BBX 16 18 0 -3
BITMAP
0000
0040
00C0
0140
0240
03F0
0040
0040
0000
0000
0000
0000
0000
0000
0000
0000
0000
0000
ENDCHAR

STARTCHAR a9fa
ENCODING 43514
SWIDTH 960 0
DWIDTH 16 0
BBX 16 18 0 -3
BITMAP
0000
05C0
0220
0220
0220
0220
0220
0220
0000
0000
0000
0000
0000
0000
0000
0000
0000
0000
ENDCHAR

STARTCHAR a9fb
ENCODING 43515
SWIDTH 960 0
DWIDTH 16 0
BBX 16 18 0 -3
BITMAP
0000
0000
0000
0000
0000
0000
0000
0000
0080
0180
0080
0080
0080
0080
01C0
0000
0000
0000
ENDCHAR

STARTCHAR a9fc
ENCODING 43516
SWIDTH 960 0
DWIDTH 16 0
BBX 16 18 0 -3
BITMAP
0000
0000
0000
0000
0000
0000
0000
0000
0180
0240
0040
0080
0100
0200
03C0
0000
0000
0000
ENDCHAR

STARTCHAR a9fd
ENCODING 43517
SWIDTH 960 0
DWIDTH 16 0
BBX 16 18 0 -3
BITMAP
0000
0000
0000
0000
0000
0000
0000
0000
0180
0240
0040
0180
0040
0240
0180
0000
0000
0000
ENDCHAR

STARTCHAR a9fe
ENCODING 43518
SWIDTH 960 0
DWIDTH 16 0
BBX 16 18 0 -3
BITMAP
0000
0000
0000
0000
0000
0000
0000
0000
0040
00C0
0140
0240
03F0
0040
0040
0000
0000
0000
ENDCHAR

STARTCHAR aaa1
ENCODING 43681
SWIDTH 960 0
DWIDTH 16 0
BBX 16 18 0 -3
BITMAP
0000
0000
0000
0000
0000
0100
0100
0FE0
0100
03E0
0550
0988
0708
0130
0000
0000
0000
0000
ENDCHAR

STARTCHAR aaa2
ENCODING 43682
SWIDTH 960 0
DWIDTH 16 0
BBX 16 18 0 -3
BITMAP
0000
0000
0200
0200
1FF0
0200
03E0
0530
0948
1188
2108
2208
1C10
0060
0000
0000
0000
0000
ENDCHAR

STARTCHAR aaa3
ENCODING 43683
SWIDTH 960 0
DWIDTH 16 0
BBX 16 18 0 -3
BITMAP
0000
0000
0000
0000
0000
1000
0840
0820
0810
0810
0810
0810
0500
0200
0000
0000
0000
0000
ENDCHAR

STARTCHAR aaa4
ENCODING 43684
SWIDTH 960 0
DWIDTH 16 0
BBX 16 18 0 -3
BITMAP
0000
0000
2000
1000
1020
1010
1008
1008
2008
2008
2008
2200
1400
0800
0000
0000
0000
0000
ENDCHAR

STARTCHAR aaa5
ENCODING 43685
SWIDTH 960 0
DWIDTH 16 0
BBX 16 18 0 -3
BITMAP
0000
0000
0000
0000
0000
0380
0000
0FC0
0020
0020
0020
0040
0080
0300
0000
0000
0000
0000
ENDCHAR

STARTCHAR aaa6
ENCODING 43686
SWIDTH 960 0
DWIDTH 16 0
BBX 16 18 0 -3
BITMAP
0000
0000
07C0
0000
0000
3FF0
0008
0008
0008
0008
0010
0020
0040
0180
0000
0000
0000
0000
ENDCHAR

STARTCHAR aaa7
ENCODING 43687
SWIDTH 960 0
DWIDTH 16 0
BBX 16 18 0 -3
BITMAP
0000
0000
0000
0000
0000
01C0
0000
0FE0
0040
0080
01C0
0240
0440
0870
0000
0000
0000
0000
ENDCHAR

STARTCHAR aaa8
ENCODING 43688
SWIDTH 960 0
DWIDTH 16 0
BBX 16 18 0 -3
BITMAP
0000
0000
0300
00C0
0000
1FE0
0040
0080
0100
0380
0440
0840
1040
2078
0000
0000
0000
0000
ENDCHAR

STARTCHAR aaa9
ENCODING 43689
SWIDTH 960 0
DWIDTH 16 0
BBX 16 18 0 -3
BITMAP
0000
0000
0000
0000
0000
0100
07C0
0130
0100
01E0
0750
0350
0120
0000
0000
0000
0000
0000
ENDCHAR

STARTCHAR aaaa
ENCODING 43690
SWIDTH 960 0
DWIDTH 16 0
BBX 16 18 0 -3
BITMAP
0000
0000
0400
0400
3F80
0418
0400
0470
0588
0E88
3488
1470
0C00
0400
0000
0000
0000
0000
ENDCHAR

STARTCHAR aaab
ENCODING 43691
SWIDTH 960 0
DWIDTH 16 0
BBX 16 18 0 -3
BITMAP
0000
0000
0000
0000
0000
0100
0100
07D0
0148
0140
0140
0240
0540
0080
0000
0000
0000
0000
ENDCHAR

STARTCHAR aaac
ENCODING 43692
SWIDTH 960 0
DWIDTH 16 0
BBX 16 18 0 -3
BITMAP
0000
0000
0420
0408
3F80
0490
0488
0488
0880
0880
1080
1480
2280
0100
0000
0000
0000
0000
ENDCHAR

STARTCHAR aaad
ENCODING 43693
SWIDTH 960 0
DWIDTH 16 0
BBX 16 18 0 -3
BITMAP
0000
0000
0800
07C0
1E00
01F0
3F80
0040
0020
07F8
0800
1000
0810
07E0
0000
0000
0000
0000
ENDCHAR

STARTCHAR aaae
ENCODING 43694
SWIDTH 960 0
DWIDTH 16 0
BBX 16 18 0 -3
BITMAP
0000
0000
0808
07A4
1E10
01E0
3F80
0040
0020
0FF8
1000
2000
1010
0FE0
0000
0000
0000
0000
ENDCHAR

STARTCHAR aaaf
ENCODING 43695
SWIDTH 960 0
DWIDTH 16 0
BBX 16 18 0 -3
BITMAP
0000
0000
0000
0020
0040
0180
0600
0800
3000
0800
0600
0180
0040
0020
0000
0000
0000
0000
ENDCHAR

STARTCHAR aab0
ENCODING 43696
SWIDTH 960 0
DWIDTH 16 0
BBX 16 18 0 -3
BITMAP
0000
0000
0000
0020
0050
0188
0620
0810
3000
0800
0600
0180
0040
0020
0000
0000
0000
0000
ENDCHAR

STARTCHAR aab1
ENCODING 43697
SWIDTH 960 0
DWIDTH 16 0
BBX 16 18 0 -3
BITMAP
0000
0000
2020
1020
13F8
1020
2020
2020
2020
2020
2020
2420
2840
1080
0000
0000
0000
0000
ENDCHAR

STARTCHAR aab2
ENCODING 43698
SWIDTH 960 0
DWIDTH 16 0
BBX 16 18 0 -3
BITMAP
0000
0000
2050
1054
1044
13F0
1040
1040
1040
1040
2040
2040
2040
2880
1100
0000
0000
0000
ENDCHAR

STARTCHAR aab3
ENCODING 43699
SWIDTH 960 0
DWIDTH 16 0
BBX 16 18 0 -3
BITMAP
0000
0000
0000
0FF8
0010
0020
0000
0000
0000
0000
0000
1000
2000
1FF0
0000
0000
0000
0000
ENDCHAR

STARTCHAR aab4
ENCODING 43700
SWIDTH 960 0
DWIDTH 16 0
BBX 16 18 0 -3
BITMAP
0000
0000
0050
0028
3FC0
0080
0100
0000
0000
0000
1000
2000
1FF0
0000
0000
0000
0000
0000
ENDCHAR

STARTCHAR aab5
ENCODING 43701
SWIDTH 960 0
DWIDTH 16 0
BBX 16 18 0 -3
BITMAP
0000
0000
0400
0200
01F8
1F80
0040
0020
0010
0F08
10F8
2000
2000
1FF0
0000
0000
0000
0000
ENDCHAR

STARTCHAR aab6
ENCODING 43702
SWIDTH 960 0
DWIDTH 16 0
BBX 16 18 0 -3
BITMAP
0000
0000
0450
0228
0100
00F8
1FC0
0020
0010
0F08
10F8
2000
2000
1FF0
0000
0000
0000
0000
ENDCHAR

STARTCHAR aab7
ENCODING 43703
SWIDTH 960 0
DWIDTH 16 0
BBX 16 18 0 -3
BITMAP
0000
0000
1000
0800
1000
1000
1000
1000
1000
1000
1000
1008
1010
0FE0
0000
0000
0000
0000
ENDCHAR

STARTCHAR aab8
ENCODING 43704
SWIDTH 960 0
DWIDTH 16 0
BBX 16 18 0 -3
BITMAP
0000
0000
1000
0820
1010
1040
1020
1000
1000
1000
1000
1008
1010
0FE0
0000
0000
0000
0000
ENDCHAR

STARTCHAR aab9
ENCODING 43705
SWIDTH 960 0
DWIDTH 16 0
BBX 16 18 0 -3
BITMAP
0000
0000
0080
0080
3FF8
0080
0080
0680
0980
0980
0680
0080
0100
0600
0000
0000
0000
0000
ENDCHAR

STARTCHAR aaba
ENCODING 43706
SWIDTH 960 0
DWIDTH 16 0
BBX 16 18 0 -3
BITMAP
0000
0000
00A8
0080
3FF8
0080
0080
0680
0980
0980
0680
0080
0100
0600
0000
0000
0000
0000
ENDCHAR

STARTCHAR aabb
ENCODING 43707
SWIDTH 960 0
DWIDTH 16 0
BBX 16 18 0 -3
BITMAP
0000
0000
0040
0840
0840
0840
0840
3FF8
0840
0940
08C0
0800
0400
03F0
0000
0000
0000
0000
ENDCHAR

STARTCHAR aabc
ENCODING 43708
SWIDTH 960 0
DWIDTH 16 0
BBX 16 18 0 -3
BITMAP
0000
0000
0050
0848
0850
0848
0840
3FF8
0840
0940
08C0
0800
0800
07F0
0000
0000
0000
0000
ENDCHAR

STARTCHAR aabd
ENCODING 43709
SWIDTH 960 0
DWIDTH 16 0
BBX 16 18 0 -3
BITMAP
0000
0000
0860
0780
0100
0200
3FF8
0180
0200
0400
0800
0800
0400
03E0
0000
0000
0000
0000
ENDCHAR

STARTCHAR aabe
ENCODING 43710
SWIDTH 960 0
DWIDTH 16 0
BBX 16 18 0 -3
BITMAP
0000
0000
0860
0788
0124
0210
3FF8
0180
0200
0400
0800
0800
0400
03E0
0000
0000
0000
0000
ENDCHAR

STARTCHAR aabf
ENCODING 43711
SWIDTH 960 0
DWIDTH 16 0
BBX 16 18 0 -3
BITMAP
0000
0000
0400
0200
3FC0
0400
0478
0800
0800
1000
10F8
2000
2000
0000
0000
0000
0000
0000
ENDCHAR

STARTCHAR aac0
ENCODING 43712
SWIDTH 960 0
DWIDTH 16 0
BBX 16 18 0 -3
BITMAP
0000
0000
0450
0228
3FC0
0400
0400
08F8
0800
1000
1000
11F0
2000
2000
0000
0000
0000
0000
ENDCHAR

STARTCHAR aac1
ENCODING 43713
SWIDTH 960 0
DWIDTH 16 0
BBX 16 18 0 -3
BITMAP
0000
0400
0400
3FE0
0400
0400
04F0
0708
0408
0008
0008
0010
03E0
0000
0000
0000
0000
0000
ENDCHAR

STARTCHAR aac2
ENCODING 43714
SWIDTH 960 0
DWIDTH 16 0
BBX 16 18 0 -3
BITMAP
0000
0000
0450
0428
3FC0
0400
0400
0400
05F0
0608
0408
0008
0010
03E0
0000
0000
0000
0000
ENDCHAR

STARTCHAR aac3
ENCODING 43715
SWIDTH 960 0
DWIDTH 16 0
BBX 16 18 0 -3
BITMAP
0000
0000
0000
0000
0000
0000
0000
0000
03C0
0C20
0020
0020
0040
0180
0000
0000
0000
0000
ENDCHAR

STARTCHAR aac4
ENCODING 43716
SWIDTH 960 0
DWIDTH 16 0
BBX 16 18 0 -3
BITMAP
0000
0000
0000
0000
0000
07E0
3810
0008
0008
0008
0008
0010
0020
00C0
0000
0000
0000
0000
ENDCHAR

STARTCHAR aac5
ENCODING 43717
SWIDTH 960 0
DWIDTH 16 0
BBX 16 18 0 -3
BITMAP
0000
0000
0050
0028
0000
03E0
3C10
0008
0008
0008
0010
00E0
0000
0000
0000
0000
0000
0000
ENDCHAR

STARTCHAR aac6
ENCODING 43718
SWIDTH 960 0
DWIDTH 16 0
BBX 16 18 0 -3
BITMAP
0000
0000
3FF8
00C0
0100
0200
0400
0800
1000
1000
1000
1000
0800
07E0
0000
0000
0000
0000
ENDCHAR

STARTCHAR aac7
ENCODING 43719
SWIDTH 960 0
DWIDTH 16 0
BBX 16 18 0 -3
BITMAP
0000
0000
3FF8
00C0
0100
0210
0448
0820
1000
1000
1000
1000
0800
07E0
0000
0000
0000
0000
ENDCHAR

STARTCHAR aac8
ENCODING 43720
SWIDTH 960 0
DWIDTH 16 0
BBX 16 18 0 -3
BITMAP
0000
0000
0800
0400
0400
0400
0418
04E0
0700
1C00
2000
2000
1008
0FF0
0000
0000
0000
0000
ENDCHAR

STARTCHAR aac9
ENCODING 43721
SWIDTH 960 0
DWIDTH 16 0
BBX 16 18 0 -3
BITMAP
0000
0000
0810
0448
0420
0400
0418
04E0
0700
1C00
2000
2000
1008
0FF0
0000
0000
0000
0000
ENDCHAR

STARTCHAR aaca
ENCODING 43722
SWIDTH 960 0
DWIDTH 16 0
BBX 16 18 0 -3
BITMAP
0000
0000
0200
0400
1F60
0410
0420
08C0
0840
1020
10D0
2130
2130
00C8
0000
0000
0000
0000
ENDCHAR

STARTCHAR aacb
ENCODING 43723
SWIDTH 960 0
DWIDTH 16 0
BBX 16 18 0 -3
BITMAP
0000
0000
2000
13F8
1010
1020
1000
1000
2000
2000
23F8
2000
1800
1000
0000
0000
0000
0000
ENDCHAR

STARTCHAR aacc
ENCODING 43724
SWIDTH 960 0
DWIDTH 16 0
BBX 16 18 0 -3
BITMAP
0000
0000
0020
1020
1040
0840
09F0
0E88
0C88
1504
2334
2148
2238
1C04
0000
0000
0000
0000
ENDCHAR

STARTCHAR aacd
ENCODING 43725
SWIDTH 960 0
DWIDTH 16 0
BBX 16 18 0 -3
BITMAP
0000
0000
0400
04E0
0510
3E08
0408
0C08
1408
24E8
2518
1498
0C64
0400
0000
0000
0000
0000
ENDCHAR

STARTCHAR aace
ENCODING 43726
SWIDTH 960 0
DWIDTH 16 0
BBX 16 18 0 -3
BITMAP
0000
0000
07E0
0910
1108
2208
2208
2208
2408
2408
2408
1810
0020
01C0
0000
0000
0000
0000
ENDCHAR

STARTCHAR aacf
ENCODING 43727
SWIDTH 960 0
DWIDTH 16 0
BBX 16 18 0 -3
BITMAP
0000
0000
2020
1020
1020
13F8
1020
1020
2020
2020
2020
21F0
2A28
11C4
0000
0000
0000
0000
ENDCHAR

STARTCHAR aad0
ENCODING 43728
SWIDTH 960 0
DWIDTH 16 0
BBX 16 18 0 -3
BITMAP
0000
000C
2020
102C
1020
13F8
1020
1020
2020
2020
2020
21E0
2A30
11C8
0000
0000
0000
0000
ENDCHAR

STARTCHAR aad1
ENCODING 43729
SWIDTH 960 0
DWIDTH 16 0
BBX 16 18 0 -3
BITMAP
0000
0008
2014
1028
1020
13F8
1020
1020
2020
2020
2020
21E0
2A30
11C8
0000
0000
0000
0000
ENDCHAR

STARTCHAR aad2
ENCODING 43730
SWIDTH 960 0
DWIDTH 16 0
BBX 16 18 0 -3
BITMAP
0000
0000
3C00
0880
1040
1040
2060
2050
2048
2040
2040
1080
0F00
0000
0000
0000
0000
0000
ENDCHAR

STARTCHAR aad3
ENCODING 43731
SWIDTH 960 0
DWIDTH 16 0
BBX 16 18 0 -3
BITMAP
0000
0000
3C28
0894
1040
1040
2060
2050
2048
2040
2040
1080
0F00
0000
0000
0000
0000
0000
ENDCHAR

STARTCHAR aad4
ENCODING 43732
SWIDTH 960 0
DWIDTH 16 0
BBX 16 18 0 -3
BITMAP
0000
0000
3C10
08A8
1050
1040
2060
2050
2048
2040
2040
1080
0F00
0000
0000
0000
0000
0000
ENDCHAR

STARTCHAR aad5
ENCODING 43733
SWIDTH 960 0
DWIDTH 16 0
BBX 16 18 0 -3
BITMAP
0000
0000
0400
03C0
0080
0100
0200
0600
0100
0080
0460
0850
1848
2784
0000
0000
0000
0000
ENDCHAR

STARTCHAR aad6
ENCODING 43734
SWIDTH 960 0
DWIDTH 16 0
BBX 16 18 0 -3
BITMAP
0000
0000
0400
03D0
0088
0120
0210
0600
0100
0080
0460
0850
1848
2784
0000
0000
0000
0000
ENDCHAR

STARTCHAR aad7
ENCODING 43735
SWIDTH 960 0
DWIDTH 16 0
BBX 16 18 0 -3
BITMAP
0000
0000
0400
03D0
00A8
0110
0200
0600
0100
0080
0460
0850
1848
2784
0000
0000
0000
0000
ENDCHAR

STARTCHAR aad8
ENCODING 43736
SWIDTH 960 0
DWIDTH 16 0
BBX 16 18 0 -3
BITMAP
0000
0000
0000
0000
0000
0600
0900
30C0
0030
0008
0000
0000
0000
0000
0000
0000
0000
0000
ENDCHAR

STARTCHAR aad9
ENCODING 43737
SWIDTH 960 0
DWIDTH 16 0
BBX 16 18 0 -3
BITMAP
0000
0000
0000
0010
0048
0620
0900
30C0
0030
0008
0000
0000
0000
0000
0000
0000
0000
0000
ENDCHAR

STARTCHAR aada
ENCODING 43738
SWIDTH 960 0
DWIDTH 16 0
BBX 16 18 0 -3
BITMAP
0000
0000
0000
0010
0028
0610
0900
30C0
0030
0008
0000
0000
0000
0000
0000
0000
0000
0000
ENDCHAR

STARTCHAR aadb
ENCODING 43739
SWIDTH 960 0
DWIDTH 16 0
BBX 16 18 0 -3
BITMAP
0000
0000
23F8
1040
1040
1040
13F8
2040
2040
2040
21F0
2248
2A48
1180
0000
0000
0000
0000
ENDCHAR

STARTCHAR aadc
ENCODING 43740
SWIDTH 960 0
DWIDTH 16 0
BBX 16 18 0 -3
BITMAP
0000
0008
23E4
1050
1048
1040
13F8
1040
2040
2040
21F0
2248
2A48
1180
0000
0000
0000
0000
ENDCHAR

STARTCHAR aadd
ENCODING 43741
SWIDTH 960 0
DWIDTH 16 0
BBX 16 18 0 -3
BITMAP
0000
0000
23E8
1054
1048
1040
13F8
1040
2040
2040
21F0
2248
2A48
1180
0000
0000
0000
0000
ENDCHAR

STARTCHAR aade
ENCODING 43742
SWIDTH 960 0
DWIDTH 16 0
BBX 16 18 0 -3
BITMAP
0000
0000
0100
0100
3FF8
0100
0100
1FF0
0100
0100
1FE0
2110
2108
1E00
0000
0000
0000
0000
ENDCHAR

STARTCHAR aadf
ENCODING 43743
SWIDTH 960 0
DWIDTH 16 0
BBX 16 18 0 -3
BITMAP
0000
0000
0F80
0100
0200
0200
0200
0440
0440
1F48
28F0
1080
0100
0200
0000
0000
0000
0000
ENDCHAR

STARTCHAR aae0
ENCODING 43744
SWIDTH 960 0
DWIDTH 16 0
BBX 16 18 0 -3
BITMAP
0000
0000
0100
0100
0FE0
0100
0100
0718
0910
0910
0610
0210
0210
01E0
0000
0000
0000
0000
ENDCHAR

STARTCHAR aae1
ENCODING 43745
SWIDTH 960 0
DWIDTH 16 0
BBX 16 18 0 -3
BITMAP
0000
0000
0080
2080
27E0
1890
1908
2508
2208
2508
1888
0010
00E0
0000
0000
0000
0000
0000
ENDCHAR

STARTCHAR aae2
ENCODING 43746
SWIDTH 960 0
DWIDTH 16 0
BBX 16 18 0 -3
BITMAP
0000
0000
0200
0200
0200
1FC0
0200
0200
1FC0
0200
0210
0208
0208
01F0
0000
0000
0000
0000
ENDCHAR

STARTCHAR aae3
ENCODING 43747
SWIDTH 960 0
DWIDTH 16 0
BBX 16 18 0 -3
BITMAP
0000
0000
0000
0000
0000
0000
0400
0200
03E0
0E10
0110
0160
0080
0080
0000
0000
0000
0000
ENDCHAR

STARTCHAR aae4
ENCODING 43748
SWIDTH 960 0
DWIDTH 16 0
BBX 16 18 0 -3
BITMAP
0000
0000
0800
0800
0400
07F0
3E08
0208
0210
0160
0100
0100
0080
0080
0000
0000
0000
0000
ENDCHAR

STARTCHAR aae5
ENCODING 43749
SWIDTH 960 0
DWIDTH 16 0
BBX 16 18 0 -3
BITMAP
0000
0000
0000
0000
0000
0000
0080
1140
09E0
0950
0A50
0BE0
0C40
0880
0000
0000
0000
0000
ENDCHAR

STARTCHAR aae6
ENCODING 43750
SWIDTH 960 0
DWIDTH 16 0
BBX 16 18 0 -3
BITMAP
0000
0000
2000
1000
1080
1140
21F0
2248
2448
2448
2E50
31E0
2040
2080
0000
0000
0000
0000
ENDCHAR

STARTCHAR aae7
ENCODING 43751
SWIDTH 960 0
DWIDTH 16 0
BBX 16 18 0 -3
BITMAP
0000
0000
0000
0000
0000
0000
0100
0100
01E0
0100
0100
0F80
1140
0E20
0000
0000
0000
0000
ENDCHAR

STARTCHAR aae8
ENCODING 43752
SWIDTH 960 0
DWIDTH 16 0
BBX 16 18 0 -3
BITMAP
0000
0000
0100
0100
0100
01F8
0100
0100
0100
0100
1FC0
2120
2110
1E08
0000
0000
0000
0000
ENDCHAR

STARTCHAR aae9
ENCODING 43753
SWIDTH 960 0
DWIDTH 16 0
BBX 16 18 0 -3
BITMAP
0000
0000
0700
0080
0100
2000
2000
23E0
2C10
3008
0008
0008
0010
01E0
0000
0000
0000
0000
ENDCHAR

STARTCHAR aaea
ENCODING 43754
SWIDTH 960 0
DWIDTH 16 0
BBX 16 18 0 -3
BITMAP
0000
0000
0880
0540
0440
0440
0420
0520
0220
0020
0040
0040
0080
0100
0000
0000
0000
0000
ENDCHAR

STARTCHAR aaeb
ENCODING 43755
SWIDTH 960 0
DWIDTH 16 0
BBX 16 18 0 -3
BITMAP
0000
0000
0000
07E0
0040
0080
0100
03F0
0608
0808
1008
0188
0250
01E0
0000
0000
0000
0000
ENDCHAR

STARTCHAR aaec
ENCODING 43756
SWIDTH 960 0
DWIDTH 16 0
BBX 16 18 0 -3
BITMAP
0000
0000
0400
04E0
3D10
0610
0410
0410
0C10
1410
2410
1410
0C14
0418
0000
0000
0000
0000
ENDCHAR

STARTCHAR aaed
ENCODING 43757
SWIDTH 960 0
DWIDTH 16 0
BBX 16 18 0 -3
BITMAP
0000
0000
0FF0
0080
0100
0200
0400
0FE0
1010
2008
0008
0008
0010
01E0
0000
0000
0000
0000
ENDCHAR

STARTCHAR aaee
ENCODING 43758
SWIDTH 960 0
DWIDTH 16 0
BBX 16 18 0 -3
BITMAP
0000
0000
0000
0000
0000
0000
0400
1DC0
0620
0420
0C20
1420
0CC0
0400
0000
0000
0000
0000
ENDCHAR

STARTCHAR aaef
ENCODING 43759
SWIDTH 960 0
DWIDTH 16 0
BBX 16 18 0 -3
BITMAP
0000
0000
0400
0400
04F0
3D08
0608
0408
0C08
1408
3408
0C10
0460
0400
0000
0000
0000
0000
ENDCHAR

STARTCHAR aaf0
ENCODING 43760
SWIDTH 960 0
DWIDTH 16 0
BBX 16 18 0 -3
BITMAP
0000
0000
07E0
0080
0100
0200
0FE0
1210
2408
2408
2808
18D0
0120
00C0
0000
0000
0000
0000
ENDCHAR

STARTCHAR aaf1
ENCODING 43761
SWIDTH 960 0
DWIDTH 16 0
BBX 16 18 0 -3
BITMAP
0000
0000
07C0
0080
0100
03C0
0420
01A0
0260
05C0
0C30
1248
2184
0000
0000
0000
0000
0000
ENDCHAR

STARTCHAR aaf2
ENCODING 43762
SWIDTH 960 0
DWIDTH 16 0
BBX 16 18 0 -3
BITMAP
0000
0000
0080
0080
0FF0
0100
0200
07C8
0830
1060
00A0
0120
0100
00F8
0000
0000
0000
0000
ENDCHAR

STARTCHAR aaf3
ENCODING 43763
SWIDTH 960 0
DWIDTH 16 0
BBX 16 18 0 -3
BITMAP
0000
0000
0080
0080
0100
0100
0200
02C0
0520
0620
0840
0848
1090
2060
0000
0000
0000
0000
ENDCHAR

STARTCHAR aba1
ENCODING 43937
SWIDTH 960 0
DWIDTH 16 0
BBX 16 18 0 -3
BITMAP
0000
0000
0000
0000
0000
0FE0
0040
0180
0100
0100
0200
0400
0000
0000
0000
0000
0000
0000
ENDCHAR

STARTCHAR aba2
ENCODING 43938
SWIDTH 960 0
DWIDTH 16 0
BBX 16 18 0 -3
BITMAP
0000
0000
3FF8
0010
0020
00C0
0080
0080
0080
0080
0080
0080
0100
0200
0000
0000
0000
0000
ENDCHAR

STARTCHAR aba3
ENCODING 43939
SWIDTH 960 0
DWIDTH 16 0
BBX 16 18 0 -3
BITMAP
0000
0000
0000
0000
0000
0000
0040
0080
0380
0080
0080
0080
0000
0000
0000
0000
0000
0000
ENDCHAR

STARTCHAR aba4
ENCODING 43940
SWIDTH 960 0
DWIDTH 16 0
BBX 16 18 0 -3
BITMAP
0000
0000
0040
0040
0080
0180
0280
0480
0880
0080
0080
0080
0080
0080
0000
0000
0000
0000
ENDCHAR

STARTCHAR aba5
ENCODING 43941
SWIDTH 960 0
DWIDTH 16 0
BBX 16 18 0 -3
BITMAP
0000
0000
0000
0000
0000
0000
0100
0FC0
0840
0040
0080
0100
0000
0000
0000
0000
0000
0000
ENDCHAR

STARTCHAR aba6
ENCODING 43942
SWIDTH 960 0
DWIDTH 16 0
BBX 16 18 0 -3
BITMAP
0000
0000
0100
0100
3FF8
2008
2008
2010
0010
0020
0020
0040
0040
0080
0000
0000
0000
0000
ENDCHAR

STARTCHAR aba7
ENCODING 43943
SWIDTH 960 0
DWIDTH 16 0
BBX 16 18 0 -3
BITMAP
0000
0000
0000
0000
0000
0000
0000
03E0
0080
0080
07F0
0000
0000
0000
0000
0000
0000
0000
ENDCHAR

STARTCHAR aba8
ENCODING 43944
SWIDTH 960 0
DWIDTH 16 0
BBX 16 18 0 -3
BITMAP
0000
0000
0000
1FF0
0100
0100
0100
0100
0100
0100
3FF8
0000
0000
0000
0000
0000
0000
0000
ENDCHAR

STARTCHAR aba9
ENCODING 43945
SWIDTH 960 0
DWIDTH 16 0
BBX 16 18 0 -3
BITMAP
0000
0000
0000
0000
0000
0000
0000
0100
0100
07C0
0300
0500
0900
0300
0000
0000
0000
0000
ENDCHAR

STARTCHAR abaa
ENCODING 43946
SWIDTH 960 0
DWIDTH 16 0
BBX 16 18 0 -3
BITMAP
0000
0000
0080
0080
3FF8
0080
0180
0280
0480
0880
1080
2080
0280
0180
0000
0000
0000
0000
ENDCHAR

STARTCHAR abab
ENCODING 43947
SWIDTH 960 0
DWIDTH 16 0
BBX 16 18 0 -3
BITMAP
0000
0000
0200
0200
0200
3FF0
0210
0210
0210
0210
0410
0810
1020
20C0
0000
0000
0000
0000
ENDCHAR

STARTCHAR abac
ENCODING 43948
SWIDTH 960 0
DWIDTH 16 0
BBX 16 18 0 -3
BITMAP
0000
0000
0200
0228
0214
3FF0
0210
0210
0210
0210
0410
0810
1020
20C0
0000
0000
0000
0000
ENDCHAR

STARTCHAR abad
ENCODING 43949
SWIDTH 960 0
DWIDTH 16 0
BBX 16 18 0 -3
BITMAP
0000
0000
0200
0100
0100
01F0
0F00
0080
00F0
1F80
0040
0040
0020
0020
0000
0000
0000
0000
ENDCHAR

STARTCHAR abae
ENCODING 43950
SWIDTH 960 0
DWIDTH 16 0
BBX 16 18 0 -3
BITMAP
0000
0000
0200
0128
0114
01E0
0F00
0080
00F0
1F80
0040
0040
0020
0020
0000
0000
0000
0000
ENDCHAR

STARTCHAR abaf
ENCODING 43951
SWIDTH 960 0
DWIDTH 16 0
BBX 16 18 0 -3
BITMAP
0000
0000
0400
0400
07E0
0420
0420
0840
1040
0080
0080
0100
0200
0400
0000
0000
0000
0000
ENDCHAR

STARTCHAR abb0
ENCODING 43952
SWIDTH 960 0
DWIDTH 16 0
BBX 16 18 0 -3
BITMAP
0000
0000
0428
0414
07E0
0420
0420
0840
1040
0080
0080
0100
0200
0400
0000
0000
0000
0000
ENDCHAR

STARTCHAR abb1
ENCODING 43953
SWIDTH 960 0
DWIDTH 16 0
BBX 16 18 0 -3
BITMAP
0000
0000
0200
0200
0400
0FF8
1080
2080
0100
0100
0200
0200
0400
0800
0000
0000
0000
0000
ENDCHAR

STARTCHAR abb2
ENCODING 43954
SWIDTH 960 0
DWIDTH 16 0
BBX 16 18 0 -3
BITMAP
0000
0000
0010
0248
0220
0400
0FF8
1080
2080
0100
0100
0200
0400
0800
0000
0000
0000
0000
ENDCHAR

STARTCHAR abb3
ENCODING 43955
SWIDTH 960 0
DWIDTH 16 0
BBX 16 18 0 -3
BITMAP
0000
0000
0000
0000
0000
0000
0000
0FF8
0008
0008
0008
0008
0008
1FF8
0000
0000
0000
0000
ENDCHAR

STARTCHAR abb4
ENCODING 43956
SWIDTH 960 0
DWIDTH 16 0
BBX 16 18 0 -3
BITMAP
0000
0000
0000
0010
0008
0010
0008
1FF0
0010
0010
0010
0010
0010
3FF0
0000
0000
0000
0000
ENDCHAR

STARTCHAR abb5
ENCODING 43957
SWIDTH 960 0
DWIDTH 16 0
BBX 16 18 0 -3
BITMAP
0000
0000
0440
0440
0440
3FF8
0440
0440
0440
0440
0080
0080
0100
0200
0000
0000
0000
0000
ENDCHAR

STARTCHAR abb6
ENCODING 43958
SWIDTH 960 0
DWIDTH 16 0
BBX 16 18 0 -3
BITMAP
0000
0010
0448
0450
0448
3FF8
0440
0440
0440
0040
0080
0080
0100
0200
0000
0000
0000
0000
ENDCHAR

STARTCHAR abb7
ENCODING 43959
SWIDTH 960 0
DWIDTH 16 0
BBX 16 18 0 -3
BITMAP
0000
0000
0000
0400
0200
0000
0008
1010
0820
0040
0080
0100
0600
1800
0000
0000
0000
0000
ENDCHAR

STARTCHAR abb8
ENCODING 43960
SWIDTH 960 0
DWIDTH 16 0
BBX 16 18 0 -3
BITMAP
0000
0000
0010
0448
0220
0000
0000
1010
0820
0040
0080
0100
0600
1800
0000
0000
0000
0000
ENDCHAR

STARTCHAR abb9
ENCODING 43961
SWIDTH 960 0
DWIDTH 16 0
BBX 16 18 0 -3
BITMAP
0000
0000
0000
0000
3FF0
0020
0040
0080
0100
0280
0440
0820
1010
2008
0000
0000
0000
0000
ENDCHAR

STARTCHAR abba
ENCODING 43962
SWIDTH 960 0
DWIDTH 16 0
BBX 16 18 0 -3
BITMAP
0000
0000
0028
0014
1FF0
0020
0040
0080
0100
0300
0480
0840
1020
2010
0000
0000
0000
0000
ENDCHAR

STARTCHAR abbb
ENCODING 43963
SWIDTH 960 0
DWIDTH 16 0
BBX 16 18 0 -3
BITMAP
0000
0000
0000
0200
0200
0200
0200
3FF8
0210
0220
0240
0200
0200
01F8
0000
0000
0000
0000
ENDCHAR

STARTCHAR abbc
ENCODING 43964
SWIDTH 960 0
DWIDTH 16 0
BBX 16 18 0 -3
BITMAP
0000
0000
0010
0208
0220
0210
0200
3FF8
0210
0220
0240
0200
0200
01F8
0000
0000
0000
0000
ENDCHAR

STARTCHAR abbd
ENCODING 43965
SWIDTH 960 0
DWIDTH 16 0
BBX 16 18 0 -3
BITMAP
0000
0000
0000
0000
0000
0000
1020
1020
0840
0040
0080
0100
0200
0C00
0000
0000
0000
0000
ENDCHAR

STARTCHAR abbe
ENCODING 43966
SWIDTH 960 0
DWIDTH 16 0
BBX 16 18 0 -3
BITMAP
0000
0000
0000
0000
0010
0008
2050
2048
1080
0080
0100
0200
0400
1800
0000
0000
0000
0000
ENDCHAR

STARTCHAR abbf
ENCODING 43967
SWIDTH 960 0
DWIDTH 16 0
BBX 16 18 0 -3
BITMAP
0000
0000
0100
0100
03F0
0210
0420
0A20
1140
0080
0140
0200
0400
0800
0000
0000
0000
0000
ENDCHAR

STARTCHAR abc0
ENCODING 43968
SWIDTH 960 0
DWIDTH 16 0
BBX 16 18 0 -3
BITMAP
0000
0010
0208
0210
07E8
0420
0840
1440
2280
0100
0280
0400
0800
1000
0000
0000
0000
0000
ENDCHAR

STARTCHAR abc1
ENCODING 43969
SWIDTH 960 0
DWIDTH 16 0
BBX 16 18 0 -3
BITMAP
0000
0000
00E0
0F00
0100
0100
3FF8
0100
0100
0100
0100
0200
0400
0800
0000
0000
0000
0000
ENDCHAR

STARTCHAR abc2
ENCODING 43970
SWIDTH 960 0
DWIDTH 16 0
BBX 16 18 0 -3
BITMAP
0000
0000
00E8
0F04
0110
0108
3FF8
0100
0100
0100
0100
0200
0400
0800
0000
0000
0000
0000
ENDCHAR

STARTCHAR abc3
ENCODING 43971
SWIDTH 960 0
DWIDTH 16 0
BBX 16 18 0 -3
BITMAP
0000
0000
0000
0000
0000
0000
0000
0000
0910
0490
0020
0040
0080
0300
0000
0000
0000
0000
ENDCHAR

STARTCHAR abc4
ENCODING 43972
SWIDTH 960 0
DWIDTH 16 0
BBX 16 18 0 -3
BITMAP
0000
0000
0000
0000
0000
0020
2420
1220
1240
0040
0080
0100
0200
0C00
0000
0000
0000
0000
ENDCHAR

STARTCHAR abc5
ENCODING 43973
SWIDTH 960 0
DWIDTH 16 0
BBX 16 18 0 -3
BITMAP
0000
0000
0010
0048
0020
0000
2420
1220
1240
0040
0080
0100
0200
0C00
0000
0000
0000
0000
ENDCHAR

STARTCHAR abc6
ENCODING 43974
SWIDTH 960 0
DWIDTH 16 0
BBX 16 18 0 -3
BITMAP
0000
0000
0000
0FC0
0000
0000
3FF0
0100
0100
0100
0200
0400
0800
1000
0000
0000
0000
0000
ENDCHAR

STARTCHAR abc7
ENCODING 43975
SWIDTH 960 0
DWIDTH 16 0
BBX 16 18 0 -3
BITMAP
0000
0000
0010
0F88
0020
0010
3FE0
0200
0200
0200
0400
0800
1000
2000
0000
0000
0000
0000
ENDCHAR

STARTCHAR abc8
ENCODING 43976
SWIDTH 960 0
DWIDTH 16 0
BBX 16 18 0 -3
BITMAP
0000
0000
0100
0100
0100
0100
0180
0140
0120
0100
0100
0100
0100
0100
0000
0000
0000
0000
ENDCHAR

STARTCHAR abc9
ENCODING 43977
SWIDTH 960 0
DWIDTH 16 0
BBX 16 18 0 -3
BITMAP
0000
0000
0110
0108
0120
0110
0180
0140
0120
0100
0100
0100
0100
0100
0000
0000
0000
0000
ENDCHAR

STARTCHAR abca
ENCODING 43978
SWIDTH 960 0
DWIDTH 16 0
BBX 16 18 0 -3
BITMAP
0000
0000
0100
0100
0100
1FF0
0100
0100
0100
0100
0200
0400
0800
1000
0000
0000
0000
0000
ENDCHAR

STARTCHAR abcb
ENCODING 43979
SWIDTH 960 0
DWIDTH 16 0
BBX 16 18 0 -3
BITMAP
0000
0000
0000
0000
0000
0000
0000
0000
0FE0
0000
0000
0000
0000
3FF8
0000
0000
0000
0000
ENDCHAR

STARTCHAR abcc
ENCODING 43980
SWIDTH 960 0
DWIDTH 16 0
BBX 16 18 0 -3
BITMAP
0000
0000
0000
0FF8
0008
0010
0220
0140
0080
0140
0220
0400
0800
1000
0000
0000
0000
0000
ENDCHAR

STARTCHAR abcd
ENCODING 43981
SWIDTH 960 0
DWIDTH 16 0
BBX 16 18 0 -3
BITMAP
0000
0000
0100
0080
0000
0FF0
0040
0080
01A0
0290
0C88
0080
0080
0080
0000
0000
0000
0000
ENDCHAR

STARTCHAR abce
ENCODING 43982
SWIDTH 960 0
DWIDTH 16 0
BBX 16 18 0 -3
BITMAP
0000
0000
0000
0000
0000
0040
0040
0080
0080
0100
0100
0200
0400
0800
0000
0000
0000
0000
ENDCHAR

STARTCHAR abcf
ENCODING 43983
SWIDTH 960 0
DWIDTH 16 0
BBX 16 18 0 -3
BITMAP
0000
0000
0000
0000
0000
0000
0000
0000
0000
0200
0240
0420
0810
3008
0000
0000
0000
0000
ENDCHAR

STARTCHAR abd0
ENCODING 43984
SWIDTH 960 0
DWIDTH 16 0
BBX 16 18 0 -3
BITMAP
0000
0000
0000
0000
0000
0000
0010
0008
0020
0210
0240
0420
0810
3008
0000
0000
0000
0000
ENDCHAR

STARTCHAR abd1
ENCODING 43985
SWIDTH 960 0
DWIDTH 16 0
BBX 16 18 0 -3
BITMAP
0000
0000
0000
0000
0000
0000
0010
0028
0010
0200
0240
0420
0810
3008
0000
0000
0000
0000
ENDCHAR

STARTCHAR abd2
ENCODING 43986
SWIDTH 960 0
DWIDTH 16 0
BBX 16 18 0 -3
BITMAP
0000
0000
0000
0000
0000
0000
0800
0400
0470
0780
0400
0400
0400
03F8
0000
0000
0000
0000
ENDCHAR

STARTCHAR abd3
ENCODING 43987
SWIDTH 960 0
DWIDTH 16 0
BBX 16 18 0 -3
BITMAP
0000
0000
0000
0010
0008
1020
0810
0800
08E0
0F00
0800
0800
0800
07F8
0000
0000
0000
0000
ENDCHAR

STARTCHAR abd4
ENCODING 43988
SWIDTH 960 0
DWIDTH 16 0
BBX 16 18 0 -3
BITMAP
0000
0000
0000
0000
0010
0828
0410
0400
0470
0780
0400
0400
0400
03F8
0000
0000
0000
0000
ENDCHAR

STARTCHAR abd5
ENCODING 43989
SWIDTH 960 0
DWIDTH 16 0
BBX 16 18 0 -3
BITMAP
0000
0000
0000
0000
0000
3FF0
0008
0008
0010
0020
0040
0080
0100
0600
0000
0000
0000
0000
ENDCHAR

STARTCHAR abd6
ENCODING 43990
SWIDTH 960 0
DWIDTH 16 0
BBX 16 18 0 -3
BITMAP
0000
0000
0010
0048
0020
3FC0
0020
0020
0040
0080
0100
0200
0400
1800
0000
0000
0000
0000
ENDCHAR

STARTCHAR abd7
ENCODING 43991
SWIDTH 960 0
DWIDTH 16 0
BBX 16 18 0 -3
BITMAP
0000
0000
0010
0028
0010
1FE0
0010
0010
0010
0020
0040
0080
0100
0200
0000
0000
0000
0000
ENDCHAR

STARTCHAR abd8
ENCODING 43992
SWIDTH 960 0
DWIDTH 16 0
BBX 16 18 0 -3
BITMAP
0000
0000
0000
0000
0000
0000
0000
0000
0000
0C00
1200
2180
0060
0010
0000
0000
0000
0000
ENDCHAR

STARTCHAR abd9
ENCODING 43993
SWIDTH 960 0
DWIDTH 16 0
BBX 16 18 0 -3
BITMAP
0000
0000
0000
0000
0000
0020
0010
0040
0020
0C00
1200
2180
0060
0010
0000
0000
0000
0000
ENDCHAR

STARTCHAR abda
ENCODING 43994
SWIDTH 960 0
DWIDTH 16 0
BBX 16 18 0 -3
BITMAP
0000
0000
0000
0000
0000
0000
0020
0050
0020
0C00
1200
2180
0060
0010
0000
0000
0000
0000
ENDCHAR

STARTCHAR abdb
ENCODING 43995
SWIDTH 960 0
DWIDTH 16 0
BBX 16 18 0 -3
BITMAP
0000
0000
0100
0100
0100
3FF8
0100
0100
0900
0920
1110
2108
0500
0300
0000
0000
0000
0000
ENDCHAR

STARTCHAR abdc
ENCODING 43996
SWIDTH 960 0
DWIDTH 16 0
BBX 16 18 0 -3
BITMAP
0000
0000
0108
0124
0110
3FF8
0100
0100
0900
0920
1110
2108
0500
0300
0000
0000
0000
0000
ENDCHAR

STARTCHAR abdd
ENCODING 43997
SWIDTH 960 0
DWIDTH 16 0
BBX 16 18 0 -3
BITMAP
0000
0010
0128
0110
0100
3FF0
0100
0100
0900
0920
1110
2108
0500
0300
0000
0000
0000
0000
ENDCHAR

STARTCHAR abde
ENCODING 43998
SWIDTH 960 0
DWIDTH 16 0
BBX 16 18 0 -3
BITMAP
0000
0000
0000
0000
0000
0000
0000
0000
1FF8
0010
0020
0340
0080
0040
0000
0000
0000
0000
ENDCHAR

STARTCHAR abdf
ENCODING 43999
SWIDTH 960 0
DWIDTH 16 0
BBX 16 18 0 -3
BITMAP
0000
0000
0000
0000
0200
0100
0080
0200
0100
0080
0000
0200
0100
0080
0000
0000
0000
0000
ENDCHAR

STARTCHAR abe0
ENCODING 44000
SWIDTH 960 0
DWIDTH 16 0
BBX 16 18 0 -3
BITMAP
0000
0000
0000
0000
0000
0000
0000
0080
0100
0200
0420
0810
1FF8
0004
0000
0000
0000
0000
ENDCHAR

STARTCHAR abe1
ENCODING 44001
SWIDTH 960 0
DWIDTH 16 0
BBX 16 18 0 -3
BITMAP
0000
0000
0000
0000
0040
0040
0040
0080
0680
0180
0140
0200
0400
0800
0000
0000
0000
0000
ENDCHAR

STARTCHAR abe2
ENCODING 44002
SWIDTH 960 0
DWIDTH 16 0
BBX 16 18 0 -3
BITMAP
0000
0000
0000
0000
0000
0000
0FE0
0100
0100
3FF8
0100
0100
0100
00F0
0000
0000
0000
0000
ENDCHAR

STARTCHAR abe3
ENCODING 44003
SWIDTH 960 0
DWIDTH 16 0
BBX 16 18 0 -3
BITMAP
0000
0000
0000
0000
0000
0000
0000
0400
0200
0FF0
0120
0140
0100
0100
0000
0000
0000
0000
ENDCHAR

STARTCHAR abe4
ENCODING 44004
SWIDTH 960 0
DWIDTH 16 0
BBX 16 18 0 -3
BITMAP
0000
0000
0000
0400
0400
0200
3FF8
0210
0220
0100
0100
0100
0080
0080
0000
0000
0000
0000
ENDCHAR

STARTCHAR abe5
ENCODING 44005
SWIDTH 960 0
DWIDTH 16 0
BBX 16 18 0 -3
BITMAP
0000
0000
0000
0000
0000
0000
0000
0000
0000
0000
07C0
0040
0040
0FF0
0000
0000
0000
0000
ENDCHAR

STARTCHAR abe6
ENCODING 44006
SWIDTH 960 0
DWIDTH 16 0
BBX 16 18 0 -3
BITMAP
0000
0000
0000
0000
0000
0000
0000
1FC0
0040
0040
0040
0040
0040
3FF8
0000
0000
0000
0000
ENDCHAR

STARTCHAR abe7
ENCODING 44007
SWIDTH 960 0
DWIDTH 16 0
BBX 16 18 0 -3
BITMAP
0000
0000
0000
0000
0000
0000
0000
07F0
0010
0010
07F0
0020
0020
07E0
0000
0000
0000
0000
ENDCHAR

STARTCHAR abe8
ENCODING 44008
SWIDTH 960 0
DWIDTH 16 0
BBX 16 18 0 -3
BITMAP
0000
0000
0000
0000
0000
3FF8
0008
0008
0008
3FF8
0010
0010
0010
3FF0
0000
0000
0000
0000
ENDCHAR

STARTCHAR abe9
ENCODING 44009
SWIDTH 960 0
DWIDTH 16 0
BBX 16 18 0 -3
BITMAP
0000
0000
0000
07C0
0000
0000
1FF0
0010
0020
0040
0080
0100
0200
0400
0000
0000
0000
0000
ENDCHAR

STARTCHAR abea
ENCODING 44010
SWIDTH 960 0
DWIDTH 16 0
BBX 16 18 0 -3
BITMAP
0000
0000
0040
0440
0440
0440
0440
0440
0440
0440
0040
0040
0080
0100
0000
0000
0000
0000
ENDCHAR

STARTCHAR abeb
ENCODING 44011
SWIDTH 960 0
DWIDTH 16 0
BBX 16 18 0 -3
BITMAP
0000
0000
0000
0000
0000
0000
0480
0480
0480
0480
0488
0890
10E0
2000
0000
0000
0000
0000
ENDCHAR

STARTCHAR abec
ENCODING 44012
SWIDTH 960 0
DWIDTH 16 0
BBX 16 18 0 -3
BITMAP
0000
0000
0000
0000
0000
0000
0400
0400
0400
0408
0410
0420
04C0
0700
0000
0000
0000
0000
ENDCHAR

STARTCHAR abed
ENCODING 44013
SWIDTH 960 0
DWIDTH 16 0
BBX 16 18 0 -3
BITMAP
0000
0000
0000
0000
0000
0000
0000
1FF0
1010
1010
1010
1010
1010
1FF0
0000
0000
0000
0000
ENDCHAR

STARTCHAR abee
ENCODING 44014
SWIDTH 960 0
DWIDTH 16 0
BBX 16 18 0 -3
BITMAP
0000
0000
0000
0000
0000
0000
0000
0000
0FE0
0820
0820
0020
0040
0080
0000
0000
0000
0000
ENDCHAR

STARTCHAR abef
ENCODING 44015
SWIDTH 960 0
DWIDTH 16 0
BBX 16 18 0 -3
BITMAP
0000
0000
0000
1FF8
1008
1008
1008
1008
0010
0010
0020
0040
0080
0100
0000
0000
0000
0000
ENDCHAR

STARTCHAR abf0
ENCODING 44016
SWIDTH 960 0
DWIDTH 16 0
BBX 16 18 0 -3
BITMAP
0000
0000
0000
0000
0080
0080
0080
07E0
0480
0480
1FF0
0080
0080
0080
0000
0000
0000
0000
ENDCHAR

STARTCHAR abf1
ENCODING 44017
SWIDTH 960 0
DWIDTH 16 0
BBX 16 18 0 -3
BITMAP
0000
0000
0000
0000
0000
0000
0000
0000
0FF0
0020
00C0
0080
0080
1FF8
0000
0000
0000
0000
ENDCHAR

STARTCHAR abf2
ENCODING 44018
SWIDTH 960 0
DWIDTH 16 0
BBX 16 18 0 -3
BITMAP
0000
0000
0000
0000
0000
1FF0
0010
0010
1FE0
0020
0040
0040
0080
0100
0000
0000
0000
0000
ENDCHAR

STARTCHAR abf3
ENCODING 44019
SWIDTH 960 0
DWIDTH 16 0
BBX 16 18 0 -3
BITMAP
0000
0000
0000
0000
0000
2000
1808
0010
0020
0040
0080
0100
0600
1800
0000
0000
0000
0000
ENDCHAR

STARTCHAR abf4
ENCODING 44020
SWIDTH 960 0
DWIDTH 16 0
BBX 16 18 0 -3
BITMAP
0000
0000
0208
0204
3FE8
2024
2020
2040
0040
0080
0080
0100
0100
0200
0000
0000
0000
0000
ENDCHAR

STARTCHAR abf5
ENCODING 44021
SWIDTH 960 0
DWIDTH 16 0
BBX 16 18 0 -3
BITMAP
0000
0000
0000
0000
0100
0100
0100
0FE0
0120
0120
0120
0220
0440
0880
0000
0000
0000
0000
ENDCHAR

STARTCHAR abf6
ENCODING 44022
SWIDTH 960 0
DWIDTH 16 0
BBX 16 18 0 -3
BITMAP
0000
0000
0000
0000
0200
0200
07F0
0880
1080
0100
0100
0200
0400
0800
0000
0000
0000
0000
ENDCHAR

STARTCHAR aca1
ENCODING 44193
SWIDTH 960 0
DWIDTH 16 0
BBX 16 18 0 -3
BITMAP
0000
0000
0000
0180
0180
02C0
02C0
0460
0460
0830
0FF0
1018
1018
200C
701E
0000
0000
0000
ENDCHAR

STARTCHAR aca2
ENCODING 44194
SWIDTH 960 0
DWIDTH 16 0
BBX 16 18 0 -3
BITMAP
0000
0000
0000
0000
1FC0
0820
0810
0800
0800
0FC0
0820
0810
0810
0820
1FC0
0000
0000
0000
ENDCHAR

STARTCHAR aca3
ENCODING 44195
SWIDTH 960 0
DWIDTH 16 0
BBX 16 18 0 -3
BITMAP
0000
0000
0000
0000
1FC0
0820
0810
0810
0820
0FC0
0820
0810
0810
0820
1FC0
0000
0000
0000
ENDCHAR

STARTCHAR aca4
ENCODING 44196
SWIDTH 960 0
DWIDTH 16 0
BBX 16 18 0 -3
BITMAP
0000
0000
0000
0000
0FF0
0408
0400
0400
0400
0400
0400
0400
0400
0400
0E00
0000
0000
0000
ENDCHAR

STARTCHAR aca5
ENCODING 44197
SWIDTH 960 0
DWIDTH 16 0
BBX 16 18 0 -3
BITMAP
0000
0000
0000
0000
0FF0
0420
0220
0220
0220
0220
0220
0420
0810
1FFC
2004
0000
0000
0000
ENDCHAR

STARTCHAR aca6
ENCODING 44198
SWIDTH 960 0
DWIDTH 16 0
BBX 16 18 0 -3
BITMAP
0000
0000
0000
0000
0FF0
0808
0800
0800
0840
0FC0
0840
0800
0808
0818
0FF8
0000
0000
0000
ENDCHAR

STARTCHAR aca7
ENCODING 44199
SWIDTH 960 0
DWIDTH 16 0
BBX 16 18 0 -3
BITMAP
0000
0630
0630
0000
0FF0
0808
0800
0800
0840
0FC0
0840
0800
0808
0818
0FF8
0000
0000
0000
ENDCHAR

STARTCHAR aca8
ENCODING 44200
SWIDTH 960 0
DWIDTH 16 0
BBX 16 18 0 -3
BITMAP
0000
0000
0000
0000
31CC
1084
1088
0890
04A0
03C0
04A0
0890
1088
1084
39CE
0000
0000
0000
ENDCHAR

STARTCHAR aca9
ENCODING 44201
SWIDTH 960 0
DWIDTH 16 0
BBX 16 18 0 -3
BITMAP
0000
0000
0000
0000
03C0
0420
0010
0010
0020
03C0
0020
0010
0810
0420
03C0
0000
0000
0000
ENDCHAR

STARTCHAR acaa
ENCODING 44202
SWIDTH 960 0
DWIDTH 16 0
BBX 16 18 0 -3
BITMAP
0000
0000
0000
0000
1C1C
0808
0818
0828
0848
0888
0908
0A08
0C08
0808
1C1C
0000
0000
0000
ENDCHAR

STARTCHAR acab
ENCODING 44203
SWIDTH 960 0
DWIDTH 16 0
BBX 16 18 0 -3
BITMAP
0000
0220
01C0
0000
1C1C
0808
0818
0828
0848
0888
0908
0A08
0C08
0808
1C1C
0000
0000
0000
ENDCHAR

STARTCHAR acac
ENCODING 44204
SWIDTH 960 0
DWIDTH 16 0
BBX 16 18 0 -3
BITMAP
0000
0000
0000
0000
3800
1010
1030
10C0
1300
1C00
1200
1100
1080
1040
3830
0000
0000
0000
ENDCHAR

STARTCHAR acad
ENCODING 44205
SWIDTH 960 0
DWIDTH 16 0
BBX 16 18 0 -3
BITMAP
0000
0000
0000
0000
03F0
0210
0210
0210
0210
0210
0210
0210
0210
1410
0838
0000
0000
0000
ENDCHAR

STARTCHAR acae
ENCODING 44206
SWIDTH 960 0
DWIDTH 16 0
BBX 16 18 0 -3
BITMAP
0000
0000
0000
0000
0808
0C18
0A28
0A28
0948
0948
0888
0888
0808
0808
1C1C
0000
0000
0000
ENDCHAR

STARTCHAR acaf
ENCODING 44207
SWIDTH 960 0
DWIDTH 16 0
BBX 16 18 0 -3
BITMAP
0000
0000
0000
0000
1C38
0810
0810
0810
0810
0FF0
0810
0810
0810
0810
1C38
0000
0000
0000
ENDCHAR

STARTCHAR acb0
ENCODING 44208
SWIDTH 960 0
DWIDTH 16 0
BBX 16 18 0 -3
BITMAP
0000
0000
0000
0000
03C0
0420
0810
1008
1008
1008
1008
1008
0810
0420
03C0
0000
0000
0000
ENDCHAR

STARTCHAR acb1
ENCODING 44209
SWIDTH 960 0
DWIDTH 16 0
BBX 16 18 0 -3
BITMAP
0000
0000
0000
0000
1FF8
0810
0810
0810
0810
0810
0810
0810
0810
0810
1C38
0000
0000
0000
ENDCHAR

STARTCHAR acb2
ENCODING 44210
SWIDTH 960 0
DWIDTH 16 0
BBX 16 18 0 -3
BITMAP
0000
0000
0000
0000
1FC0
0820
0810
0810
0820
0FC0
0800
0800
0800
0800
1C00
0000
0000
0000
ENDCHAR

STARTCHAR acb3
ENCODING 44211
SWIDTH 960 0
DWIDTH 16 0
BBX 16 18 0 -3
BITMAP
0000
0000
0000
0000
03E0
0418
0804
1000
1000
1000
1000
1000
0804
0418
03E0
0000
0000
0000
ENDCHAR

STARTCHAR acb4
ENCODING 44212
SWIDTH 960 0
DWIDTH 16 0
BBX 16 18 0 -3
BITMAP
0000
0000
0000
0000
1FFC
2082
0080
0080
0080
0080
0080
0080
0080
0080
01C0
0000
0000
0000
ENDCHAR

STARTCHAR acb5
ENCODING 44213
SWIDTH 960 0
DWIDTH 16 0
BBX 16 18 0 -3
BITMAP
0000
0000
0000
0000
1C1C
0808
0410
0220
0220
0140
0080
0100
0200
2400
1800
0000
0000
0000
ENDCHAR

STARTCHAR acb6
ENCODING 44214
SWIDTH 960 0
DWIDTH 16 0
BBX 16 18 0 -3
BITMAP
0000
0000
0000
0000
01C0
0080
07F0
0888
1084
1084
1084
0888
07F0
0080
01C0
0000
0000
0000
ENDCHAR

STARTCHAR acb7
ENCODING 44215
SWIDTH 960 0
DWIDTH 16 0
BBX 16 18 0 -3
BITMAP
0000
0000
0000
0000
3838
1010
0820
0440
0280
0100
0280
0440
0820
1010
3838
0000
0000
0000
ENDCHAR

STARTCHAR acb8
ENCODING 44216
SWIDTH 960 0
DWIDTH 16 0
BBX 16 18 0 -3
BITMAP
0000
0000
0000
0000
0E38
0410
0410
0410
0410
0410
0410
0410
0FF8
0004
0004
0000
0000
0000
ENDCHAR

STARTCHAR acb9
ENCODING 44217
SWIDTH 960 0
DWIDTH 16 0
BBX 16 18 0 -3
BITMAP
0000
0000
0000
0000
0E38
0410
0410
0410
0410
03F0
0010
0010
0010
0010
0038
0000
0000
0000
ENDCHAR

STARTCHAR acba
ENCODING 44218
SWIDTH 960 0
DWIDTH 16 0
BBX 16 18 0 -3
BITMAP
0000
0000
0000
0000
39CE
1084
1084
1084
1084
1084
1084
1084
1084
1084
3FFE
0000
0000
0000
ENDCHAR

STARTCHAR acbb
ENCODING 44219
SWIDTH 960 0
DWIDTH 16 0
BBX 16 18 0 -3
BITMAP
0000
0000
39CE
1084
1084
1084
1084
1084
1084
1084
1084
1084
3FFE
0001
0001
0000
0000
0000
ENDCHAR

STARTCHAR acbc
ENCODING 44220
SWIDTH 960 0
DWIDTH 16 0
BBX 16 18 0 -3
BITMAP
0000
0000
0000
0000
1E00
2200
0200
0200
03E0
0210
0208
0208
0208
0210
07E0
0000
0000
0000
ENDCHAR

STARTCHAR acbd
ENCODING 44221
SWIDTH 960 0
DWIDTH 16 0
BBX 16 18 0 -3
BITMAP
0000
0000
0000
0000
380E
1004
1004
1004
1F04
1084
1044
1044
1044
1084
3F0E
0000
0000
0000
ENDCHAR

STARTCHAR acbe
ENCODING 44222
SWIDTH 960 0
DWIDTH 16 0
BBX 16 18 0 -3
BITMAP
0000
0000
0000
0000
0E00
0400
0400
0400
07C0
0420
0410
0410
0410
0420
0FC0
0000
0000
0000
ENDCHAR

STARTCHAR acbf
ENCODING 44223
SWIDTH 960 0
DWIDTH 16 0
BBX 16 18 0 -3
BITMAP
0000
0000
0000
0000
03C0
0C30
0008
0004
071C
08E4
0004
0004
1008
0C30
03C0
0000
0000
0000
ENDCHAR

STARTCHAR acc0
ENCODING 44224
SWIDTH 960 0
DWIDTH 16 0
BBX 16 18 0 -3
BITMAP
0000
0000
0000
0000
70F0
2108
2204
2204
2204
3E04
2204
2204
2204
2108
70F0
0000
0000
0000
ENDCHAR

STARTCHAR acc1
ENCODING 44225
SWIDTH 960 0
DWIDTH 16 0
BBX 16 18 0 -3
BITMAP
0000
0000
0000
0000
03F0
0410
0810
0810
0410
03F0
0110
0210
0410
0810
1C38
0000
0000
0000
ENDCHAR

STARTCHAR acd1
ENCODING 44241
SWIDTH 960 0
DWIDTH 16 0
BBX 16 18 0 -3
BITMAP
0000
0000
0000
0000
0000
0000
0000
03C0
0420
0020
03E0
0420
0420
0420
03D0
0000
0000
0000
ENDCHAR

STARTCHAR acd2
ENCODING 44242
SWIDTH 960 0
DWIDTH 16 0
BBX 16 18 0 -3
BITMAP
0000
0000
0000
0000
0000
00E8
0110
01C0
0220
0410
0410
0410
0410
0220
01C0
0000
0000
0000
ENDCHAR

STARTCHAR acd3
ENCODING 44243
SWIDTH 960 0
DWIDTH 16 0
BBX 16 18 0 -3
BITMAP
0000
0000
0000
0000
0000
0000
07C0
0220
0220
0220
03C0
0220
0220
0220
07C0
0000
0000
0000
ENDCHAR

STARTCHAR acd4
ENCODING 44244
SWIDTH 960 0
DWIDTH 16 0
BBX 16 18 0 -3
BITMAP
0000
0000
0000
0000
0000
0000
0000
07E0
0210
0200
0200
0200
0200
0200
0700
0000
0000
0000
ENDCHAR

STARTCHAR acd5
ENCODING 44245
SWIDTH 960 0
DWIDTH 16 0
BBX 16 18 0 -3
BITMAP
0000
0000
0000
0000
0000
0000
0000
03E0
0140
0140
0140
0240
0420
07F0
0808
0000
0000
0000
ENDCHAR

STARTCHAR acd6
ENCODING 44246
SWIDTH 960 0
DWIDTH 16 0
BBX 16 18 0 -3
BITMAP
0000
0000
0000
0000
0000
0000
0000
0000
01C0
0220
0410
07F0
0400
0200
01E0
0000
0000
0000
ENDCHAR

STARTCHAR acd7
ENCODING 44247
SWIDTH 960 0
DWIDTH 16 0
BBX 16 18 0 -3
BITMAP
0000
0000
0000
0000
0000
0000
0220
0000
01C0
0220
0410
07F0
0400
0200
01E0
0000
0000
0000
ENDCHAR

STARTCHAR acd8
ENCODING 44248
SWIDTH 960 0
DWIDTH 16 0
BBX 16 18 0 -3
BITMAP
0000
0000
0000
0000
0000
0000
0000
19CC
0490
02A0
01C0
02A0
0490
0888
19CC
0000
0000
0000
ENDCHAR

STARTCHAR acd9
ENCODING 44249
SWIDTH 960 0
DWIDTH 16 0
BBX 16 18 0 -3
BITMAP
0000
0000
0000
0000
0000
0000
03C0
0420
0020
0020
01C0
0020
0020
0420
03C0
0000
0000
0000
ENDCHAR

STARTCHAR acda
ENCODING 44250
SWIDTH 960 0
DWIDTH 16 0
BBX 16 18 0 -3
BITMAP
0000
0000
0000
0000
0000
0000
0000
0E70
0420
0460
04A0
0520
0620
0420
0E70
0000
0000
0000
ENDCHAR

STARTCHAR acdb
ENCODING 44251
SWIDTH 960 0
DWIDTH 16 0
BBX 16 18 0 -3
BITMAP
0000
0000
0000
0000
0240
0180
0000
0E70
0420
0460
04A0
0520
0620
0420
0E70
0000
0000
0000
ENDCHAR

STARTCHAR acdc
ENCODING 44252
SWIDTH 960 0
DWIDTH 16 0
BBX 16 18 0 -3
BITMAP
0000
0000
0000
0000
0000
0000
0E30
0420
0440
0580
0600
0580
0440
0420
0E30
0000
0000
0000
ENDCHAR

STARTCHAR acdd
ENCODING 44253
SWIDTH 960 0
DWIDTH 16 0
BBX 16 18 0 -3
BITMAP
0000
0000
0000
0000
0000
0000
0000
03C0
0240
0240
0240
0240
0240
1440
0860
0000
0000
0000
ENDCHAR

STARTCHAR acde
ENCODING 44254
SWIDTH 960 0
DWIDTH 16 0
BBX 16 18 0 -3
BITMAP
0000
0000
0000
0000
0000
0000
0000
0410
0630
0550
0550
0490
0490
0410
0E38
0000
0000
0000
ENDCHAR

STARTCHAR acdf
ENCODING 44255
SWIDTH 960 0
DWIDTH 16 0
BBX 16 18 0 -3
BITMAP
0000
0000
0000
0000
0000
0000
0000
0770
0220
0220
03E0
0220
0220
0220
0770
0000
0000
0000
ENDCHAR

STARTCHAR ace0
ENCODING 44256
SWIDTH 960 0
DWIDTH 16 0
BBX 16 18 0 -3
BITMAP
0000
0000
0000
0000
0000
0000
0000
01C0
0220
0410
0410
0410
0410
0220
01C0
0000
0000
0000
ENDCHAR

STARTCHAR ace1
ENCODING 44257
SWIDTH 960 0
DWIDTH 16 0
BBX 16 18 0 -3
BITMAP
0000
0000
0000
0000
0000
0000
0000
07F0
0220
0220
0220
0220
0220
0220
0770
0000
0000
0000
ENDCHAR

STARTCHAR ace2
ENCODING 44258
SWIDTH 960 0
DWIDTH 16 0
BBX 16 18 0 -3
BITMAP
0000
0000
0000
0000
0000
0000
0000
07C0
0220
0220
0220
03C0
0200
0200
0700
0000
0000
0000
ENDCHAR

STARTCHAR ace3
ENCODING 44259
SWIDTH 960 0
DWIDTH 16 0
BBX 16 18 0 -3
BITMAP
0000
0000
0000
0000
0000
0000
0000
01C0
0220
0410
0400
0400
0410
0220
01C0
0000
0000
0000
ENDCHAR

STARTCHAR ace4
ENCODING 44260
SWIDTH 960 0
DWIDTH 16 0
BBX 16 18 0 -3
BITMAP
0000
0000
0000
0000
0000
0000
0000
07F0
0888
0080
0080
0080
0080
0080
01C0
0000
0000
0000
ENDCHAR

STARTCHAR ace5
ENCODING 44261
SWIDTH 960 0
DWIDTH 16 0
BBX 16 18 0 -3
BITMAP
0000
0000
0000
0000
0000
0000
0000
0C30
0420
0240
0180
0100
0200
1400
0800
0000
0000
0000
ENDCHAR

STARTCHAR ace6
ENCODING 44262
SWIDTH 960 0
DWIDTH 16 0
BBX 16 18 0 -3
BITMAP
0000
0000
0000
0000
0000
0000
01C0
0080
07F0
0888
0888
0888
07F0
0080
01C0
0000
0000
0000
ENDCHAR

STARTCHAR ace7
ENCODING 44263
SWIDTH 960 0
DWIDTH 16 0
BBX 16 18 0 -3
BITMAP
0000
0000
0000
0000
0000
0000
0E38
0410
0220
0140
0080
0140
0220
0410
0E38
0000
0000
0000
ENDCHAR

STARTCHAR ace8
ENCODING 44264
SWIDTH 960 0
DWIDTH 16 0
BBX 16 18 0 -3
BITMAP
0000
0000
0000
0000
0000
0000
0770
0220
0220
0220
0220
0220
07F0
0008
0008
0000
0000
0000
ENDCHAR

STARTCHAR ace9
ENCODING 44265
SWIDTH 960 0
DWIDTH 16 0
BBX 16 18 0 -3
BITMAP
0000
0000
0000
0000
0000
0000
0000
0770
0220
0220
0220
01E0
0020
0020
0070
0000
0000
0000
ENDCHAR

STARTCHAR acea
ENCODING 44266
SWIDTH 960 0
DWIDTH 16 0
BBX 16 18 0 -3
BITMAP
0000
0000
0000
0000
0000
0000
0000
0000
1DDC
0888
0888
0888
0888
0888
0FF8
0000
0000
0000
ENDCHAR

STARTCHAR aceb
ENCODING 44267
SWIDTH 960 0
DWIDTH 16 0
BBX 16 18 0 -3
BITMAP
0000
0000
0000
0000
0000
0000
0000
1DDC
0888
0888
0888
0888
0888
0FFC
0004
0000
0000
0000
ENDCHAR

STARTCHAR acec
ENCODING 44268
SWIDTH 960 0
DWIDTH 16 0
BBX 16 18 0 -3
BITMAP
0000
0000
0000
0000
0000
0000
0000
0700
0900
0100
01E0
0110
0110
0110
03E0
0000
0000
0000
ENDCHAR

STARTCHAR aced
ENCODING 44269
SWIDTH 960 0
DWIDTH 16 0
BBX 16 18 0 -3
BITMAP
0000
0000
0000
0000
0000
0000
0000
1C38
0810
0810
0F10
0890
0890
0890
1F38
0000
0000
0000
ENDCHAR

STARTCHAR acee
ENCODING 44270
SWIDTH 960 0
DWIDTH 16 0
BBX 16 18 0 -3
BITMAP
0000
0000
0000
0000
0000
0000
0000
0700
0200
0200
03C0
0220
0220
0220
07C0
0000
0000
0000
ENDCHAR

STARTCHAR acef
ENCODING 44271
SWIDTH 960 0
DWIDTH 16 0
BBX 16 18 0 -3
BITMAP
0000
0000
0000
0000
0000
0000
0000
03C0
0420
0010
01F0
0210
0810
0420
03C0
0000
0000
0000
ENDCHAR

STARTCHAR acf0
ENCODING 44272
SWIDTH 960 0
DWIDTH 16 0
BBX 16 18 0 -3
BITMAP
0000
0000
0000
0000
0000
0000
0000
0000
1C60
0890
0908
0F08
0908
0890
1C60
0000
0000
0000
ENDCHAR

STARTCHAR acf1
ENCODING 44273
SWIDTH 960 0
DWIDTH 16 0
BBX 16 18 0 -3
BITMAP
0000
0000
0000
0000
0000
0000
0000
01E0
0220
0220
0220
01E0
0120
0220
0770
0000
0000
0000
ENDCHAR

STARTCHAR b0a1
ENCODING 45217
SWIDTH 960 0
DWIDTH 16 0
BBX 16 18 0 -3
BITMAP
0000
0010
0010
3F90
0090
0090
0110
021C
0410
0810
1010
0010
0010
0010
0010
0000
0000
0000
ENDCHAR

STARTCHAR b0a2
ENCODING 45218
SWIDTH 960 0
DWIDTH 16 0
BBX 16 18 0 -3
BITMAP
0000
0010
3F90
0090
0110
0210
041C
0810
0010
0000
1FF0
0010
0010
0010
0010
0000
0000
0000
ENDCHAR

STARTCHAR b0a3
ENCODING 45219
SWIDTH 960 0
DWIDTH 16 0
BBX 16 18 0 -3
BITMAP
0000
0010
3F90
0090
0110
0210
041C
0810
0010
0000
1000
1000
1000
1000
1FF0
0000
0000
0000
ENDCHAR

STARTCHAR b0a4
ENCODING 45220
SWIDTH 960 0
DWIDTH 16 0
BBX 16 18 0 -3
BITMAP
0000
0010
3F90
0090
0110
0210
041C
0810
0010
0000
1FF0
1000
1000
1000
1FF0
0000
0000
0000
ENDCHAR

STARTCHAR b0a5
ENCODING 45221
SWIDTH 960 0
DWIDTH 16 0
BBX 16 18 0 -3
BITMAP
0000
0010
3F90
0090
0110
0210
041C
0810
0010
0000
1FF0
0010
1FF0
1000
1FF0
0000
0000
0000
ENDCHAR

STARTCHAR b0a6
ENCODING 45222
SWIDTH 960 0
DWIDTH 16 0
BBX 16 18 0 -3
BITMAP
0000
0010
3F90
0090
0110
0210
041C
0810
0010
0000
1EF0
0210
1E10
1010
1E10
0000
0000
0000
ENDCHAR

STARTCHAR b0a7
ENCODING 45223
SWIDTH 960 0
DWIDTH 16 0
BBX 16 18 0 -3
BITMAP
0000
0010
3F90
0090
0110
0210
041C
0810
0010
0000
1EF0
0290
1E90
1090
1EF0
0000
0000
0000
ENDCHAR

STARTCHAR b0a8
ENCODING 45224
SWIDTH 960 0
DWIDTH 16 0
BBX 16 18 0 -3
BITMAP
0000
0010
3F90
0090
0110
0210
041C
0810
0010
0000
1FF0
1010
1010
1010
1FF0
0000
0000
0000
ENDCHAR

STARTCHAR b0a9
ENCODING 45225
SWIDTH 960 0
DWIDTH 16 0
BBX 16 18 0 -3
BITMAP
0000
0010
3F90
0090
0110
0210
041C
0810
0010
0000
1010
1010
1FF0
1010
1FF0
0000
0000
0000
ENDCHAR

STARTCHAR b0aa
ENCODING 45226
SWIDTH 960 0
DWIDTH 16 0
BBX 16 18 0 -3
BITMAP
0000
0010
3F90
0090
0110
0210
041C
0810
0010
0000
1240
1240
1E40
12A0
1F10
0000
0000
0000
ENDCHAR

STARTCHAR b0ab
ENCODING 45227
SWIDTH 960 0
DWIDTH 16 0
BBX 16 18 0 -3
BITMAP
0000
0010
3F90
0090
0110
0210
041C
0810
0010
0000
0100
0280
0440
0820
1010
0000
0000
0000
ENDCHAR

STARTCHAR b0ac
ENCODING 45228
SWIDTH 960 0
DWIDTH 16 0
BBX 16 18 0 -3
BITMAP
0000
0010
3F90
0090
0110
0210
041C
0810
0010
0000
0420
0420
0C60
1290
2108
0000
0000
0000
ENDCHAR

STARTCHAR b0ad
ENCODING 45229
SWIDTH 960 0
DWIDTH 16 0
BBX 16 18 0 -3
BITMAP
0000
0010
3F90
0090
0110
0210
041C
0810
0010
0000
0FE0
1010
1010
1010
0FE0
0000
0000
0000
ENDCHAR

STARTCHAR b0ae
ENCODING 45230
SWIDTH 960 0
DWIDTH 16 0
BBX 16 18 0 -3
BITMAP
0000
0010
3F90
0090
0110
0210
041C
0810
0010
0000
1FF0
0280
0440
0820
1010
0000
0000
0000
ENDCHAR

STARTCHAR b0af
ENCODING 45231
SWIDTH 960 0
DWIDTH 16 0
BBX 16 18 0 -3
BITMAP
0000
0010
3F90
0090
0110
0210
041C
0810
0010
0000
0100
1FF0
0440
0820
1010
0000
0000
0000
ENDCHAR

STARTCHAR b0b0
ENCODING 45232
SWIDTH 960 0
DWIDTH 16 0
BBX 16 18 0 -3
BITMAP
0000
0010
3F90
0090
0110
0210
041C
0810
0010
0000
1FF0
1000
1FF0
1000
1FF0
0000
0000
0000
ENDCHAR

STARTCHAR b0b1
ENCODING 45233
SWIDTH 960 0
DWIDTH 16 0
BBX 16 18 0 -3
BITMAP
0000
0010
3F90
0090
0110
0210
041C
0810
0010
0000
1FF0
0440
0440
0440
1FF0
0000
0000
0000
ENDCHAR

STARTCHAR b0b2
ENCODING 45234
SWIDTH 960 0
DWIDTH 16 0
BBX 16 18 0 -3
BITMAP
0000
0010
3F90
0090
0110
0210
041C
0810
0010
0000
0100
1FF0
0FE0
1010
0FE0
0000
0000
0000
ENDCHAR

STARTCHAR b0b3
ENCODING 45235
SWIDTH 960 0
DWIDTH 16 0
BBX 16 18 0 -3
BITMAP
0000
0028
0028
3FA8
00A8
00A8
0128
0238
0428
0828
1028
0028
0028
0028
0028
0000
0000
0000
ENDCHAR

STARTCHAR b0b4
ENCODING 45236
SWIDTH 960 0
DWIDTH 16 0
BBX 16 18 0 -3
BITMAP
0000
0028
3FA8
00A8
0128
0238
0428
0828
0028
0000
1FF0
0010
0010
0010
0010
0000
0000
0000
ENDCHAR

STARTCHAR b0b5
ENCODING 45237
SWIDTH 960 0
DWIDTH 16 0
BBX 16 18 0 -3
BITMAP
0000
0028
3FA8
00A8
0128
0238
0428
0828
0028
0000
1000
1000
1000
1000
1FF0
0000
0000
0000
ENDCHAR

STARTCHAR b0b6
ENCODING 45238
SWIDTH 960 0
DWIDTH 16 0
BBX 16 18 0 -3
BITMAP
0000
0028
3FA8
00A8
0128
0238
0428
0828
0028
0000
1FF0
0010
1FF0
1000
1FF0
0000
0000
0000
ENDCHAR

STARTCHAR b0b7
ENCODING 45239
SWIDTH 960 0
DWIDTH 16 0
BBX 16 18 0 -3
BITMAP
0000
0028
3FA8
00A8
0128
0238
0428
0828
0028
0000
1FF0
1010
1010
1010
1FF0
0000
0000
0000
ENDCHAR

STARTCHAR b0b8
ENCODING 45240
SWIDTH 960 0
DWIDTH 16 0
BBX 16 18 0 -3
BITMAP
0000
0028
3FA8
00A8
0128
0238
0428
0828
0028
0000
1010
1010
1FF0
1010
1FF0
0000
0000
0000
ENDCHAR

STARTCHAR b0b9
ENCODING 45241
SWIDTH 960 0
DWIDTH 16 0
BBX 16 18 0 -3
BITMAP
0000
0028
3FA8
00A8
0128
0238
0428
0828
0028
0000
0100
0280
0440
0820
1010
0000
0000
0000
ENDCHAR

STARTCHAR b0ba
ENCODING 45242
SWIDTH 960 0
DWIDTH 16 0
BBX 16 18 0 -3
BITMAP
0000
0028
3FA8
00A8
0128
0238
0428
0828
0028
0000
0420
0420
0C60
1290
2108
0000
0000
0000
ENDCHAR

STARTCHAR b0bb
ENCODING 45243
SWIDTH 960 0
DWIDTH 16 0
BBX 16 18 0 -3
BITMAP
0000
0028
3FA8
00A8
0128
0238
0428
0828
0028
0000
0FE0
1010
1010
1010
0FE0
0000
0000
0000
ENDCHAR

STARTCHAR b0bc
ENCODING 45244
SWIDTH 960 0
DWIDTH 16 0
BBX 16 18 0 -3
BITMAP
0000
0010
0010
3F90
0090
009C
0110
0210
041C
0810
1010
0010
0010
0010
0010
0000
0000
0000
ENDCHAR

STARTCHAR b0bd
ENCODING 45245
SWIDTH 960 0
DWIDTH 16 0
BBX 16 18 0 -3
BITMAP
0000
0010
3F90
0090
011C
0210
041C
0810
0010
0000
1FF0
0010
0010
0010
0010
0000
0000
0000
ENDCHAR

STARTCHAR b0be
ENCODING 45246
SWIDTH 960 0
DWIDTH 16 0
BBX 16 18 0 -3
BITMAP
0000
0010
3F90
0090
011C
0210
041C
0810
0010
0000
1000
1000
1000
1000
1FF0
0000
0000
0000
ENDCHAR

STARTCHAR b0bf
ENCODING 45247
SWIDTH 960 0
DWIDTH 16 0
BBX 16 18 0 -3
BITMAP
0000
0010
3F90
0090
011C
0210
041C
0810
0010
0000
1FF0
0010
1FF0
1000
1FF0
0000
0000
0000
ENDCHAR

STARTCHAR b0c0
ENCODING 45248
SWIDTH 960 0
DWIDTH 16 0
BBX 16 18 0 -3
BITMAP
0000
0010
3F90
0090
011C
0210
041C
0810
0010
0000
0100
0280
0440
0820
1010
0000
0000
0000
ENDCHAR

STARTCHAR b0c1
ENCODING 45249
SWIDTH 960 0
DWIDTH 16 0
BBX 16 18 0 -3
BITMAP
0000
0010
3F90
0090
011C
0210
041C
0810
0010
0000
0FE0
1010
1010
1010
0FE0
0000
0000
0000
ENDCHAR

STARTCHAR b0c2
ENCODING 45250
SWIDTH 960 0
DWIDTH 16 0
BBX 16 18 0 -3
BITMAP
0000
0028
0028
3FA8
00A8
00B8
0128
0228
0438
0828
1028
0028
0028
0028
0028
0000
0000
0000
ENDCHAR

STARTCHAR b0c3
ENCODING 45251
SWIDTH 960 0
DWIDTH 16 0
BBX 16 18 0 -3
BITMAP
0000
0028
3FA8
00A8
0138
0228
0438
0828
0028
0000
1000
1000
1000
1000
1FF0
0000
0000
0000
ENDCHAR

STARTCHAR b0c4
ENCODING 45252
SWIDTH 960 0
DWIDTH 16 0
BBX 16 18 0 -3
BITMAP
0000
0028
3FA8
00A8
0138
0228
0438
0828
0028
0000
1FF0
0010
1FF0
1000
1FF0
0000
0000
0000
ENDCHAR

STARTCHAR b0c5
ENCODING 45253
SWIDTH 960 0
DWIDTH 16 0
BBX 16 18 0 -3
BITMAP
0000
0010
0010
3F90
0090
0090
0110
0270
0410
0810
1010
0010
0010
0010
0010
0000
0000
0000
ENDCHAR

STARTCHAR b0c6
ENCODING 45254
SWIDTH 960 0
DWIDTH 16 0
BBX 16 18 0 -3
BITMAP
0000
0010
3F90
0090
0110
0270
0410
0810
0010
0000
1FF0
0010
0010
0010
0010
0000
0000
0000
ENDCHAR

STARTCHAR b0c7
ENCODING 45255
SWIDTH 960 0
DWIDTH 16 0
BBX 16 18 0 -3
BITMAP
0000
0010
3F90
0090
0110
0270
0410
0810
0010
0000
1000
1000
1000
1000
1FF0
0000
0000
0000
ENDCHAR

STARTCHAR b0c8
ENCODING 45256
SWIDTH 960 0
DWIDTH 16 0
BBX 16 18 0 -3
BITMAP
0000
0010
3F90
0090
0110
0270
0410
0810
0010
0000
1FF0
1000
1000
1000
1FF0
0000
0000
0000
ENDCHAR

STARTCHAR b0c9
ENCODING 45257
SWIDTH 960 0
DWIDTH 16 0
BBX 16 18 0 -3
BITMAP
0000
0010
3F90
0090
0110
0270
0410
0810
0010
0000
1FF0
0010
1FF0
1000
1FF0
0000
0000
0000
ENDCHAR

STARTCHAR b0ca
ENCODING 45258
SWIDTH 960 0
DWIDTH 16 0
BBX 16 18 0 -3
BITMAP
0000
0010
3F90
0090
0110
0270
0410
0810
0010
0000
1EF0
0290
1E90
1090
1EF0
0000
0000
0000
ENDCHAR

STARTCHAR b0cb
ENCODING 45259
SWIDTH 960 0
DWIDTH 16 0
BBX 16 18 0 -3
BITMAP
0000
0010
3F90
0090
0110
0270
0410
0810
0010
0000
1FF0
1010
1010
1010
1FF0
0000
0000
0000
ENDCHAR

STARTCHAR b0cc
ENCODING 45260
SWIDTH 960 0
DWIDTH 16 0
BBX 16 18 0 -3
BITMAP
0000
0010
3F90
0090
0110
0270
0410
0810
0010
0000
1010
1010
1FF0
1010
1FF0
0000
0000
0000
ENDCHAR

STARTCHAR b0cd
ENCODING 45261
SWIDTH 960 0
DWIDTH 16 0
BBX 16 18 0 -3
BITMAP
0000
0010
3F90
0090
0110
0270
0410
0810
0010
0000
0100
0280
0440
0820
1010
0000
0000
0000
ENDCHAR

STARTCHAR b0ce
ENCODING 45262
SWIDTH 960 0
DWIDTH 16 0
BBX 16 18 0 -3
BITMAP
0000
0010
3F90
0090
0110
0270
0410
0810
0010
0000
0420
0420
0C60
1290
2108
0000
0000
0000
ENDCHAR

STARTCHAR b0cf
ENCODING 45263
SWIDTH 960 0
DWIDTH 16 0
BBX 16 18 0 -3
BITMAP
0000
0010
3F90
0090
0110
0270
0410
0810
0010
0000
0FE0
1010
1010
1010
0FE0
0000
0000
0000
ENDCHAR

STARTCHAR b0d0
ENCODING 45264
SWIDTH 960 0
DWIDTH 16 0
BBX 16 18 0 -3
BITMAP
0000
0010
3F90
0090
0110
0270
0410
0810
0010
0000
1FF0
0280
0440
0820
1010
0000
0000
0000
ENDCHAR

STARTCHAR b0d1
ENCODING 45265
SWIDTH 960 0
DWIDTH 16 0
BBX 16 18 0 -3
BITMAP
0000
0010
3F90
0090
0110
0270
0410
0810
0010
0000
1FF0
1000
1FF0
1000
1FF0
0000
0000
0000
ENDCHAR

STARTCHAR b0d2
ENCODING 45266
SWIDTH 960 0
DWIDTH 16 0
BBX 16 18 0 -3
BITMAP
0000
0010
3F90
0090
0110
0270
0410
0810
0010
0000
1FF0
0440
0440
0440
1FF0
0000
0000
0000
ENDCHAR

STARTCHAR b0d3
ENCODING 45267
SWIDTH 960 0
DWIDTH 16 0
BBX 16 18 0 -3
BITMAP
0000
0010
3F90
0090
0110
0270
0410
0810
0010
0000
0100
1FF0
0FE0
1010
0FE0
0000
0000
0000
ENDCHAR

STARTCHAR b0d4
ENCODING 45268
SWIDTH 960 0
DWIDTH 16 0
BBX 16 18 0 -3
BITMAP
0000
0028
0028
3FA8
00A8
00A8
0128
0268
0428
0828
1028
0028
0028
0028
0028
0000
0000
0000
ENDCHAR

STARTCHAR b0d5
ENCODING 45269
SWIDTH 960 0
DWIDTH 16 0
BBX 16 18 0 -3
BITMAP
0000
0028
3FA8
00A8
0128
0268
0428
0828
0028
0000
1000
1000
1000
1000
1FF0
0000
0000
0000
ENDCHAR

STARTCHAR b0d6
ENCODING 45270
SWIDTH 960 0
DWIDTH 16 0
BBX 16 18 0 -3
BITMAP
0000
0028
3FA8
00A8
0128
0268
0428
0828
0028
0000
1FF0
0010
1FF0
1000
1FF0
0000
0000
0000
ENDCHAR

STARTCHAR b0d7
ENCODING 45271
SWIDTH 960 0
DWIDTH 16 0
BBX 16 18 0 -3
BITMAP
0000
0028
3FA8
00A8
0128
0268
0428
0828
0028
0000
1FF0
1010
1010
1010
1FF0
0000
0000
0000
ENDCHAR

STARTCHAR b0d8
ENCODING 45272
SWIDTH 960 0
DWIDTH 16 0
BBX 16 18 0 -3
BITMAP
0000
0028
3FA8
00A8
0128
0268
0428
0828
0028
0000
1010
1010
1FF0
1010
1FF0
0000
0000
0000
ENDCHAR

STARTCHAR b0d9
ENCODING 45273
SWIDTH 960 0
DWIDTH 16 0
BBX 16 18 0 -3
BITMAP
0000
0028
3FA8
00A8
0128
0268
0428
0828
0028
0000
0100
0280
0440
0820
1010
0000
0000
0000
ENDCHAR

STARTCHAR b0da
ENCODING 45274
SWIDTH 960 0
DWIDTH 16 0
BBX 16 18 0 -3
BITMAP
0000
0028
3FA8
00A8
0128
0268
0428
0828
0028
0000
0420
0420
0C60
1290
2108
0000
0000
0000
ENDCHAR

STARTCHAR b0db
ENCODING 45275
SWIDTH 960 0
DWIDTH 16 0
BBX 16 18 0 -3
BITMAP
0000
0028
3FA8
00A8
0128
0268
0428
0828
0028
0000
0FE0
1010
1010
1010
0FE0
0000
0000
0000
ENDCHAR

STARTCHAR b0dc
ENCODING 45276
SWIDTH 960 0
DWIDTH 16 0
BBX 16 18 0 -3
BITMAP
0000
0010
0010
3F90
0090
00F0
0110
0210
0470
0810
1010
0010
0010
0010
0010
0000
0000
0000
ENDCHAR

STARTCHAR b0dd
ENCODING 45277
SWIDTH 960 0
DWIDTH 16 0
BBX 16 18 0 -3
BITMAP
0000
0010
3F90
0090
0170
0210
0470
0810
0010
0000
1FF0
0010
0010
0010
0010
0000
0000
0000
ENDCHAR

STARTCHAR b0de
ENCODING 45278
SWIDTH 960 0
DWIDTH 16 0
BBX 16 18 0 -3
BITMAP
0000
0010
3F90
0090
0170
0210
0470
0810
0010
0000
1EF0
0210
0210
0210
0210
0000
0000
0000
ENDCHAR

STARTCHAR b0df
ENCODING 45279
SWIDTH 960 0
DWIDTH 16 0
BBX 16 18 0 -3
BITMAP
0000
0010
3F90
0090
0170
0210
0470
0810
0010
0000
1000
1000
1000
1000
1FF0
0000
0000
0000
ENDCHAR

STARTCHAR b0e0
ENCODING 45280
SWIDTH 960 0
DWIDTH 16 0
BBX 16 18 0 -3
BITMAP
0000
0010
3F90
0090
0170
0210
0470
0810
0010
0000
1FF0
1000
1000
1000
1FF0
0000
0000
0000
ENDCHAR

STARTCHAR b0e1
ENCODING 45281
SWIDTH 960 0
DWIDTH 16 0
BBX 16 18 0 -3
BITMAP
0000
0010
3F90
0090
0170
0210
0470
0810
0010
0000
1FF0
0010
1FF0
1000
1FF0
0000
0000
0000
ENDCHAR

STARTCHAR b0e2
ENCODING 45282
SWIDTH 960 0
DWIDTH 16 0
BBX 16 18 0 -3
BITMAP
0000
0010
3F90
0090
0170
0210
0470
0810
0010
0000
1FF0
1010
1010
1010
1FF0
0000
0000
0000
ENDCHAR

STARTCHAR b0e3
ENCODING 45283
SWIDTH 960 0
DWIDTH 16 0
BBX 16 18 0 -3
BITMAP
0000
0010
3F90
0090
0170
0210
0470
0810
0010
0000
1010
1010
1FF0
1010
1FF0
0000
0000
0000
ENDCHAR

STARTCHAR b0e4
ENCODING 45284
SWIDTH 960 0
DWIDTH 16 0
BBX 16 18 0 -3
BITMAP
0000
0010
3F90
0090
0170
0210
0470
0810
0010
0000
0100
0280
0440
0820
1010
0000
0000
0000
ENDCHAR

STARTCHAR b0e5
ENCODING 45285
SWIDTH 960 0
DWIDTH 16 0
BBX 16 18 0 -3
BITMAP
0000
0010
3F90
0090
0170
0210
0470
0810
0010
0000
0420
0420
0C60
1290
2108
0000
0000
0000
ENDCHAR

STARTCHAR b0e6
ENCODING 45286
SWIDTH 960 0
DWIDTH 16 0
BBX 16 18 0 -3
BITMAP
0000
0010
3F90
0090
0170
0210
0470
0810
0010
0000
0FE0
1010
1010
1010
0FE0
0000
0000
0000
ENDCHAR

STARTCHAR b0e7
ENCODING 45287
SWIDTH 960 0
DWIDTH 16 0
BBX 16 18 0 -3
BITMAP
0000
0010
3F90
0090
0170
0210
0470
0810
0010
0000
1FF0
1000
1FF0
1000
1FF0
0000
0000
0000
ENDCHAR

STARTCHAR b0e8
ENCODING 45288
SWIDTH 960 0
DWIDTH 16 0
BBX 16 18 0 -3
BITMAP
0000
0028
0028
3FA8
00A8
00E8
0128
0228
0468
0828
1028
0028
0028
0028
0028
0000
0000
0000
ENDCHAR

STARTCHAR b0e9
ENCODING 45289
SWIDTH 960 0
DWIDTH 16 0
BBX 16 18 0 -3
BITMAP
0000
0028
3FA8
00A8
0168
0228
0468
0828
0028
0000
1000
1000
1000
1000
1FF0
0000
0000
0000
ENDCHAR

STARTCHAR b0ea
ENCODING 45290
SWIDTH 960 0
DWIDTH 16 0
BBX 16 18 0 -3
BITMAP
0000
0028
3FA8
00A8
0168
0228
0468
0828
0028
0000
1FF0
0010
1FF0
1000
1FF0
0000
0000
0000
ENDCHAR

STARTCHAR b0eb
ENCODING 45291
SWIDTH 960 0
DWIDTH 16 0
BBX 16 18 0 -3
BITMAP
0000
0028
3FA8
00A8
0168
0228
0468
0828
0028
0000
1010
1010
1FF0
1010
1FF0
0000
0000
0000
ENDCHAR

STARTCHAR b0ec
ENCODING 45292
SWIDTH 960 0
DWIDTH 16 0
BBX 16 18 0 -3
BITMAP
0000
0028
3FA8
00A8
0168
0228
0468
0828
0028
0000
0100
0280
0440
0820
1010
0000
0000
0000
ENDCHAR

STARTCHAR b0ed
ENCODING 45293
SWIDTH 960 0
DWIDTH 16 0
BBX 16 18 0 -3
BITMAP
0000
0000
1FF0
0010
0010
0010
0010
0010
0000
0100
0100
0100
0100
7FFC
0000
0000
0000
0000
ENDCHAR

STARTCHAR b0ee
ENCODING 45294
SWIDTH 960 0
DWIDTH 16 0
BBX 16 18 0 -3
BITMAP
0000
0000
1FF0
0010
0010
0010
0100
0100
7FFC
0000
1FF0
0010
0010
0010
0010
0000
0000
0000
ENDCHAR

STARTCHAR b0ef
ENCODING 45295
SWIDTH 960 0
DWIDTH 16 0
BBX 16 18 0 -3
BITMAP
0000
0000
1FF0
0010
0010
0010
0100
0100
7FFC
0000
1000
1000
1000
1000
1FF0
0000
0000
0000
ENDCHAR

STARTCHAR b0f0
ENCODING 45296
SWIDTH 960 0
DWIDTH 16 0
BBX 16 18 0 -3
BITMAP
0000
0000
1FF0
0010
0010
0010
0100
0100
7FFC
0000
1FF0
1000
1000
1000
1FF0
0000
0000
0000
ENDCHAR

STARTCHAR b0f1
ENCODING 45297
SWIDTH 960 0
DWIDTH 16 0
BBX 16 18 0 -3
BITMAP
0000
0000
1FF0
0010
0010
0010
0100
0100
7FFC
0000
1FF0
0010
1FF0
1000
1FF0
0000
0000
0000
ENDCHAR

STARTCHAR b0f2
ENCODING 45298
SWIDTH 960 0
DWIDTH 16 0
BBX 16 18 0 -3
BITMAP
0000
0000
1FF0
0010
0010
0010
0100
0100
7FFC
0000
1EF0
0290
1E90
1090
1EF0
0000
0000
0000
ENDCHAR

STARTCHAR b0f3
ENCODING 45299
SWIDTH 960 0
DWIDTH 16 0
BBX 16 18 0 -3
BITMAP
0000
0000
1FF0
0010
0010
0010
0100
0100
7FFC
0000
1E40
0240
1E40
10A0
1F10
0000
0000
0000
ENDCHAR

STARTCHAR b0f4
ENCODING 45300
SWIDTH 960 0
DWIDTH 16 0
BBX 16 18 0 -3
BITMAP
0000
0000
1FF0
0010
0010
0010
0100
0100
7FFC
0000
1E40
03F0
1EE0
1110
1EE0
0000
0000
0000
ENDCHAR

STARTCHAR b0f5
ENCODING 45301
SWIDTH 960 0
DWIDTH 16 0
BBX 16 18 0 -3
BITMAP
0000
0000
1FF0
0010
0010
0010
0100
0100
7FFC
0000
1FF0
1010
1010
1010
1FF0
0000
0000
0000
ENDCHAR

STARTCHAR b0f6
ENCODING 45302
SWIDTH 960 0
DWIDTH 16 0
BBX 16 18 0 -3
BITMAP
0000
0000
1FF0
0010
0010
0010
0100
0100
7FFC
0000
1010
1010
1FF0
1010
1FF0
0000
0000
0000
ENDCHAR

STARTCHAR b0f7
ENCODING 45303
SWIDTH 960 0
DWIDTH 16 0
BBX 16 18 0 -3
BITMAP
0000
0000
1FF0
0010
0010
0010
0100
0100
7FFC
0000
0100
0280
0440
0820
1010
0000
0000
0000
ENDCHAR

STARTCHAR b0f8
ENCODING 45304
SWIDTH 960 0
DWIDTH 16 0
BBX 16 18 0 -3
BITMAP
0000
0000
1FF0
0010
0010
0010
0100
0100
7FFC
0000
0FE0
1010
1010
1010
0FE0
0000
0000
0000
ENDCHAR

STARTCHAR b0f9
ENCODING 45305
SWIDTH 960 0
DWIDTH 16 0
BBX 16 18 0 -3
BITMAP
0000
0000
1FF0
0010
0010
0010
0100
0100
7FFC
0000
1FF0
0280
0440
0820
1010
0000
0000
0000
ENDCHAR

STARTCHAR b0fa
ENCODING 45306
SWIDTH 960 0
DWIDTH 16 0
BBX 16 18 0 -3
BITMAP
0000
0010
0010
3F90
0090
0090
0090
009C
0090
0410
0410
0410
0410
7FD0
0010
0000
0000
0000
ENDCHAR

STARTCHAR b0fb
ENCODING 45307
SWIDTH 960 0
DWIDTH 16 0
BBX 16 18 0 -3
BITMAP
0000
0010
3F90
0090
0090
0090
041C
0410
7FD0
0000
1FF0
0010
0010
0010
0010
0000
0000
0000
ENDCHAR

STARTCHAR b0fc
ENCODING 45308
SWIDTH 960 0
DWIDTH 16 0
BBX 16 18 0 -3
BITMAP
0000
0010
3F90
0090
0090
0090
041C
0410
7FD0
0000
1000
1000
1000
1000
1FF0
0000
0000
0000
ENDCHAR

STARTCHAR b0fd
ENCODING 45309
SWIDTH 960 0
DWIDTH 16 0
BBX 16 18 0 -3
BITMAP
0000
0010
3F90
0090
0090
0090
041C
0410
7FD0
0000
1FF0
0010
1FF0
1000
1FF0
0000
0000
0000
ENDCHAR

STARTCHAR b0fe
ENCODING 45310
SWIDTH 960 0
DWIDTH 16 0
BBX 16 18 0 -3
BITMAP
0000
0010
3F90
0090
0090
0090
041C
0410
7FD0
0000
1EF0
0290
1E90
1090
1EF0
0000
0000
0000
ENDCHAR

STARTCHAR b1a1
ENCODING 45473
SWIDTH 960 0
DWIDTH 16 0
BBX 16 18 0 -3
BITMAP
0000
0010
3F90
0090
0090
0090
041C
0410
7FD0
0000
1FF0
1010
1010
1010
1FF0
0000
0000
0000
ENDCHAR

STARTCHAR b1a2
ENCODING 45474
SWIDTH 960 0
DWIDTH 16 0
BBX 16 18 0 -3
BITMAP
0000
0010
3F90
0090
0090
0090
041C
0410
7FD0
0000
1010
1010
1FF0
1010
1FF0
0000
0000
0000
ENDCHAR

STARTCHAR b1a3
ENCODING 45475
SWIDTH 960 0
DWIDTH 16 0
BBX 16 18 0 -3
BITMAP
0000
0010
3F90
0090
0090
0090
041C
0410
7FD0
0000
0100
0280
0440
0820
1010
0000
0000
0000
ENDCHAR

STARTCHAR b1a4
ENCODING 45476
SWIDTH 960 0
DWIDTH 16 0
BBX 16 18 0 -3
BITMAP
0000
0010
3F90
0090
0090
0090
041C
0410
7FD0
0000
0FE0
1010
1010
1010
0FE0
0000
0000
0000
ENDCHAR

STARTCHAR b1a5
ENCODING 45477
SWIDTH 960 0
DWIDTH 16 0
BBX 16 18 0 -3
BITMAP
0000
0028
0028
3FA8
00A8
00A8
00A8
00B8
00A8
0428
0428
0428
0428
7FE8
0028
0000
0000
0000
ENDCHAR

STARTCHAR b1a6
ENCODING 45478
SWIDTH 960 0
DWIDTH 16 0
BBX 16 18 0 -3
BITMAP
0000
0028
3FA8
00A8
00A8
00B8
0428
0428
7FE8
0000
1000
1000
1000
1000
1FF0
0000
0000
0000
ENDCHAR

STARTCHAR b1a7
ENCODING 45479
SWIDTH 960 0
DWIDTH 16 0
BBX 16 18 0 -3
BITMAP
0000
0028
3FA8
00A8
00A8
00B8
0428
0428
7FE8
0000
1FF0
0010
1FF0
1000
1FF0
0000
0000
0000
ENDCHAR

STARTCHAR b1a8
ENCODING 45480
SWIDTH 960 0
DWIDTH 16 0
BBX 16 18 0 -3
BITMAP
0000
0028
3FA8
00A8
00A8
00B8
0428
0428
7FE8
0000
1010
1010
1FF0
1010
1FF0
0000
0000
0000
ENDCHAR

STARTCHAR b1a9
ENCODING 45481
SWIDTH 960 0
DWIDTH 16 0
BBX 16 18 0 -3
BITMAP
0000
0028
3FA8
00A8
00A8
00B8
0428
0428
7FE8
0000
0420
0420
0C60
1290
2108
0000
0000
0000
ENDCHAR

STARTCHAR b1aa
ENCODING 45482
SWIDTH 960 0
DWIDTH 16 0
BBX 16 18 0 -3
BITMAP
0000
0028
3FA8
00A8
00A8
00B8
0428
0428
7FE8
0000
0FE0
1010
1010
1010
0FE0
0000
0000
0000
ENDCHAR

STARTCHAR b1ab
ENCODING 45483
SWIDTH 960 0
DWIDTH 16 0
BBX 16 18 0 -3
BITMAP
0000
0010
0010
3F90
0090
0090
0090
0090
0090
0410
0410
0410
0410
7FD0
0010
0000
0000
0000
ENDCHAR

STARTCHAR b1ac
ENCODING 45484
SWIDTH 960 0
DWIDTH 16 0
BBX 16 18 0 -3
BITMAP
0000
0010
3F90
0090
0090
0090
0410
0410
7FD0
0000
1FF0
0010
0010
0010
0010
0000
0000
0000
ENDCHAR

STARTCHAR b1ad
ENCODING 45485
SWIDTH 960 0
DWIDTH 16 0
BBX 16 18 0 -3
BITMAP
0000
0010
3F90
0090
0090
0090
0410
0410
7FD0
0000
1000
1000
1000
1000
1FF0
0000
0000
0000
ENDCHAR

STARTCHAR b1ae
ENCODING 45486
SWIDTH 960 0
DWIDTH 16 0
BBX 16 18 0 -3
BITMAP
0000
0010
3F90
0090
0090
0090
0410
0410
7FD0
0000
1FF0
0010
1FF0
1000
1FF0
0000
0000
0000
ENDCHAR

STARTCHAR b1af
ENCODING 45487
SWIDTH 960 0
DWIDTH 16 0
BBX 16 18 0 -3
BITMAP
0000
0010
3F90
0090
0090
0090
0410
0410
7FD0
0000
1FF0
1010
1010
1010
1FF0
0000
0000
0000
ENDCHAR

STARTCHAR b1b0
ENCODING 45488
SWIDTH 960 0
DWIDTH 16 0
BBX 16 18 0 -3
BITMAP
0000
0010
3F90
0090
0090
0090
0410
0410
7FD0
0000
1010
1010
1FF0
1010
1FF0
0000
0000
0000
ENDCHAR

STARTCHAR b1b1
ENCODING 45489
SWIDTH 960 0
DWIDTH 16 0
BBX 16 18 0 -3
BITMAP
0000
0010
3F90
0090
0090
0090
0410
0410
7FD0
0000
0100
0280
0440
0820
1010
0000
0000
0000
ENDCHAR

STARTCHAR b1b2
ENCODING 45490
SWIDTH 960 0
DWIDTH 16 0
BBX 16 18 0 -3
BITMAP
0000
0010
3F90
0090
0090
0090
0410
0410
7FD0
0000
0FE0
1010
1010
1010
0FE0
0000
0000
0000
ENDCHAR

STARTCHAR b1b3
ENCODING 45491
SWIDTH 960 0
DWIDTH 16 0
BBX 16 18 0 -3
BITMAP
0000
0000
1FF0
0010
0010
0010
0010
0010
0000
0440
0440
0440
0440
7FFC
0000
0000
0000
0000
ENDCHAR

STARTCHAR b1b4
ENCODING 45492
SWIDTH 960 0
DWIDTH 16 0
BBX 16 18 0 -3
BITMAP
0000
0000
1FF0
0010
0010
0010
0440
0440
7FFC
0000
1000
1000
1000
1000
1FF0
0000
0000
0000
ENDCHAR

STARTCHAR b1b5
ENCODING 45493
SWIDTH 960 0
DWIDTH 16 0
BBX 16 18 0 -3
BITMAP
0000
0000
1FF0
0010
0010
0010
0440
0440
7FFC
0000
1FF0
0010
1FF0
1000
1FF0
0000
0000
0000
ENDCHAR

STARTCHAR b1b6
ENCODING 45494
SWIDTH 960 0
DWIDTH 16 0
BBX 16 18 0 -3
BITMAP
0000
0000
1FF0
0010
0010
0010
0440
0440
7FFC
0000
1010
1010
1FF0
1010
1FF0
0000
0000
0000
ENDCHAR

STARTCHAR b1b7
ENCODING 45495
SWIDTH 960 0
DWIDTH 16 0
BBX 16 18 0 -3
BITMAP
0000
0000
1FF0
0010
0010
0010
0440
0440
7FFC
0000
0100
0280
0440
0820
1010
0000
0000
0000
ENDCHAR

STARTCHAR b1b8
ENCODING 45496
SWIDTH 960 0
DWIDTH 16 0
BBX 16 18 0 -3
BITMAP
0000
0000
1FF0
0010
0010
0010
0010
0010
0000
0000
7FFC
0100
0100
0100
0100
0000
0000
0000
ENDCHAR

STARTCHAR b1b9
ENCODING 45497
SWIDTH 960 0
DWIDTH 16 0
BBX 16 18 0 -3
BITMAP
0000
0000
1FF0
0010
0010
0010
0000
7FFC
0100
0100
1FF0
0010
0010
0010
0010
0000
0000
0000
ENDCHAR

STARTCHAR b1ba
ENCODING 45498
SWIDTH 960 0
DWIDTH 16 0
BBX 16 18 0 -3
BITMAP
0000
0000
1FF0
0010
0010
0010
0000
7FFC
0100
0100
1000
1000
1000
1000
1FF0
0000
0000
0000
ENDCHAR

STARTCHAR b1bb
ENCODING 45499
SWIDTH 960 0
DWIDTH 16 0
BBX 16 18 0 -3
BITMAP
0000
0000
1FF0
0010
0010
0010
0000
7FFC
0100
0100
1FF0
1000
1000
1000
1FF0
0000
0000
0000
ENDCHAR

STARTCHAR b1bc
ENCODING 45500
SWIDTH 960 0
DWIDTH 16 0
BBX 16 18 0 -3
BITMAP
0000
0000
1FF0
0010
0010
0010
0000
7FFC
0100
0100
1FF0
0010
1FF0
1000
1FF0
0000
0000
0000
ENDCHAR

STARTCHAR b1bd
ENCODING 45501
SWIDTH 960 0
DWIDTH 16 0
BBX 16 18 0 -3
BITMAP
0000
0000
1FF0
0010
0010
0010
0000
7FFC
0100
0100
1EF0
0210
1E10
1010
1E10
0000
0000
0000
ENDCHAR

STARTCHAR b1be
ENCODING 45502
SWIDTH 960 0
DWIDTH 16 0
BBX 16 18 0 -3
BITMAP
0000
0000
1FF0
0010
0010
0010
0000
7FFC
0100
0100
1EF0
0290
1E90
1090
1EF0
0000
0000
0000
ENDCHAR

STARTCHAR b1bf
ENCODING 45503
SWIDTH 960 0
DWIDTH 16 0
BBX 16 18 0 -3
BITMAP
0000
0000
1FF0
0010
0010
0010
0000
7FFC
0100
0100
1E40
03F0
1EE0
1110
1EE0
0000
0000
0000
ENDCHAR

STARTCHAR b1c0
ENCODING 45504
SWIDTH 960 0
DWIDTH 16 0
BBX 16 18 0 -3
BITMAP
0000
0000
1FF0
0010
0010
0010
0000
7FFC
0100
0100
1FF0
1010
1010
1010
1FF0
0000
0000
0000
ENDCHAR

STARTCHAR b1c1
ENCODING 45505
SWIDTH 960 0
DWIDTH 16 0
BBX 16 18 0 -3
BITMAP
0000
0000
1FF0
0010
0010
0010
0000
7FFC
0100
0100
1010
1010
1FF0
1010
1FF0
0000
0000
0000
ENDCHAR

STARTCHAR b1c2
ENCODING 45506
SWIDTH 960 0
DWIDTH 16 0
BBX 16 18 0 -3
BITMAP
0000
0000
1FF0
0010
0010
0010
0000
7FFC
0100
0100
0100
0280
0440
0820
1010
0000
0000
0000
ENDCHAR

STARTCHAR b1c3
ENCODING 45507
SWIDTH 960 0
DWIDTH 16 0
BBX 16 18 0 -3
BITMAP
0000
0000
1FF0
0010
0010
0010
0000
7FFC
0100
0100
0FE0
1010
1010
1010
0FE0
0000
0000
0000
ENDCHAR

STARTCHAR b1c4
ENCODING 45508
SWIDTH 960 0
DWIDTH 16 0
BBX 16 18 0 -3
BITMAP
0000
0000
1FF0
0010
0010
0010
0000
7FFC
0100
0100
1FF0
0280
0440
0820
1010
0000
0000
0000
ENDCHAR

STARTCHAR b1c5
ENCODING 45509
SWIDTH 960 0
DWIDTH 16 0
BBX 16 18 0 -3
BITMAP
0000
0010
0010
3F90
0090
0090
0090
0090
0090
0010
7FD0
0410
0470
0410
0010
0000
0000
0000
ENDCHAR

STARTCHAR b1c6
ENCODING 45510
SWIDTH 960 0
DWIDTH 16 0
BBX 16 18 0 -3
BITMAP
0000
0010
3F90
0090
0090
00F0
0010
7FD0
0410
0410
1FF0
0010
0010
0010
0010
0000
0000
0000
ENDCHAR

STARTCHAR b1c7
ENCODING 45511
SWIDTH 960 0
DWIDTH 16 0
BBX 16 18 0 -3
BITMAP
0000
0010
3F90
0090
0090
00F0
0010
7FD0
0410
0410
1000
1000
1000
1000
1FF0
0000
0000
0000
ENDCHAR

STARTCHAR b1c8
ENCODING 45512
SWIDTH 960 0
DWIDTH 16 0
BBX 16 18 0 -3
BITMAP
0000
0010
3F90
0090
0090
00F0
0010
7FD0
0410
0410
1FF0
0010
1FF0
1000
1FF0
0000
0000
0000
ENDCHAR

STARTCHAR b1c9
ENCODING 45513
SWIDTH 960 0
DWIDTH 16 0
BBX 16 18 0 -3
BITMAP
0000
0010
3F90
0090
0090
00F0
0010
7FD0
0410
0410
0420
0420
0C60
1290
2108
0000
0000
0000
ENDCHAR

STARTCHAR b1ca
ENCODING 45514
SWIDTH 960 0
DWIDTH 16 0
BBX 16 18 0 -3
BITMAP
0000
0010
3F90
0090
0090
00F0
0010
7FD0
0410
0410
0FE0
1010
1010
1010
0FE0
0000
0000
0000
ENDCHAR

STARTCHAR b1cb
ENCODING 45515
SWIDTH 960 0
DWIDTH 16 0
BBX 16 18 0 -3
BITMAP
0000
0028
0028
3FA8
00A8
00A8
00A8
00A8
00A8
0028
7FA8
0428
0468
0428
0028
0000
0000
0000
ENDCHAR

STARTCHAR b1cc
ENCODING 45516
SWIDTH 960 0
DWIDTH 16 0
BBX 16 18 0 -3
BITMAP
0000
0028
3FA8
00A8
00A8
00E8
0028
7FA8
0428
0428
0100
0280
0440
0820
1010
0000
0000
0000
ENDCHAR

STARTCHAR b1cd
ENCODING 45517
SWIDTH 960 0
DWIDTH 16 0
BBX 16 18 0 -3
BITMAP
0000
0010
0010
3F90
0090
0090
0090
0090
0090
0010
7FD0
0410
0410
0410
0010
0000
0000
0000
ENDCHAR

STARTCHAR b1ce
ENCODING 45518
SWIDTH 960 0
DWIDTH 16 0
BBX 16 18 0 -3
BITMAP
0000
0010
3F90
0090
0090
0090
0010
7FD0
0410
0410
1FF0
0010
0010
0010
0010
0000
0000
0000
ENDCHAR

STARTCHAR b1cf
ENCODING 45519
SWIDTH 960 0
DWIDTH 16 0
BBX 16 18 0 -3
BITMAP
0000
0010
3F90
0090
0090
0090
0010
7FD0
0410
0410
1000
1000
1000
1000
1FF0
0000
0000
0000
ENDCHAR

STARTCHAR b1d0
ENCODING 45520
SWIDTH 960 0
DWIDTH 16 0
BBX 16 18 0 -3
BITMAP
0000
0010
3F90
0090
0090
0090
0010
7FD0
0410
0410
1FF0
0010
1FF0
1000
1FF0
0000
0000
0000
ENDCHAR

STARTCHAR b1d1
ENCODING 45521
SWIDTH 960 0
DWIDTH 16 0
BBX 16 18 0 -3
BITMAP
0000
0010
3F90
0090
0090
0090
0010
7FD0
0410
0410
1FF0
1010
1010
1010
1FF0
0000
0000
0000
ENDCHAR

STARTCHAR b1d2
ENCODING 45522
SWIDTH 960 0
DWIDTH 16 0
BBX 16 18 0 -3
BITMAP
0000
0010
3F90
0090
0090
0090
0010
7FD0
0410
0410
1010
1010
1FF0
1010
1FF0
0000
0000
0000
ENDCHAR

STARTCHAR b1d3
ENCODING 45523
SWIDTH 960 0
DWIDTH 16 0
BBX 16 18 0 -3
BITMAP
0000
0010
3F90
0090
0090
0090
0010
7FD0
0410
0410
0100
0280
0440
0820
1010
0000
0000
0000
ENDCHAR

STARTCHAR b1d4
ENCODING 45524
SWIDTH 960 0
DWIDTH 16 0
BBX 16 18 0 -3
BITMAP
0000
0000
1FF0
0010
0010
0010
0010
0010
0000
0000
7FFC
0440
0440
0440
0440
0000
0000
0000
ENDCHAR

ENDFONT
